<?xml version="1.0" standalone="no"?>
<!DOCTYPE svg PUBLIC "-//W3C//DTD SVG 20010904//EN"
 "http://www.w3.org/TR/2001/REC-SVG-20010904/DTD/svg10.dtd">
<svg version="1.0" xmlns="http://www.w3.org/2000/svg"
 width="511.000000pt" height="511.000000pt" viewBox="0 0 511.000000 511.000000"
 preserveAspectRatio="xMidYMid meet">
<metadata>
Created by potrace 1.14, written by Peter Selinger 2001-2017
</metadata>
<g transform="translate(0.000000,511.000000) scale(0.100000,-0.100000)"
fill="#000000" stroke="none">
<path d="M1425 4928 c-236 -18 -449 -129 -650 -340 -310 -322 -404 -780 -253
-1232 64 -193 162 -399 257 -539 117 -174 300 -377 433 -479 68 -52 78 -65 78
-92 2 -360 170 -751 446 -1041 86 -90 221 -187 331 -236 34 -15 63 -35 67 -46
2 -10 48 -214 101 -453 52 -239 98 -443 101 -452 4 -14 17 -18 60 -18 48 0 55
2 50 18 -2 9 -28 121 -56 247 -28 127 -62 278 -75 338 -14 59 -25 109 -25 110
0 2 30 -2 68 -8 l67 -11 11 -96 c6 -53 14 -127 18 -165 12 -125 17 -178 21
-208 2 -16 7 -74 11 -127 l7 -98 59 0 c33 0 57 3 55 8 -3 4 -8 39 -12 77 -3
39 -8 86 -10 105 -2 19 -6 64 -9 100 -4 36 -9 88 -12 115 -4 28 -16 158 -28
290 l-21 240 56 21 c61 22 112 51 174 98 64 49 203 186 252 249 25 32 47 57
49 54 3 -3 -7 -73 -31 -217 -2 -14 -45 -270 -95 -570 -49 -300 -92 -551 -95
-557 -3 -10 11 -13 54 -13 l57 0 12 73 c6 39 14 83 16 97 3 14 43 257 90 540
47 283 91 531 97 551 11 35 12 36 50 29 64 -12 189 11 189 34 0 6 -11 35 -25
64 -14 30 -25 58 -25 62 0 4 24 11 53 15 208 27 470 184 695 417 232 240 430
620 478 917 76 472 -183 973 -614 1185 -89 45 -225 92 -304 106 -79 15 -357
15 -423 0 -168 -36 -341 -115 -467 -211 -44 -33 -81 -59 -83 -57 -1 1 -5 39
-9 83 -28 374 -298 766 -640 930 -189 90 -339 113 -601 93z"/>
</g>
</svg>
