<svg width="921" height="1124" viewBox="0 0 921 1124" fill="none" xmlns="http://www.w3.org/2000/svg" xmlns:xlink="http://www.w3.org/1999/xlink">	
	<symbol id="snow"><path d="M28.9997 19.4999H31.1696L30.6136 27.2385L18.684 16.9083L20.6233 14.969C20.717 14.8753 20.7697 14.7481 20.7697 14.6155C20.7697 14.4829 20.717 14.3557 20.6233 14.2619L19.2091 12.8477C19.0138 12.6524 18.6972 12.6524 18.5019 12.8477L16.4103 14.9394L10.6999 9.99463C10.5017 9.82297 10.2045 9.83363 10.0191 10.0191C9.83363 10.2045 9.82297 10.5017 9.99463 10.6999L14.9394 16.4103L12.8451 18.5046C12.6498 18.6998 12.6498 19.0164 12.8451 19.2117L14.2593 20.6259C14.3531 20.7197 14.4802 20.7724 14.6128 20.7724C14.7455 20.7724 14.8726 20.7197 14.9664 20.6259L16.9083 18.684L27.2385 30.6136L19.4987 31.1697V29.0002C19.4987 28.7241 19.2748 28.5002 18.9987 28.5002H16.9987C16.7225 28.5002 16.4987 28.7241 16.4987 29.0002V31.3852L0.964167 32.5014C0.702603 32.5202 0.5 32.7379 0.5 33.0001C0.5 33.2623 0.702603 33.48 0.964167 33.4988L16.4987 34.615V37.0002C16.4987 37.2764 16.7225 37.5002 16.9987 37.5002H18.9987C19.2748 37.5002 19.4987 37.2764 19.4987 37.0002V34.8305L27.2385 35.3866L16.9085 47.316L14.9672 45.3746C14.8734 45.2809 14.7462 45.2282 14.6136 45.2282C14.481 45.2282 14.3538 45.2809 14.2601 45.3746L12.8459 46.7889C12.6506 46.9841 12.6506 47.3007 12.8459 47.496L14.9396 49.5897L9.99463 55.3003C9.82297 55.4985 9.83363 55.7957 10.0191 55.9811C10.2045 56.1666 10.5017 56.1772 10.6999 56.0056L16.4105 51.0606L18.5027 53.1528C18.5965 53.2466 18.7237 53.2993 18.8563 53.2993C18.9889 53.2993 19.1161 53.2466 19.2098 53.1528L20.6241 51.7386C20.8193 51.5434 20.8193 51.2268 20.6241 51.0315L18.6842 49.0917L30.6136 38.7617L31.1696 46.5001H28.9993C28.7231 46.5001 28.4993 46.724 28.4993 47.0001V49.0001C28.4993 49.2763 28.7231 49.5001 28.9993 49.5001H31.3851L32.5014 65.036C32.5202 65.2976 32.7379 65.5002 33.0001 65.5002C33.2623 65.5002 33.48 65.2976 33.4988 65.036L34.6151 49.5001H36.9993C37.2754 49.5001 37.4993 49.2763 37.4993 49.0001V47.0001C37.4993 46.724 37.2754 46.5001 36.9993 46.5001H34.8306L35.3866 38.7617L47.3143 49.0903L45.373 51.0316C45.1777 51.2269 45.1777 51.5434 45.373 51.7387L46.7872 53.1529C46.9825 53.3482 47.299 53.3482 47.4943 53.1529L49.5881 51.0592L55.3003 56.0056C55.4985 56.1772 55.7957 56.1666 55.9811 55.9811C56.1666 55.7957 56.1772 55.4985 56.0056 55.3003L51.0592 49.5881L53.1512 47.4961C53.3464 47.3008 53.3464 46.9842 53.1512 46.7889L51.7369 45.3747C51.5417 45.1795 51.2251 45.1795 51.0298 45.3747L49.0903 47.3143L38.7617 35.3866L46.4991 34.8307V37.0002C46.4991 37.2763 46.723 37.5002 46.9991 37.5002H48.9991C49.2753 37.5002 49.4991 37.2763 49.4991 37.0002V34.6152L65.036 33.4988C65.2976 33.48 65.5002 33.2623 65.5002 33.0001C65.5002 32.7379 65.2976 32.5202 65.036 32.5014L49.4991 31.3851V29.0001C49.4991 28.724 49.2753 28.5001 48.9991 28.5001H46.9991C46.723 28.5001 46.4991 28.724 46.4991 29.0001V31.1695L38.7617 30.6136L49.0906 18.6855L51.0309 20.6258C51.1247 20.7196 51.2518 20.7722 51.3844 20.7722C51.5171 20.7722 51.6442 20.7196 51.738 20.6258L53.1522 19.2116C53.3475 19.0163 53.3475 18.6997 53.1522 18.5045L51.0595 16.4118L56.0056 10.6999C56.1772 10.5017 56.1666 10.2045 55.9811 10.0191C55.7957 9.83363 55.4985 9.82297 55.3003 9.99463L49.5885 14.9407L47.4953 12.8476C47.3001 12.6523 46.9835 12.6523 46.7882 12.8476L45.374 14.2618C45.2803 14.3556 45.2276 14.4828 45.2276 14.6154C45.2276 14.748 45.2803 14.8752 45.374 14.9689L47.3147 16.9096L35.3866 27.2385L34.8306 19.4999H36.9997C37.2759 19.4999 37.4997 19.276 37.4997 18.9999V16.9999C37.4997 16.7237 37.2759 16.4999 36.9997 16.4999H34.6151L33.4988 0.964167C33.48 0.702603 33.2623 0.5 33.0001 0.5C32.7379 0.5 32.5202 0.702603 32.5014 0.964167L31.3851 16.4999H28.9997C28.7236 16.4999 28.4997 16.7237 28.4997 16.9999V18.9999C28.4997 19.276 28.7236 19.4999 28.9997 19.4999Z" stroke-linejoin="round"/></symbol>
	<symbol id="snowS"><path d="M7.16539 0.80178C7.08629 0.618613 6.90587 0.5 6.70636 0.5C6.50684 0.5 6.32642 0.618613 6.24733 0.80178L5.36005 2.85651L3.43449 1.71573C3.26283 1.61403 3.04715 1.62412 2.88574 1.74139C2.72433 1.85867 2.64809 2.06067 2.69176 2.25535L3.18167 4.43919L0.95333 4.64809C0.754685 4.66672 0.586125 4.80165 0.524472 4.9914C0.462818 5.18115 0.519873 5.3894 0.669633 5.52122L2.34961 7.00002L0.669633 8.47882C0.519873 8.61064 0.462818 8.81888 0.524472 9.00864C0.586125 9.19839 0.754685 9.33332 0.95333 9.35194L3.18167 9.56085L2.69176 11.7447C2.64809 11.9394 2.72433 12.1414 2.88574 12.2586C3.04715 12.3759 3.26283 12.386 3.43449 12.2843L5.36005 11.1435L6.24733 13.1983C6.32642 13.3814 6.50684 13.5 6.70636 13.5C6.90587 13.5 7.08629 13.3814 7.16539 13.1983L8.05267 11.1435L9.97823 12.2843C10.1499 12.386 10.3656 12.3759 10.527 12.2586C10.6884 12.1414 10.7646 11.9394 10.721 11.7447L10.231 9.56085L12.4594 9.35194C12.658 9.33332 12.8266 9.19839 12.8882 9.00864C12.9499 8.81888 12.8928 8.61064 12.7431 8.47882L11.0631 7.00002L12.7431 5.52122C12.8928 5.3894 12.9499 5.18115 12.8882 4.9914C12.8266 4.80165 12.658 4.66672 12.4594 4.64809L10.231 4.43919L10.721 2.25535C10.7646 2.06067 10.6884 1.85867 10.527 1.74139C10.3656 1.62412 10.1499 1.61403 9.97823 1.71573L8.05267 2.85651L7.16539 0.80178Z" stroke-linejoin="round"/></symbol>
	<path d="M466.282 1049.83C588.697 1079.38 746.316 1047.83 847.907 724.73C883.51 611.501 772.519 606.001 883.51 490.501C957.504 413.501 821.395 230.308 720.079 204.662C540.376 159.173 538.711 349.001 358.149 384.477C173.416 420.773 -37.6616 452.555 20.3172 649.028C97.3188 909.963 375.981 1028.04 466.282 1049.83Z" fill="#DCE4FF"/>
	<path d="M838.368 721.731C787.925 882.156 724.117 968.368 659.387 1011.18C594.97 1053.79 528.036 1054.45 468.628 1040.11C424.699 1029.51 333.643 995.074 244.134 930.979C154.686 866.928 67.5763 773.843 29.9083 646.197C15.9112 598.765 18.4915 562.553 31.7303 534.131C45.0334 505.572 69.7837 483.4 102.967 465.486C164.316 432.366 250.946 415.523 336.706 398.849C344.51 397.332 352.307 395.816 360.077 394.29C444.108 377.779 491.207 328.742 532.268 285.99C537.101 280.959 541.85 276.014 546.565 271.22C569.179 248.231 590.706 228.917 617.004 217.788C642.936 206.814 674.463 203.431 717.625 214.356C740.938 220.258 767.09 235.508 792.285 256.934C817.374 278.269 840.918 305.224 859.108 333.706C877.348 362.267 889.856 391.815 893.532 418.334C897.19 444.716 892.056 467.176 876.3 483.572C848.081 512.937 833.004 536.269 826.58 556.935C820.006 578.085 822.831 595.353 827.899 611.467C829.64 617.005 831.608 622.371 833.577 627.743C842.8 652.896 852.065 678.168 838.368 721.731Z" stroke="white" stroke-opacity="0.4" stroke-width="20"/>
	<path d="M672.245 969.712C650.591 996.034 605.495 1012.54 585.654 1017.5C560.134 1021.94 569.814 1011.68 577.844 1006L627.592 978.993C651.499 964.931 693.898 943.389 672.245 969.712Z" fill="white"/>
	<path d="M73.5405 520.166C59.1405 530.966 51.5405 553.332 49.5404 563.166C48.3404 583.166 56.7071 573.499 61.0405 566.166L78.0405 535.166C82.5406 525.666 87.9406 509.366 73.5405 520.166Z" fill="white"/>
	<path d="M827.888 337.649C813.533 311.762 788.217 287.825 777.354 279.093C772.386 274.898 761.939 275.232 769.434 291.674C775.43 304.827 800.962 330.926 812.978 342.332C823.929 351.557 842.243 363.535 827.888 337.649Z" fill="white"/>
	<path d="M38.5403 463.166C74.5404 426.765 168.874 398.665 211.541 389.165C271.941 374.765 234.041 357.938 211.541 360.665C184.041 363.999 114.441 379.965 56.0404 417.165C-16.9599 463.666 -6.45984 508.666 38.5403 463.166Z" fill="#EAEFFF"/>
	<path d="M759.542 974.167C811.542 902.167 835.876 843.833 841.542 823.667C847.209 803.5 875.543 779.667 867.543 823.667C852.427 906.803 812.042 956.834 797.042 972.167C762.875 1002.83 731.737 1012.67 759.542 974.167Z" fill="#EAEFFF"/>
	<path d="M851.742 609.776C840.097 577.742 848.504 550.501 876.504 515.796C894.504 497.501 899.004 508.501 892.004 519.001L872.004 548.501C861.504 561.501 858.975 585.4 862.504 598.002C866.004 610.502 853.743 615.281 851.742 609.776Z" fill="#EAEFFF"/>
	<path d="M254.041 983.667C194.441 948.867 142.874 899.167 124.541 878.667C104.374 859.334 88.9026 860.667 109.54 889.167C141.04 932.667 195.041 977.667 215.041 987.667C244.041 1005.67 313.641 1018.47 254.041 983.667Z" fill="#EAEFFF"/>
	<path d="M575.542 204.665C613.942 175.864 658.209 174.998 675.542 178.164C684.042 179.717 705.042 171.664 673.042 160.164C629.474 144.507 580.042 177.379 567.042 186.664C556.542 194.165 537.142 233.465 575.542 204.665Z" fill="#EAEFFF"/>
	<use xlink:href="#snow" x="205.89" y="496.89" style="fill:#FFF; stroke:#EAEFFF;" transform="rotate(14.24 237.89 528.89)"/>
	<use xlink:href="#snow" x="642.38" y="801.38" style="fill:#FFF; stroke:#EAEFFF;" transform="rotate(-10.69 670 840.87)"/>
	<use xlink:href="#snow" x="739.38" y="426.38" style="fill:#FFF; stroke:#EAEFFF;" transform=" rotate(25.83 772.38 459.38)"/>
	<use xlink:href="#snow" x="190.77" y="765.77" style="fill:#FFF; stroke:#EAEFFF;" transform="translate(111.885,399.385) scale(0.5,0.5) rotate(-18.61 223.77 798.77)"/>
	<use xlink:href="#snow" x="384.77" y="525.77" style="fill:#FFF; stroke:#EAEFFF;" transform="translate(208.885,279.385) scale(0.5,0.5) rotate(-18.61 417.77 558.77)"/>
	<use xlink:href="#snow" x="631.77" y="244.77" style="fill:#FFFFFF; stroke:#EAEFFF;" transform="translate(332.385,138.885) scale(0.5,0.5) rotate(24.2 664.77 277.77)"/>
	<use xlink:href="#snow" x="696.32" y="569.32" style="fill:#FFF; stroke:#EAEFFF;" transform="translate(364.66,301.16) scale(0.5,0.5) rotate(16.17 729.32 602.32)"/>
	<use xlink:href="#snow" x="435.77" y="753.77" style="fill:#FFF; stroke:#EAEFFF;" transform="translate(234.385,393.385) scale(0.5,0.5) rotate(-18.61 468.77 786.77)"/>
	<use xlink:href="#snowS" x="116" y="604" style="fill:#FFF; stroke:#EAEFFF;"/>
	<use xlink:href="#snowS" x="490.97" y="406.97" style="fill:#FFF; stroke:#EAEFFF;" transform=" rotate(30.47 497.97 413.97)"/>
	<use xlink:href="#snowS" x="582.97" y="650.97" style="fill:#FFF; stroke:#EAEFFF;" transform=" rotate(24.85 589.97 657.97)"/>
	<use xlink:href="#snowS" x="497.22" y="985.22" style="fill:#FFF; stroke:#EAEFFF;" transform=" rotate(-30.47 504.22 992.22)"/>
	<use xlink:href="#snow" x="4.47" y="787.47" style="fill:#EAEFFF; stroke:#EAEFFF;" transform=" rotate(-21.39 37.47 820.47)"/>
	<use xlink:href="#snow" x="587.75" y="1057.75" style="fill:#EAEFFF; stroke:#EAEFFF;" transform=" rotate(8.2 620.75 1090.75)"/>
	<use xlink:href="#snow" x="334.92" y="315.92" style="fill:#FFF; stroke:#EAEFFF;" transform="translate(183.96,174.46) scale(0.5,0.5) rotate(37.2 367.92 348.92)"/>
	<use xlink:href="#snow" x="866.47" y="298.47" style="fill:#FFF; stroke:#EAEFFF;" transform="translate(449.735,165.735) scale(0.5,0.5) rotate(16.94 899.47 331.47)"/>
	<use xlink:href="#snow" x="788.07" y="966.07" style="fill:#FFF; stroke:#EAEFFF;" transform="translate(410.535,499.535) scale(0.5,0.5) rotate(-14.86 821.07 999.07)"/>
	<use xlink:href="#snowS" x="10.11" y="692.11" style="fill:#EAEFFF; stroke:#EAEFFF;" transform=" rotate(-11.96 17.11 699.11)"/>
	<use xlink:href="#snowS" x="277.22" y="365.21" style="fill:#EAEFFF; stroke:#EAEFFF;" transform=" rotate(-30.47 284.22 372.21)"/>
	<use xlink:href="#snowS" x="293.47" y="1025.07" style="fill:#EAEFFF; stroke:#EAEFFF;" transform=" rotate(-30.47 300.47 1032.07)"/>
	<use xlink:href="#snowS" x="731.22" y="178.21" style="fill:#EAEFFF; stroke:#EAEFFF;" transform=" rotate(-30.47 738.22 185.21)"/>
	<use xlink:href="#snowS" x="885.22" y="682.22" style="fill:#EAEFFF; stroke:#EAEFFF;" transform=" rotate(-30.47 892.22 689.22)"/>
</svg>