<svg width="920.9999999999999" height="1124" xmlns="http://www.w3.org/2000/svg" xmlns:svg="http://www.w3.org/2000/svg" xmlns:xlink="http://www.w3.org/1999/xlink">
 <symbol id="snow">
  <path id="svg_1" stroke-linejoin="round" d="m28.9997,19.4999l2.1699,0l-0.556,7.7386l-11.9296,-10.3302l1.9393,-1.9393c0.0937,-0.0937 0.1464,-0.2209 0.1464,-0.3535c0,-0.1326 -0.0527,-0.2598 -0.1464,-0.3536l-1.4142,-1.4142c-0.1953,-0.1953 -0.5119,-0.1953 -0.7072,0l-2.0916,2.0917l-5.7104,-4.94477c-0.1982,-0.17166 -0.4954,-0.161 -0.6808,0.02447c-0.18547,0.1854 -0.19613,0.4826 -0.02447,0.6808l4.94477,5.7104l-2.0943,2.0943c-0.1953,0.1952 -0.1953,0.5118 0,0.7071l1.4142,1.4142c0.0938,0.0938 0.2209,0.1465 0.3535,0.1465c0.1327,0 0.2598,-0.0527 0.3536,-0.1465l1.9419,-1.9419l10.3302,11.9296l-7.7398,0.5561l0,-2.1695c0,-0.2761 -0.2239,-0.5 -0.5,-0.5l-2,0c-0.2762,0 -0.5,0.2239 -0.5,0.5l0,2.385l-15.53453,1.1162c-0.26157,0.0188 -0.46417,0.2365 -0.46417,0.4987c0,0.2622 0.2026,0.4799 0.46417,0.4987l15.53453,1.1162l0,2.3852c0,0.2762 0.2238,0.5 0.5,0.5l2,0c0.2761,0 0.5,-0.2238 0.5,-0.5l0,-2.1697l7.7398,0.5561l-10.33,11.9294l-1.9413,-1.9414c-0.0938,-0.0937 -0.221,-0.1464 -0.3536,-0.1464c-0.1326,0 -0.2598,0.0527 -0.3535,0.1464l-1.4142,1.4143c-0.1953,0.1952 -0.1953,0.5118 0,0.7071l2.0937,2.0937l-4.94497,5.7106c-0.17166,0.1982 -0.161,0.4954 0.02447,0.6808c0.1854,0.1855 0.4826,0.1961 0.6808,0.0245l5.7106,-4.945l2.0922,2.0922c0.0938,0.0938 0.221,0.1465 0.3536,0.1465c0.1326,0 0.2598,-0.0527 0.3535,-0.1465l1.4143,-1.4142c0.1952,-0.1952 0.1952,-0.5118 0,-0.7071l-1.9399,-1.9398l11.9294,-10.33l0.556,7.7384l-2.1703,0c-0.2762,0 -0.5,0.2239 -0.5,0.5l0,2c0,0.2762 0.2238,0.5 0.5,0.5l2.3858,0l1.1163,15.5359c0.0188,0.2616 0.2365,0.4642 0.4987,0.4642c0.2622,0 0.4799,-0.2026 0.4987,-0.4642l1.1163,-15.5359l2.3842,0c0.2761,0 0.5,-0.2238 0.5,-0.5l0,-2c0,-0.2761 -0.2239,-0.5 -0.5,-0.5l-2.1687,0l0.556,-7.7384l11.9277,10.3286l-1.9413,1.9413c-0.1953,0.1953 -0.1953,0.5118 0,0.7071l1.4142,1.4142c0.1953,0.1953 0.5118,0.1953 0.7071,0l2.0938,-2.0937l5.7122,4.9464c0.1982,0.1716 0.4954,0.161 0.6808,-0.0245c0.1855,-0.1854 0.1961,-0.4826 0.0245,-0.6808l-4.9464,-5.7122l2.092,-2.092c0.1952,-0.1953 0.1952,-0.5119 0,-0.7072l-1.4143,-1.4142c-0.1952,-0.1952 -0.5118,-0.1952 -0.7071,0l-1.9395,1.9396l-10.3286,-11.9277l7.7374,-0.5559l0,2.1695c0,0.2761 0.2239,0.5 0.5,0.5l2,0c0.2762,0 0.5,-0.2239 0.5,-0.5l0,-2.385l15.5369,-1.1164c0.2616,-0.0188 0.4642,-0.2365 0.4642,-0.4987c0,-0.2622 -0.2026,-0.4799 -0.4642,-0.4987l-15.5369,-1.1163l0,-2.385c0,-0.2761 -0.2238,-0.5 -0.5,-0.5l-2,0c-0.2761,0 -0.5,0.2239 -0.5,0.5l0,2.1694l-7.7374,-0.5559l10.3289,-11.9281l1.9403,1.9403c0.0938,0.0938 0.2209,0.1464 0.3535,0.1464c0.1327,0 0.2598,-0.0526 0.3536,-0.1464l1.4142,-1.4142c0.1953,-0.1953 0.1953,-0.5119 0,-0.7071l-2.0927,-2.0927l4.9461,-5.7119c0.1716,-0.1982 0.161,-0.4954 -0.0245,-0.6808c-0.1854,-0.18547 -0.4826,-0.19613 -0.6808,-0.02447l-5.7118,4.94607l-2.0932,-2.0931c-0.1952,-0.1953 -0.5118,-0.1953 -0.7071,0l-1.4142,1.4142c-0.0937,0.0938 -0.1464,0.221 -0.1464,0.3536c0,0.1326 0.0527,0.2598 0.1464,0.3535l1.9407,1.9407l-11.9281,10.3289l-0.556,-7.7386l2.1691,0c0.2762,0 0.5,-0.2239 0.5,-0.5l0,-2c0,-0.2762 -0.2238,-0.5 -0.5,-0.5l-2.3846,0l-1.1163,-15.53573c-0.0188,-0.26157 -0.2365,-0.46417 -0.4987,-0.46417c-0.2622,0 -0.4799,0.2026 -0.4987,0.46417l-1.1163,15.53573l-2.3854,0c-0.2761,0 -0.5,0.2238 -0.5,0.5l0,2c0,0.2761 0.2239,0.5 0.5,0.5z"/>
 </symbol>
 <symbol id="snowS">
  <path id="svg_2" stroke-linejoin="round" d="m7.16539,0.80178c-0.0791,-0.18317 -0.25952,-0.30178 -0.45903,-0.30178c-0.19952,0 -0.37994,0.11861 -0.45903,0.30178l-0.88728,2.05473l-1.92556,-1.14078c-0.17166,-0.1017 -0.38734,-0.09161 -0.54875,0.02566c-0.16141,0.11728 -0.23765,0.31928 -0.19398,0.51396l0.48991,2.18384l-2.22834,0.2089c-0.19864,0.01863 -0.3672,0.15356 -0.42886,0.34331c-0.06165,0.18975 -0.0046,0.398 0.14516,0.52982l1.67998,1.4788l-1.67998,1.4788c-0.14976,0.13182 -0.20681,0.34006 -0.14516,0.52982c0.06166,0.18975 0.23022,0.32468 0.42886,0.3433l2.22834,0.20891l-0.48991,2.18385c-0.04367,0.1947 0.03257,0.3967 0.19398,0.5139c0.16141,0.1173 0.37709,0.1274 0.54875,0.0257l1.92556,-1.1408l0.88728,2.0548c0.07909,0.1831 0.25951,0.3017 0.45903,0.3017c0.19951,0 0.37993,-0.1186 0.45903,-0.3017l0.88728,-2.0548l1.92556,1.1408c0.17167,0.1017 0.38737,0.0916 0.54877,-0.0257c0.1614,-0.1172 0.2376,-0.3192 0.194,-0.5139l-0.49,-2.18385l2.2284,-0.20891c0.1986,-0.01862 0.3672,-0.15355 0.4288,-0.3433c0.0617,-0.18976 0.0046,-0.398 -0.1451,-0.52982l-1.68,-1.4788l1.68,-1.4788c0.1497,-0.13182 0.2068,-0.34007 0.1451,-0.52982c-0.0616,-0.18975 -0.2302,-0.32468 -0.4288,-0.34331l-2.2284,-0.2089l0.49,-2.18384c0.0436,-0.19468 -0.0326,-0.39668 -0.194,-0.51396c-0.1614,-0.11727 -0.3771,-0.12736 -0.54877,-0.02566l-1.92556,1.14078l-0.88728,-2.05473z"/>
 </symbol>
 <g class="layer">
  <title>Layer 1</title>
  <path id="svg_6" fill="white" d="m73.5405,520.166c-14.4,10.8 -22,33.166 -24.0001,43c-1.2,20 7.1667,10.333 11.5001,3l17,-31c4.5001,-9.5 9.9001,-25.8 -4.5,-15z"/>
  <path id="svg_7" fill="white" d="m827.888,337.649c-14.355,-25.887 -39.671,-49.824 -50.534,-58.556c-4.968,-4.195 -15.415,-3.861 -7.92,12.581c5.996,13.153 31.528,39.252 43.544,50.658c10.951,9.225 29.265,21.203 14.91,-4.683z"/>
  <use id="svg_13" fill="#FFF" stroke="#EAEFFF" transform="rotate(14.239999771118164 237.88999938964668,528.8900146484377) " y="496.89" x="205.89" xlink:href="#snow"/>
  <use id="svg_14" fill="#FFF" stroke="#EAEFFF" transform="rotate(-10.6899995803833 669.9999999999994,840.8699951171876) " y="801.38" x="642.38" xlink:href="#snow"/>
  <use id="svg_15" fill="#FFF" stroke="#EAEFFF" transform="rotate(25.829999923706055 772.3800048828125,459.38000488281256) " y="426.38" x="739.38" xlink:href="#snow"/>
  <use id="svg_16" fill="#FFF" stroke="#EAEFFF" transform="translate(111.88500213623047,399.385009765625) scale(0.5) rotate(-18.610000610351562 223.77000427246088,798.77001953125) " y="765.77" x="190.77" xlink:href="#snow"/>
  <use id="svg_17" fill="#FFF" stroke="#EAEFFF" transform="rotate(-18.610000610351562 417.7700500488278,558.7700805664061) translate(208.88499450683594,279.385009765625) scale(0.5) " y="525.77" x="384.77" xlink:href="#snow"/>
  <use id="svg_18" fill="#FFFFFF" stroke="#EAEFFF" transform="translate(332.385009765625,138.88499450683594) scale(0.5) rotate(24.200000762939453 664.7700195312497,277.769989013672) " y="244.77" x="631.77" xlink:href="#snow"/>
  <use id="svg_19" fill="#FFF" stroke="#EAEFFF" transform="translate(364.6600036621094,301.1600036621094) scale(0.5) rotate(16.170000076293945 729.3200073242185,602.320007324219) " y="569.32" x="696.32" xlink:href="#snow"/>
  <use id="svg_20" fill="#FFF" stroke="#EAEFFF" transform="translate(234.38499450683594,393.385009765625) scale(0.5) rotate(-18.610000610351562 468.76998901367205,786.7700195312501) " y="753.77" x="435.77" xlink:href="#snow"/>
  <use id="svg_21" fill="#FFF" stroke="#EAEFFF" y="604" x="116" xlink:href="#snowS"/>
  <use id="svg_22" fill="#FFF" stroke="#EAEFFF" transform="rotate(30.469999313354492 497.970001220703,413.9700012207031) " y="406.97" x="490.97" xlink:href="#snowS"/>
  <use id="svg_23" fill="#FFF" stroke="#EAEFFF" transform="rotate(24.850000381469727 589.969970703125,657.969970703125) " y="650.97" x="582.97" xlink:href="#snowS"/>
  <use id="svg_24" fill="#FFF" stroke="#EAEFFF" transform="rotate(-30.469999313354492 504.22000122070347,992.2199707031252) " y="985.22" x="497.22" xlink:href="#snowS"/>
  <use id="svg_25" fill="#EAEFFF" stroke="#EAEFFF" transform="rotate(-21.389999389648438 37.470001220702414,820.4699707031249) " y="787.47" x="4.47" xlink:href="#snow"/>
  <use id="svg_26" fill="#EAEFFF" stroke="#EAEFFF" transform="rotate(8.199999809265137 620.7500000000033,1090.7500000000002) " y="1057.75" x="587.75" xlink:href="#snow"/>
  <use id="svg_27" fill="#FFF" stroke="#EAEFFF" transform="translate(183.9600067138672,174.4600067138672) scale(0.5) rotate(37.20000076293945 367.92001342773455,348.9200134277343) " y="315.92" x="334.92" xlink:href="#snow"/>
  <use id="svg_28" fill="#FFF" stroke="#EAEFFF" transform="translate(449.7349853515625,165.73500061035156) scale(0.5) rotate(16.940000534057617 899.4699707031245,331.470001220703) " y="298.47" x="866.47" xlink:href="#snow"/>
  <use id="svg_29" fill="#FFF" stroke="#EAEFFF" transform="translate(410.5350036621094,499.5350036621094) scale(0.5) rotate(-14.859999656677246 821.0700073242178,999.0700073242186) " y="966.07" x="788.07" xlink:href="#snow"/>
  <use id="svg_30" fill="#EAEFFF" stroke="#EAEFFF" transform="rotate(-11.960000038146973 17.110000610351772,699.1099853515625) " y="692.11" x="10.11" xlink:href="#snowS"/>
  <use id="svg_31" fill="#EAEFFF" stroke="#EAEFFF" transform="rotate(-30.469999313354492 284.22000122070335,372.20999145507824) " y="365.21" x="277.22" xlink:href="#snowS"/>
  <use id="svg_32" fill="#EAEFFF" stroke="#EAEFFF" transform="rotate(-30.469999313354492 300.47000122070386,1032.0699462890627) " y="1025.07" x="293.47" xlink:href="#snowS"/>
  <use id="svg_33" fill="#EAEFFF" stroke="#EAEFFF" transform="rotate(-30.469999313354492 738.219970703125,185.21000671386722) " y="178.21" x="731.22" xlink:href="#snowS"/>
  <use id="svg_34" fill="#EAEFFF" stroke="#EAEFFF" transform="rotate(-30.469999313354492 892.2199707031258,689.2199707031251) " y="682.22" x="885.22" xlink:href="#snowS"/>
  <use id="svg_35" fill="#FFF" stroke="#EAEFFF" transform="rotate(-53.89415740966797 340.3137512207031,174.7476501464844) " y="141.74756" x="307.31365" xlink:href="#snow"/>
  <use id="svg_36" fill="#FFF" stroke="#EAEFFF" transform="rotate(14.239999771118164 562.1284790039061,95.52532958984389) " y="63.52533" x="530.12846" xlink:href="#snow"/>
  <use id="svg_37" fill="#FFF" stroke="#EAEFFF" transform="rotate(-18.610000610351562 1091.933715820312,777.2299194335942) translate(208.88499450683594,279.385009765625) scale(0.5) " y="744.22985" x="1058.93364" xlink:href="#snow"/>
  <use id="svg_38" fill="#FFF" stroke="#EAEFFF" transform="rotate(-18.610000610351562 684.22998046875,18.711425781250078) translate(208.88499450683594,279.385009765625) scale(0.5) " y="-14.28864" x="651.22993" xlink:href="#snow"/>
  <use stroke="#EAEFFF" id="svg_39" fill="#FFF" transform="rotate(-18.610000610351562 1091.933715820312,777.2299194335942) translate(208.88499450683594,279.385009765625) scale(0.5) " y="744.22985" x="1058.93364" xlink:href="#snow"/>
 </g>
</svg>