<svg width="589" height="497" xmlns="http://www.w3.org/2000/svg" xmlns:svg="http://www.w3.org/2000/svg">
 <defs>
  <linearGradient y2="1" x2="0.5" y1="0" x1="0.5" id="paint0_linear">
   <stop stop-color="#F08972"/>
   <stop stop-color="#DA7C68" offset="1"/>
  </linearGradient>
  <linearGradient y2="0.995" x2="0.4993" y1="0.1158" x1="0.53277" id="paint1_linear">
   <stop stop-color="#F7C63B"/>
   <stop stop-color="#D9A122" offset="1"/>
  </linearGradient>
  <linearGradient y2="1.10669" x2="0.47565" y1="0.45248" x1="0.4977" id="paint2_linear">
   <stop stop-color="#6AA4FB"/>
   <stop stop-color="#3E75C6" offset="1"/>
  </linearGradient>
  <linearGradient y2="0.98128" x2="1.59565" y1="0.00723" x1="0.01169" id="paint3_linear">
   <stop stop-color="#FAC93D"/>
   <stop stop-color="#D8A021" offset="1"/>
  </linearGradient>
  <linearGradient y2="1" x2="0.50001" y1="0.72787" x1="0.48459" id="paint4_linear">
   <stop stop-color="#D94730"/>
   <stop stop-color="#9E2815" offset="1"/>
  </linearGradient>
  <linearGradient y2="Infinity" x2="1.02686" y1="Infinity" x1="0.02333" id="paint5_linear">
   <stop stop-color="#F1BE35"/>
   <stop stop-color="#D9A222" offset="1"/>
  </linearGradient>
  <linearGradient y2="0.29495" x2="0.49893" y1="0" x1="0.5" id="paint6_linear">
   <stop stop-color="#3F7AD4"/>
   <stop stop-color="#6AA4FB" offset="1"/>
  </linearGradient>
  <linearGradient y2="1.00759" x2="0.10699" y1="0.00743" x1="0.9933" id="paint7_linear">
   <stop stop-color="#FAC93D"/>
   <stop stop-color="#D8A021" offset="1"/>
  </linearGradient>
  <linearGradient y2="1" x2="0.49999" y1="0.63661" x1="0.52552" id="paint8_linear">
   <stop stop-color="#D94730"/>
   <stop stop-color="#9E2815" offset="1"/>
  </linearGradient>
  <linearGradient y2="1.00987" x2="0.51748" y1="-0.00922" x1="0.48728" id="paint9_linear">
   <stop stop-color="#F7C63B"/>
   <stop stop-color="#D9A122" offset="1"/>
  </linearGradient>
  <clipPath id="clip0">
   <rect id="svg_1" fill="white" height="497" width="589"/>
  </clipPath>
 </defs>
 <g class="layer">
  <title>Layer 1</title>
  <rect id="svg_20" fill="url(#paint0_linear)" transform="rotate(165 395.4169921875,249.8760070800781) " rx="5" height="33" width="33" y="249.876" x="395.417"/>
  <path id="svg_21" stroke-width="5" stroke="url(#paint1_linear)" d="m359,242l31.999,-8.5m-20.499,-11l8.61,31.823"/>
  <path id="svg_22" stroke-width="4" stroke="#FAC93D" d="m366.76,216.656c0.132,0.099 0.43,0.452 0.784,1.244c0.329,0.734 0.614,1.63 0.848,2.537c0.126,0.49 0.234,0.969 0.324,1.405c-0.445,0.038 -0.934,0.07 -1.44,0.087c-0.936,0.032 -1.876,0.013 -2.673,-0.095c-0.86,-0.116 -1.283,-0.301 -1.415,-0.4c-1.319,-0.987 -1.589,-2.856 -0.603,-4.175c0.987,-1.319 2.855,-1.589 4.175,-0.603z"/>
  <path id="svg_23" stroke-width="4" stroke="#FAC93D" d="m377.015,218.205c-0.08,0.145 -0.389,0.489 -1.124,0.95c-0.681,0.427 -1.529,0.833 -2.395,1.19c-0.468,0.193 -0.927,0.366 -1.347,0.515c-0.098,-0.435 -0.198,-0.915 -0.285,-1.414c-0.161,-0.922 -0.272,-1.855 -0.276,-2.66c-0.004,-0.867 0.121,-1.312 0.201,-1.457c0.794,-1.443 2.608,-1.969 4.051,-1.174c1.443,0.794 1.969,2.607 1.175,4.05z"/>
  <rect id="svg_24" fill="url(#paint2_linear)" transform="rotate(-8.162989616394043 167.0000000000006,312.3420104980469) " rx="5" height="35.2347" width="58.328" y="312.342" x="167"/>
  <path id="svg_25" stroke-width="12" stroke="url(#paint3_linear)" d="m195.42,308.11l4.276,35.26"/>
  <path id="svg_26" stroke-width="4" stroke="#FAC93D" d="m191.729,297.968c0.358,0.356 0.782,1.14 1.156,2.43c0.356,1.228 0.599,2.672 0.76,4.091c0.138,1.213 0.212,2.369 0.251,3.293c-0.925,-0.031 -2.081,-0.095 -3.295,-0.223c-1.42,-0.149 -2.866,-0.38 -4.098,-0.725c-1.292,-0.363 -2.08,-0.781 -2.439,-1.136c-2.134,-2.117 -2.149,-5.563 -0.032,-7.697c2.116,-2.134 5.562,-2.149 7.697,-0.033z"/>
  <path id="svg_27" stroke-width="4" stroke="#FAC93D" d="m206.673,303.678c-0.303,0.405 -1.021,0.934 -2.246,1.482c-1.167,0.522 -2.564,0.963 -3.947,1.319c-1.182,0.304 -2.316,0.537 -3.227,0.704c-0.096,-0.92 -0.193,-2.074 -0.235,-3.294c-0.048,-1.427 -0.02,-2.891 0.152,-4.159c0.18,-1.33 0.485,-2.168 0.787,-2.573c1.801,-2.406 5.212,-2.898 7.619,-1.097c2.406,1.801 2.898,5.212 1.097,7.618z"/>
  <rect id="svg_28" fill="url(#paint4_linear)" transform="rotate(8.711629867553711 333.62499999999994,378.65499877929676) " rx="4" height="56.947" width="42.8693" y="378.655" x="333.625"/>
  <line id="svg_29" stroke-width="6" stroke="url(#paint5_linear)" transform="matrix(-0.167108,0.985939,-0.985938,-0.167109,352.824,381.534) " y2="-3" x2="57.4157" y1="-3"/>
  <path id="svg_30" stroke-width="3" stroke="#FAC93D" d="m356.15,370.984c0.286,0.52 0.462,1.446 0.454,2.753c-0.007,1.26 -0.181,2.681 -0.422,4.042c-0.239,1.354 -0.536,2.61 -0.775,3.529c-0.003,0.012 -0.006,0.023 -0.009,0.034c-0.011,-0.004 -0.022,-0.007 -0.033,-0.011c-0.904,-0.293 -2.122,-0.717 -3.393,-1.243c-1.276,-0.529 -2.568,-1.145 -3.635,-1.816c-1.106,-0.696 -1.792,-1.342 -2.078,-1.863c-1.498,-2.731 -0.499,-6.16 2.233,-7.658c2.731,-1.498 6.16,-0.499 7.658,2.233z"/>
  <path id="svg_31" stroke-width="3" stroke="#FAC93D" d="m368.227,380.845c-0.476,0.355 -1.369,0.657 -2.665,0.831c-1.249,0.167 -2.68,0.191 -4.061,0.141c-1.374,-0.049 -2.659,-0.17 -3.602,-0.279c-0.012,-0.001 -0.023,-0.003 -0.035,-0.004c0.002,-0.011 0.004,-0.023 0.006,-0.034c0.165,-0.936 0.417,-2.202 0.762,-3.533c0.347,-1.337 0.779,-2.702 1.296,-3.851c0.536,-1.192 1.08,-1.961 1.557,-2.316c2.497,-1.862 6.032,-1.346 7.893,1.151c1.862,2.498 1.347,6.033 -1.151,7.894z"/>
  <rect id="svg_32" fill="url(#paint6_linear)" transform="rotate(19.23069953918457 490.8479919433595,398.4169921875) " rx="5" height="71.8708" width="95.7158" y="398.417" x="490.848"/>
  <rect id="svg_33" fill="#6AA4FB" transform="rotate(19.23069953918457 488.17001342773443,389.0289916992187) " rx="5" height="17.882" width="107.127" y="389.029" x="488.17"/>
  <path id="svg_34" stroke-width="12" stroke="url(#paint7_linear)" d="m539.519,406.673l-27.471,75.643"/>
  <path id="svg_35" stroke-width="4" stroke="#FAC93D" d="m541.046,392.132c0.241,0.702 0.265,1.895 -0.029,3.543c-0.283,1.585 -0.81,3.339 -1.41,5.006c-0.59,1.642 -1.232,3.15 -1.732,4.256c-1.074,-0.565 -2.507,-1.359 -3.983,-2.291c-1.497,-0.945 -2.992,-2.004 -4.19,-3.08c-1.246,-1.119 -1.961,-2.074 -2.202,-2.776c-1.287,-3.741 0.703,-7.816 4.444,-9.102c3.74,-1.287 7.816,0.703 9.102,4.444z"/>
  <path id="svg_36" stroke-width="4" stroke="#FAC93D" d="m554.206,407.139c-0.662,0.337 -1.84,0.525 -3.513,0.462c-1.609,-0.06 -3.419,-0.34 -5.153,-0.703c-1.707,-0.358 -3.29,-0.785 -4.455,-1.126c0.412,-1.143 1,-2.672 1.718,-4.262c0.729,-1.614 1.57,-3.241 2.471,-4.577c0.936,-1.388 1.783,-2.229 2.445,-2.565c3.526,-1.792 7.838,-0.385 9.629,3.142c1.792,3.526 0.385,7.838 -3.142,9.629z"/>
  <rect id="svg_37" fill="url(#paint8_linear)" transform="rotate(-21.138200759887695 186.9225006103515,195.9277954101562) " rx="5" height="27.9312" width="63.19" y="195.9278" x="186.9225"/>
  <path id="svg_38" stroke-width="5" stroke="url(#paint9_linear)" d="m190.9502,207.416l60.6238,-23.0153m-34.939,-0.0109l9.815,27.4167"/>
  <path id="svg_39" stroke-width="4" stroke="#FAC93D" d="m212.625,178.99106c0.138,0.08993 0.459,0.42235 0.866,1.18875c0.377,0.71065 0.72,1.58529 1.014,2.47449c0.159,0.4808 0.299,0.9509 0.417,1.3808c-0.441,0.0669 -0.927,0.1314 -1.43,0.1826c-0.932,0.0947 -1.871,0.1381 -2.673,0.0837c-0.866,-0.0586 -1.3,-0.2155 -1.439,-0.3054c-1.382,-0.8961 -1.776,-2.7429 -0.88,-4.12492c0.896,-1.38207 2.743,-1.77606 4.125,-0.88002z"/>
  <path id="svg_40" stroke-width="4" stroke="#FAC93D" d="m222.96,179.85248c-0.07,0.14983 -0.354,0.51326 -1.057,1.02222c-0.652,0.4719 -1.47,0.9331 -2.311,1.3471c-0.454,0.2239 -0.9,0.4271 -1.309,0.6044c-0.128,-0.4275 -0.259,-0.9 -0.379,-1.3919c-0.223,-0.90964 -0.396,-1.83321 -0.453,-2.63574c-0.062,-0.86548 0.034,-1.3173 0.104,-1.46713c0.696,-1.49276 2.47,-2.13853 3.963,-1.44236c1.493,0.69617 2.138,2.47065 1.442,3.96341z"/>
 </g>
</svg>