<svg xmlns="http://www.w3.org/2000/svg" viewBox="0 0 1440 320">
  <path fill="#0099ff" fill-opacity="1" d="M0,96L24,106.7C48,117,96,139,144,170.7C192,203,240,245,288,266.7C336,288,384,288,432,293.3C480,299,528,309,576,293.3C624,277,672,235,720,234.7C768,235,816,277,864,277.3C912,277,960,235,1008,224C1056,213,1104,235,1152,229.3C1200,224,1248,192,1296,170.7C1344,149,1392,139,1416,133.3L1440,128L1440,320L1416,320C1392,320,1344,320,1296,320C1248,320,1200,320,1152,320C1104,320,1056,320,1008,320C960,320,912,320,864,320C816,320,768,320,720,320C672,320,624,320,576,320C528,320,480,320,432,320C384,320,336,320,288,320C240,320,192,320,144,320C96,320,48,320,24,320L0,320Z"></path>
</svg>