<svg width="5000" height="1500" xmlns="http://www.w3.org/2000/svg" xmlns:svg="http://www.w3.org/2000/svg">
 <style type="text/css">.st0{fill:#047F00;}
	.st1{fill:none;stroke:#000000;stroke-width:0.7087;stroke-linecap:round;stroke-linejoin:round;stroke-miterlimit:10;}
	.st2{font-family:&#x27;ArialMT';}
	.st3{font-size:18px;}</style>
 <g class="layer">
  <title>Layer 1</title>
  <g id="svg_36">
   <g id="svg_37">
    <g id="svg_38">
     <path id="svg_39" d="m2962.2645,493.47609c-10,21.1 -30.9,34.9 -54.3,35.7c11.4,7.5 24.6,11.6 38.3,11.8c-22.2,15.8 -52.3,14.2 -72.7,-3.7c2.1,10.2 7.5,19.3 15.4,26c-19.1,-1.9 -37,-10.2 -50.8,-23.6l0,39.7l-26.5,0l0,-39.7c-13.8,13.4 -31.7,21.7 -50.8,23.6c7.9,-6.7 13.3,-15.9 15.4,-26c-20.5,17.9 -50.5,19.5 -72.7,3.7c13.6,-0.2 26.9,-4.3 38.3,-11.8c-23.3,-1 -44.1,-14.7 -54.3,-35.7c21.1,8.3 44.9,6.1 64.2,-5.8c-26.8,1.3 -51.5,-14.6 -61.4,-39.5c26.7,6 54.4,5 80.5,-3c-16.8,-3.2 -31.2,-13.8 -39.3,-28.8c15,2.7 30.3,2.3 45.1,-1.1c-21,-2.4 -38.7,-17.1 -44.9,-37.3c21.1,8.2 44.8,6 64,-5.8c-13.3,-1.8 -25.3,-8.8 -33.4,-19.4c10.5,3.3 22,2 31.5,-3.5c-13.9,0 -26.1,-9.3 -29.6,-22.8c20.3,7.8 43.1,-2.4 50.8,-22.8c1.7,-4.4 2.5,-9 2.6,-13.7l-15.2,8.5l5,-25.2l-18.9,-17.5l25.5,-3l10.8,-23.3l10.8,23.3l25.5,3l-18.9,17.5l5,25.2l-15.2,-8.5c0.2,21.8 18,39.2 39.8,39c4.7,-0.1 9.3,-0.9 13.6,-2.6c-3.5,13.5 -15.7,22.8 -29.6,22.8c9.6,5.5 21,6.8 31.5,3.5c-8.1,10.7 -20.1,17.7 -33.4,19.4c19.2,11.9 42.9,14 64,5.8c-6.3,20.2 -23.9,34.8 -44.9,37.3c14.8,3.4 30.2,3.8 45.1,1.1c-7.9,15.2 -22.5,25.8 -39.3,28.8c26.1,8.1 53.9,9.1 80.5,3c-9.9,24.9 -34.6,40.8 -61.4,39.5c19.4,12.1 43.2,14.2 64.3,5.9zm-130.2,-223.4l7.8,-7.2l-10.6,-1.3l-4.5,-9.7l-4.5,9.7l-10.6,1.3l7.8,7.2l-2.1,10.4l9.3,-5.2l9.3,5.2l-1.9,-10.4z" class="st0"/>
    </g>
    <g id="svg_40"/>
   </g>
  </g>
  <g id="svg_41">
   <g id="svg_42">
    <g id="svg_43">
     <path id="svg_44" d="m2413.02785,510.47432c4.3,0.9 8.7,1.7 13.1,2.5c10.1,1.6 20.4,2.6 30.7,2c8,-0.5 16,-2 23.7,-4.6c7.5,-2.6 14.6,-6.3 20.9,-10.9c3,-2.2 5.9,-4.6 8.8,-7.1c-8.6,-1 -14.1,-2 -20,-3.8c-9.8,-2.9 -20.6,-7.7 -29.4,-13.8c-8.3,-5.7 -14.9,-12.5 -21.3,-19.7c5.8,-0.5 11.5,-1.4 17.1,-3.1c4.9,-1.6 9.7,-3.9 13.7,-7.1c4,-3.2 7.3,-7.3 9.5,-11.9c1.2,-2.4 2.1,-5 2.8,-7.8c-3.8,-0.1 -7.5,-0.2 -11.4,-0.8c-7.6,-1.1 -15.5,-4.1 -21.9,-7.9c-5.4,-3.2 -9.8,-7.1 -14,-11.5c-2.3,-2.4 -4.5,-4.9 -6.6,-7.9c2.5,-0.3 5,-0.5 7.5,-0.8c4.7,-0.5 9.4,-1.1 13.7,-3c3.6,-1.6 7,-4.3 9.3,-7.5c1.9,-2.6 3.1,-5.6 4.1,-8.8c-4,0 -8,0.1 -11.9,-0.6c-6.5,-1.2 -12.7,-4.5 -18.1,-8.6c-4.2,-3.2 -8,-7 -11.2,-11.1c-1.5,-2 -2.9,-4 -4.3,-6.1c2.8,0.1 5.7,0.2 8.5,0c3.8,-0.2 7.6,-0.7 10.9,-2.6c2.5,-1.4 4.6,-3.5 5.9,-6.1c0.9,-1.8 1.4,-3.8 1.9,-5.7c-4.4,-0.3 -7.9,-1.4 -11.3,-2.9c-7.1,-3.3 -13.5,-8.8 -19,-14.9c-5.2,-5.8 -9.7,-12 -13.3,-18.7c-3.5,-6.5 -6.3,-13.4 -9.1,-20.4c-2.8,6.9 -5.6,13.9 -9.1,20.4c-3.6,6.7 -8.1,13 -13.3,18.7c-5.5,6.1 -11.9,11.7 -19,14.9c-3.4,1.5 -6.9,2.6 -11.3,2.9c0.5,2 1,4 1.9,5.7c1.3,2.5 3.5,4.7 5.9,6.1c3.3,1.8 7.1,2.4 10.9,2.6c2.9,0.2 5.7,0.1 8.5,0c-1.4,2.1 -2.8,4.1 -4.3,6.1c-3.2,4.1 -7,7.9 -11.2,11.1c-5.4,4.1 -11.6,7.4 -18.1,8.6c-3.9,0.7 -7.9,0.6 -11.9,0.6c1,3.1 2.2,6.1 4.1,8.8c2.3,3.2 5.6,5.8 9.3,7.5c4.3,1.9 9,2.5 13.7,3c2.5,0.3 5,0.5 7.5,0.8c-2.1,3 -4.3,5.5 -6.6,7.9c-4.2,4.3 -8.6,8.2 -14,11.5c-6.4,3.8 -14.3,6.8 -21.9,7.9c-3.8,0.6 -7.6,0.7 -11.4,0.8c0.7,2.8 1.6,5.4 2.8,7.8c2.2,4.5 5.5,8.7 9.5,11.9c4,3.3 8.8,5.6 13.7,7.1c5.5,1.8 11.3,2.6 17.1,3.1c-6.4,7.3 -13,14 -21.3,19.7c-8.8,6.1 -19.6,10.9 -29.4,13.8c-5.9,1.7 -11.4,2.8 -20,3.8c2.9,2.4 5.7,4.9 8.8,7.1c6.4,4.6 13.5,8.3 20.9,10.9c7.6,2.6 15.6,4.1 23.7,4.6c10.3,0.6 20.5,-0.4 30.7,-2c4.4,-0.7 8.8,-1.5 13.1,-2.5c3.5,-0.7 7,-1.5 10.4,-2.3c0,18.9 0,30.5 0,40.1c6.9,0 13.8,0 20.6,0c0,-9.6 0,-21.2 0,-40.1c3.4,0.8 6.9,1.5 10.4,2.3zm120.1,-25.7c-5.8,6 -11.8,11.8 -18.2,17.2c-5.1,4.3 -10.4,8.2 -16.2,11.5c-9.8,5.6 -20.7,9.1 -31.9,10.8c-10.3,1.6 -20.9,1.6 -31.2,0.4c-5.5,-0.6 -10.9,-1.5 -22.6,-3.7c0,12.6 0,25.2 0,37.7c-13.8,0 -27.6,0 -41.5,0c0,-12.6 0,-25.2 0,-37.7c-11.7,2.2 -17.1,3.1 -22.6,3.7c-10.3,1.1 -20.9,1.2 -31.2,-0.4c-11.2,-1.7 -22.1,-5.3 -31.9,-10.8c-5.8,-3.3 -11.1,-7.2 -16.2,-11.5c-6.4,-5.4 -12.3,-11.2 -18.2,-17.2c8.6,-0.9 17.2,-1.9 25.7,-3.4c10.4,-1.9 20.7,-4.6 29.9,-9.3c5.5,-2.8 10.6,-6.4 15.8,-10.9c-4.5,-2 -9,-3.9 -13,-6.7c-5.6,-3.8 -10.4,-9.2 -13.5,-15.2c-1.9,-3.7 -3.3,-7.7 -4.5,-11.7c-1.3,-4.4 -2.4,-8.8 -3.4,-13.2c4.4,0.3 8.8,0.4 13.3,0.3c6,-0.1 12.1,-0.7 17.6,-2.7c5,-1.8 9.6,-4.9 14.2,-8c-4.6,-2.2 -9.1,-4.4 -12.8,-7.7c-3.7,-3.4 -6.5,-8.1 -8.3,-12.9c-2.3,-6 -3.1,-12.4 -3.9,-18.7c5.5,1.3 11.1,2.2 16.9,2c4.1,-0.1 8.3,-0.8 12,-2.4c3.1,-1.3 5.8,-3.4 8.5,-5.4c-3.3,-1.7 -6.5,-3.4 -9.1,-5.8c-3.1,-3 -5.3,-7.1 -6.6,-11.3c-1.7,-5.5 -1.9,-11.2 -1.8,-16.9c4.4,1.1 8.8,1.6 13,0.8c5.2,-1.1 10.1,-4.3 14.4,-7.9c5.7,-4.8 10.3,-10.4 14.2,-16.4c2.8,-4.3 5.2,-8.8 7.4,-13.4c1.7,-3.7 3.3,-7.5 4.8,-11.3c-4.9,2.7 -9.8,5.5 -14.6,8.2c1.8,-9.2 3.7,-18.5 5.5,-27.7c-6.9,-6.4 -13.8,-12.8 -20.8,-19.2c9.4,-1.1 18.7,-2.2 28.1,-3.3c3.9,-8.6 7.9,-17.1 11.8,-25.7c3.9,8.6 7.9,17.1 11.8,25.7c9.4,1.1 18.7,2.2 28.1,3.3c-6.9,6.4 -13.8,12.8 -20.8,19.2c1.8,9.3 3.7,18.5 5.5,27.7c-4.9,-2.7 -9.8,-5.5 -14.6,-8.2c1.5,3.8 3,7.6 4.8,11.3c2.2,4.6 4.6,9.2 7.4,13.4c3.9,6.1 8.5,11.6 14.2,16.4c4.3,3.7 9.3,6.9 14.4,7.9c4.2,0.9 8.6,0.4 13,-0.8c0.1,5.7 -0.1,11.4 -1.8,16.9c-1.3,4.2 -3.5,8.3 -6.6,11.3c-2.6,2.5 -5.8,4.1 -9.1,5.8c2.7,2 5.5,4 8.5,5.4c3.7,1.6 7.9,2.3 12,2.4c5.7,0.2 11.3,-0.7 16.9,-2c-0.8,6.4 -1.6,12.7 -3.9,18.7c-1.8,4.8 -4.6,9.5 -8.3,12.9c-3.6,3.3 -8.2,5.5 -12.8,7.7c4.6,3.1 9.2,6.2 14.2,8c5.5,2 11.6,2.5 17.6,2.7c4.5,0.1 8.9,-0.1 13.2,-0.3c-1,4.4 -2.1,8.9 -3.4,13.2c-1.2,4 -2.5,8 -4.5,11.7c-3.2,6 -7.9,11.4 -13.5,15.2c-4,2.8 -8.5,4.7 -13,6.7c5.2,4.5 10.2,8.1 15.8,10.9c9.1,4.7 19.5,7.4 29.9,9.3c8.7,1.5 17.3,2.5 25.9,3.4zm-132.9,-231.5l8.6,-8l-11.6,-1.4l-4.9,-10.6l-4.9,10.6l-11.6,1.4l8.6,8l-2.3,11.5l10.2,-5.7l10.2,5.7l-2.3,-11.5z" class="st0"/>
    </g>
    <g id="svg_45"/>
   </g>
  </g>
  <g id="svg_46">
   <g id="svg_47">
    <g id="svg_48">
     <path id="svg_49" d="m1967.90402,220.59735c-3.4,3.1 -6.8,6.3 -10.2,9.4c0.9,4.5 1.8,9.1 2.7,13.6c-3.6,-2 -7.1,-4 -10.7,-6l-2.7,0c-3.6,2 -7.1,4 -10.7,6c0.9,-4.5 1.8,-9 2.7,-13.6c-3.4,-3.1 -6.8,-6.3 -10.2,-9.4c4.6,-0.5 9.2,-1.1 13.8,-1.6c1.9,-4.2 3.9,-8.4 5.8,-12.6c1.9,4.2 3.9,8.4 5.8,12.6c4.5,0.5 9.1,1.1 13.7,1.6z" class="st0"/>
     <path id="svg_50" d="m1982.50402,517.69735l0.8,1.7c0,0.1 0,0.2 0,0.2c0,0.3 -0.3,0.4 -0.5,0.4l-5.8,-0.8c-0.2,0 -0.5,0.1 -0.5,0.4c0,0.1 0,0.2 0,0.2l3.9,8.6c0.1,0.2 0.4,0.3 0.6,0.2c0.1,0 0.1,-0.1 0.2,-0.2l3.3,-4.9c0.1,-0.1 0.1,-0.1 0.2,-0.2c0.2,-0.1 0.5,0 0.6,0.2l0.8,1.7c0.1,0.2 0.4,0.3 0.6,0.2l15.5,-7c0.2,-0.1 0.3,-0.4 0.2,-0.6l-0.8,-1.7c0,-0.1 -0.1,-0.2 0,-0.2c0,-0.3 0.3,-0.4 0.5,-0.4l5.8,0.8c0.2,0 0.5,-0.1 0.5,-0.4c0,-0.1 0,-0.2 0,-0.2l-3.9,-8.6c-0.1,-0.2 -0.4,-0.3 -0.6,-0.2c-0.1,0 -0.1,0.1 -0.2,0.2l-3.3,4.9c0,0.1 -0.1,0.1 -0.2,0.2c-0.2,0.1 -0.5,0 -0.6,-0.2l-0.8,-1.7c-0.1,-0.2 -0.4,-0.3 -0.6,-0.2l-15.5,7c-0.2,0.1 -0.3,0.4 -0.2,0.6zm-20.8,-158.1l1.4,0.6c0.2,0.1 0.4,0 0.5,-0.2l5.7,-12.4c0.1,-0.2 0,-0.4 -0.2,-0.5l-1.4,-0.6c-0.1,0 -0.1,-0.1 -0.1,-0.1c-0.1,-0.2 -0.1,-0.4 0.1,-0.5l3.9,-2.6c0.2,-0.1 0.2,-0.3 0.1,-0.5c0,-0.1 -0.1,-0.1 -0.2,-0.1l-6.9,-3.2c-0.2,-0.1 -0.4,0 -0.5,0.2c0,0.1 0,0.1 0,0.2l0.6,4.7c0,0.1 0,0.1 0,0.2c-0.1,0.2 -0.3,0.3 -0.5,0.2l-1.4,-0.6c-0.2,-0.1 -0.4,0 -0.5,0.2l-5.7,12.4c-0.1,0.2 0,0.4 0.2,0.5l1.4,0.6c0.1,0 0.1,0.1 0.2,0.1c0.1,0.2 0.1,0.4 -0.1,0.5l-4,2.5c-0.2,0.1 -0.2,0.3 -0.1,0.5c0,0 0.1,0.1 0.2,0.1l6.9,3.2c0.2,0.1 0.4,0 0.5,-0.2c0,-0.1 0,-0.1 0,-0.2l-0.6,-4.7c0,-0.1 0,-0.1 0,-0.2c0.1,-0.1 0.3,-0.2 0.5,-0.1zm-9.6,113.6l1.5,-1.3c0.1,-0.1 0.1,-0.1 0.2,-0.1c0.3,0 0.5,0.1 0.5,0.4l0.9,6.2c0,0.3 0.3,0.4 0.5,0.4c0.1,0 0.2,0 0.2,-0.1l7.7,-6.4c0.2,-0.2 0.2,-0.5 0.1,-0.7c-0.1,-0.1 -0.1,-0.1 -0.2,-0.1l-5.9,-2c-0.1,0 -0.2,-0.1 -0.2,-0.1c-0.2,-0.2 -0.2,-0.5 0,-0.7l1.5,-1.3c0.2,-0.2 0.2,-0.5 0.1,-0.7l-11.6,-13.8c-0.2,-0.2 -0.5,-0.2 -0.7,-0.1l-1.5,1.3c-0.1,0.1 -0.2,0.1 -0.2,0.1c-0.3,0 -0.5,-0.1 -0.5,-0.4l-0.9,-6.2c0,-0.3 -0.3,-0.4 -0.5,-0.4c-0.1,0 -0.2,0 -0.2,0.1l-7.7,6.4c-0.2,0.2 -0.2,0.5 0,0.7c0,0.1 0.1,0.1 0.2,0.1l5.9,2c0.1,0 0.2,0.1 0.2,0.1c0.2,0.2 0.1,0.5 -0.1,0.7l-1.5,1.3c-0.2,0.2 -0.2,0.5 -0.1,0.7l11.6,13.8c0.2,0.2 0.5,0.2 0.7,0.1zm-62.8,15.5l2.5,6.4c0.1,0.3 0.4,0.4 0.7,0.3c0.1,0 0.2,-0.1 0.2,-0.2l6.7,-8.9c0.2,-0.2 0.1,-0.6 -0.1,-0.7c-0.1,-0.1 -0.2,-0.1 -0.3,-0.1l-6.9,-0.7c-0.1,0 -0.2,-0.1 -0.3,-0.1c-0.2,-0.2 -0.3,-0.5 -0.1,-0.7l1.3,-1.8c0.2,-0.2 0.1,-0.6 -0.1,-0.7l-16,-12.1c-0.2,-0.2 -0.6,-0.1 -0.7,0.1l-1.4,1.8c-0.1,0.1 -0.1,0.1 -0.2,0.2c-0.3,0.1 -0.6,0 -0.7,-0.3l-2.5,-6.5c-0.1,-0.3 -0.4,-0.4 -0.7,-0.3c-0.1,0 -0.2,0.1 -0.2,0.2l-6.7,8.9c-0.2,0.2 -0.1,0.6 0.1,0.7c0.1,0.1 0.2,0.1 0.3,0.1l6.9,0.7c0.1,0 0.2,0 0.3,0.1c0.2,0.2 0.3,0.5 0.1,0.7l-1.3,1.8c-0.2,0.2 -0.1,0.6 0.1,0.7l16,12.1c0.2,0.2 0.6,0.1 0.7,-0.1l1.3,-1.8c0.1,-0.1 0.1,-0.1 0.2,-0.2c0.4,0 0.7,0.2 0.8,0.4zm209.8,9.1c-1.4,1.8 -2.8,3.6 -4.4,5.4c-2.5,2.8 -5.4,5.4 -8.5,7.7c-3.2,2.3 -6.6,4.3 -10.1,5.9c-4,1.7 -8.1,3 -12.4,3.7c-3.8,0.6 -7.7,0.7 -11.6,0.7c2.4,0.9 4.8,1.8 7.3,2.4c4.4,1 9,1 13.6,1c-5.2,4.4 -10.4,6.4 -15.7,7.6c-5.3,1.2 -10.6,1.5 -16,1.1c-8.3,-0.5 -16.5,-2.7 -24.7,-8.2c-3.1,3.4 -6.3,6.9 -10.1,9.1c-5.9,3.5 -13.5,4.3 -20.7,3.9c-7.8,-0.4 -15.1,-2.1 -22.5,-3.7c0,6.1 0,12.3 0,30.6c-10,0 -20.1,0 -30.1,0c0,-15.9 0,-23.2 0,-30.6c-7.3,1.7 -14.7,3.3 -22.4,3.7c-7.2,0.4 -14.8,-0.4 -20.7,-3.9c-3.8,-2.3 -7,-5.7 -10.1,-9.1c-8.2,5.4 -16.3,7.6 -24.7,8.2c-5.3,0.4 -10.7,0.1 -16,-1.1c-5.3,-1.2 -10.5,-3.2 -15.7,-7.6c4.6,0 9.2,0.1 13.6,-1c2.5,-0.6 4.9,-1.5 7.3,-2.4c-3.9,-0.1 -7.8,-0.2 -11.6,-0.7c-4.3,-0.6 -8.4,-1.9 -12.4,-3.7c-3.6,-1.6 -7,-3.6 -10.2,-5.9c-3.1,-2.3 -6,-4.8 -8.5,-7.7c-1.5,-1.7 -3,-3.6 -4.4,-5.4c22.7,2.1 44.8,-3.5 63.7,-16.2c-4.7,-1.3 -9.3,-2.5 -13.5,-4.8c-4.2,-2.3 -7.9,-5.6 -11.4,-9.1c-2.2,-2.2 -4.3,-4.4 -6.1,-6.9c-1,-1.4 -2,-3 -2.9,-4.5c2.7,0.5 5.4,1 8.1,1.4c5,0.9 9.9,1.7 15.1,1.8c5.4,0.1 11,-0.5 16.1,-2.1c4.7,-1.5 8.9,-3.8 12.7,-6.9c4,-3.3 7.5,-7.3 10.9,-11.4c-3.8,-0.3 -7.5,-0.6 -11.1,-1.5c-4.8,-1.2 -9.4,-3.4 -13.8,-5.8c-2.7,-1.4 -5.3,-3 -7.8,-4.6c-1.6,-1 -3.1,-2 -4.7,-3.1c5.6,-1.1 11.2,-2.2 16.7,-3.7c5.2,-1.4 10.3,-3.1 15.1,-5.5c5.2,-2.7 9.9,-6.3 14,-10.3c3.9,-3.8 7.4,-8.1 10.9,-12.4c-5.1,-1 -10.1,-2 -15.1,-3.5c-3.9,-1.2 -7.8,-2.7 -11.3,-4.9c-2.1,-1.3 -4,-2.8 -6,-4.3c-1.6,-1.3 -3.2,-2.5 -4.8,-3.8c6.6,-0.7 13.2,-1.5 19.6,-2.8c5.4,-1.1 10.7,-2.7 15.9,-4.6c3.6,-1.3 7.2,-2.8 10.5,-4.8c2,-1.3 3.8,-2.7 5.7,-4.2c-3.8,-1.5 -7.6,-3 -11,-5.1c-3.2,-1.9 -6.1,-4.2 -8.9,-6.5c-1.9,-1.5 -3.7,-3.1 -5.3,-4.9c-1.2,-1.3 -2.2,-2.6 -3.3,-4c7.6,-0.9 15.3,-2.9 21.1,-6.7c6.7,-4.4 11,-11.1 14.1,-18.7c2.1,-5.1 3.7,-10.7 4.9,-16.3c0.6,-3 1.1,-5.9 1.4,-9c-2.2,2.6 -3.5,3.4 -5,4.2c-3.5,1.8 -7.7,3.2 -13.3,3.3c3.4,-2.7 6.9,-5.3 9.7,-8.5c4,-4.5 7,-10.1 9.1,-15.8c0.6,-1.7 1.2,-3.4 1.7,-5.1c-1.4,2.4 -2.2,3.6 -3.3,4.6c-2.2,2.1 -5.5,3.2 -10.7,3.2c3.1,-2.1 6.2,-4.3 8.6,-7c3.3,-3.7 5.4,-8.6 7.3,-13.4c2.1,-5.3 3.9,-10.6 5.7,-15.9l2.7,0c1.8,5.3 3.6,10.6 5.7,15.9c1.9,4.8 4,9.6 7.3,13.4c2.4,2.7 5.5,4.8 8.6,7c-5.3,0 -8.5,-1.1 -10.7,-3.2c-1,-1 -1.9,-2.2 -3.3,-4.6c0.5,1.7 1.1,3.4 1.7,5.1c2.1,5.7 5,11.3 9.1,15.8c2.9,3.2 6.3,5.9 9.7,8.5c-5.6,0 -9.8,-1.4 -13.3,-3.3c-1.4,-0.7 -2.7,-1.5 -5,-4.2c0.2,3.1 0.7,6.1 1.4,9c1.2,5.6 2.8,11.1 4.9,16.3c3.1,7.7 7.4,14.4 14.1,18.7c5.8,3.8 13.5,5.8 21.1,6.7c-1.1,1.4 -2.1,2.8 -3.3,4c-1.6,1.8 -3.5,3.3 -5.3,4.9c-2.9,2.3 -5.8,4.6 -8.9,6.5c-3.5,2 -7.3,3.6 -11.1,5.1c1.9,1.5 3.7,2.9 5.7,4.2c3.2,2 6.8,3.5 10.5,4.8c5.2,1.9 10.5,3.5 15.9,4.6c6.5,1.4 13,2.1 19.6,2.8c-1.6,1.3 -3.2,2.5 -4.8,3.8c-1.9,1.5 -3.9,3 -6,4.3c-3.5,2.2 -7.4,3.7 -11.3,4.9c-5,1.5 -10,2.5 -15.1,3.5c3.5,4.3 6.9,8.5 10.9,12.4c4.2,4.1 8.9,7.6 14,10.3c4.8,2.5 9.9,4.1 15.1,5.5c5.5,1.5 11.1,2.6 16.7,3.7c-1.5,1 -3.1,2.1 -4.7,3.1c-2.5,1.6 -5.2,3.1 -7.8,4.6c-4.4,2.4 -9,4.7 -13.8,5.8c-3.6,0.9 -7.4,1.2 -11.1,1.5c3.5,4.1 6.9,8.1 10.9,11.4c3.7,3 8,5.4 12.7,6.9c5.1,1.6 10.7,2.3 16.1,2.1c5.2,-0.1 10.2,-1 15.1,-1.8c2.7,-0.5 5.4,-1 8.1,-1.4c-0.9,1.5 -1.9,3 -2.9,4.5c-1.8,2.5 -3.9,4.7 -6.1,6.9c-3.5,3.5 -7.1,6.8 -11.4,9.1c-4.1,2.3 -8.8,3.5 -13.5,4.8c19.4,12.6 41.5,18.3 64.2,16.2zm-59.4,7.7c0,-3.9 -3.2,-7.1 -7.1,-7.1c-3.9,0 -7.1,3.2 -7.1,7.1c0,3.9 3.2,7.1 7.1,7.1c3.9,0 7.1,-3.2 7.1,-7.1zm-36.2,-50.8c0,-4.2 -3.4,-7.6 -7.6,-7.6s-7.6,3.4 -7.6,7.6s3.4,7.6 7.6,7.6s7.6,-3.4 7.6,-7.6zm-12.6,-31.7c0,-2.9 -2.4,-5.3 -5.3,-5.3c-2.9,0 -5.3,2.4 -5.3,5.3c0,2.9 2.4,5.3 5.3,5.3c2.9,0 5.3,-2.4 5.3,-5.3zm-4,69.9c0,-5.6 -4.5,-10.1 -10.1,-10.1c-5.6,0 -10.1,4.5 -10.1,10.1s4.5,10.1 10.1,10.1c5.6,0 10.1,-4.5 10.1,-10.1zm-15.8,-103.2c0,-4.2 -3.4,-7.6 -7.6,-7.6c-4.2,0 -7.6,3.4 -7.6,7.6c0,4.2 3.4,7.6 7.6,7.6c4.2,-0.1 7.6,-3.4 7.6,-7.6zm-13.5,37.8l5.1,-4.7l-6.9,-0.8l-2.9,-6.3l-2.9,6.3l-6.9,0.8l5.1,4.7l-1.3,6.8l6,-3.4l6,3.4l-1.3,-6.8zm-3.2,82l4.3,-4l-5.8,-0.7l-2.5,-5.4l-2.5,5.4l-5.8,0.7l4.3,4l-1.1,5.7l5.1,-2.9l5.1,2.9l-1.1,-5.7zm4.7,-200.6c0,-4.2 -3.4,-7.6 -7.6,-7.6c-4.2,0 -7.6,3.4 -7.6,7.6c0,4.2 3.4,7.6 7.6,7.6c4.2,-0.1 7.6,-3.4 7.6,-7.6zm-16.4,29.2l4.3,-4l-5.9,-0.7l-2.5,-5.3l-2.5,5.3l-5.8,0.7l4.3,4l-1.1,5.8l5.1,-2.9l5.1,2.9l-1,-5.8zm-6.6,57.8l5.1,-4.7l-6.9,-0.8l-2.9,-6.3l-2.9,6.3l-6.9,0.8l5.1,4.7l-1.3,6.8l6,-3.4l6,3.4l-1.3,-6.8zm4.9,-30.4c0,-2.9 -2.4,-5.3 -5.3,-5.3c-2.9,0 -5.3,2.4 -5.3,5.3c0,2.9 2.4,5.3 5.3,5.3c2.9,-0.1 5.3,-2.4 5.3,-5.3zm-13.4,141.4c0,-3.9 -3.2,-7.1 -7.1,-7.1c-3.9,0 -7.1,3.2 -7.1,7.1c0,3.9 3.2,7.1 7.1,7.1c4,0 7.1,-3.2 7.1,-7.1zm-2.7,-76.4c0,-4.2 -3.4,-7.6 -7.6,-7.6c-4.2,0 -7.6,3.4 -7.6,7.6c0,4.2 3.4,7.6 7.6,7.6c4.2,-0.1 7.6,-3.4 7.6,-7.6zm-8.3,35.6l5.1,-4.7l-6.9,-0.8l-2.9,-6.3l-2.9,6.3l-6.9,0.8l5.1,4.7l-1.3,6.8l6,-3.4l6,3.4l-1.3,-6.8zm-38,39.6c0,-5.6 -4.5,-10.1 -10.1,-10.1s-10.1,4.5 -10.1,10.1c0,5.6 4.5,10.1 10.1,10.1s10.1,-4.6 10.1,-10.1z" class="st0"/>
    </g>
    <g id="svg_51">
     <path id="svg_52" d="m1947.00402,237.59735c-1.8,5.3 -3.6,10.6 -5.7,15.9c-1.9,4.8 -3.9,9.6 -7.3,13.4c-2.4,2.7 -5.5,4.8 -8.6,7c5.3,0 8.5,-1.1 10.7,-3.2c1,-1 1.9,-2.2 3.3,-4.6c-0.5,1.7 -1.1,3.4 -1.7,5.1c-2.1,5.7 -5,11.3 -9.1,15.8c-2.9,3.2 -6.3,5.9 -9.7,8.5c5.6,0 9.8,-1.4 13.3,-3.3c1.4,-0.7 2.7,-1.5 5,-4.2c-0.2,3.1 -0.8,6.1 -1.4,9c-1.2,5.6 -2.8,11.1 -4.9,16.3c-3.1,7.7 -7.4,14.4 -14.1,18.7c-5.8,3.8 -13.5,5.8 -21.1,6.7c1.1,1.4 2.1,2.8 3.3,4c1.6,1.8 3.5,3.3 5.3,4.9c2.8,2.3 5.8,4.6 8.9,6.5c3.5,2 7.3,3.6 11,5.1c-1.9,1.5 -3.7,2.9 -5.7,4.2c-3.3,2 -6.8,3.5 -10.5,4.8c-5.2,1.9 -10.5,3.5 -15.9,4.6c-6.5,1.4 -13.1,2.1 -19.6,2.8c1.6,1.3 3.2,2.5 4.8,3.8c1.9,1.5 3.9,3 6,4.3c3.5,2.2 7.4,3.7 11.3,4.9c5,1.5 10,2.5 15.1,3.5c-3.5,4.3 -6.9,8.5 -10.9,12.4c-4.2,4.1 -8.9,7.6 -14,10.3c-4.8,2.5 -9.9,4.1 -15.1,5.5c-5.5,1.5 -11.1,2.6 -16.7,3.7c1.6,1 3.1,2.1 4.7,3.1c2.5,1.6 5.1,3.1 7.8,4.6c4.4,2.4 8.9,4.7 13.8,5.8c3.6,0.9 7.4,1.2 11.1,1.5c-3.5,4.1 -6.9,8.1 -10.9,11.4c-3.7,3 -8,5.4 -12.7,6.9c-5.1,1.6 -10.7,2.3 -16.1,2.1c-5.2,-0.1 -10.2,-1 -15.1,-1.8c-2.7,-0.5 -5.4,-1 -8.1,-1.4c0.9,1.5 1.9,3 2.9,4.5c1.8,2.5 3.9,4.7 6.1,6.9c3.4,3.5 7.1,6.8 11.4,9.1c4.1,2.3 8.8,3.5 13.5,4.8c-18.9,12.7 -41,18.3 -63.7,16.2c1.4,1.8 2.8,3.6 4.4,5.4c2.5,2.8 5.4,5.4 8.5,7.7c3.2,2.3 6.6,4.3 10.2,5.9c3.9,1.7 8.1,3 12.4,3.7c3.8,0.6 7.7,0.7 11.6,0.7c-2.4,0.9 -4.8,1.8 -7.3,2.4c-4.4,1 -9,1 -13.6,1c5.2,4.4 10.4,6.4 15.7,7.6c5.3,1.2 10.7,1.5 16,1.1c8.3,-0.5 16.5,-2.7 24.7,-8.2c3.1,3.4 6.3,6.9 10.1,9.1c5.9,3.5 13.5,4.3 20.7,3.9c7.8,-0.4 15.1,-2.1 22.4,-3.7c0,7.4 0,14.7 0,30.6c10,0 20.1,0 30.1,0c0,-18.3 0,-24.5 0,-30.6c7.3,1.7 14.7,3.3 22.5,3.7c7.2,0.4 14.8,-0.4 20.7,-3.9c3.8,-2.3 7,-5.7 10.1,-9.1c8.2,5.4 16.3,7.6 24.7,8.2c5.3,0.4 10.7,0.1 16,-1.1c5.3,-1.2 10.5,-3.2 15.7,-7.6c-4.6,0 -9.2,0.1 -13.6,-1c-2.5,-0.6 -4.9,-1.5 -7.3,-2.4c3.9,-0.1 7.8,-0.2 11.6,-0.7c4.3,-0.6 8.4,-1.9 12.4,-3.7c3.6,-1.6 7,-3.6 10.1,-5.9c3.1,-2.3 6,-4.8 8.5,-7.7c1.5,-1.7 3,-3.6 4.4,-5.4c-22.7,2.1 -44.8,-3.5 -63.7,-16.2c4.7,-1.3 9.3,-2.5 13.5,-4.8c4.2,-2.3 7.9,-5.6 11.4,-9.1c2.2,-2.2 4.3,-4.4 6.1,-6.9c1.1,-1.4 2,-3 2.9,-4.5c-2.7,0.5 -5.4,1 -8.1,1.4c-5,0.9 -10,1.7 -15.1,1.8c-5.4,0.1 -11.1,-0.5 -16.1,-2.1c-4.7,-1.5 -9,-3.8 -12.7,-6.9c-4,-3.3 -7.5,-7.3 -10.9,-11.4c3.8,-0.3 7.5,-0.6 11.1,-1.5c4.8,-1.2 9.4,-3.4 13.8,-5.8c2.7,-1.4 5.3,-3 7.8,-4.6c1.6,-1 3.1,-2 4.7,-3.1c-5.6,-1.1 -11.2,-2.2 -16.7,-3.7c-5.2,-1.4 -10.3,-3.1 -15.1,-5.5c-5.2,-2.7 -9.9,-6.3 -14,-10.3c-4,-3.8 -7.4,-8.1 -10.9,-12.4c5.1,-1 10.1,-2 15.1,-3.5c4,-1.2 7.8,-2.7 11.3,-4.9c2.1,-1.3 4,-2.8 6,-4.3c1.6,-1.3 3.2,-2.5 4.8,-3.8c-6.6,-0.7 -13.2,-1.5 -19.6,-2.8c-5.4,-1.1 -10.7,-2.7 -15.9,-4.6c-3.6,-1.3 -7.2,-2.8 -10.5,-4.8c-2,-1.3 -3.8,-2.7 -5.7,-4.2c3.8,-1.5 7.6,-3 11.1,-5.1c3.2,-1.9 6.1,-4.2 8.9,-6.5c1.9,-1.5 3.7,-3.1 5.3,-4.9c1.2,-1.3 2.3,-2.6 3.3,-4c-7.6,-0.9 -15.3,-2.9 -21.1,-6.7c-6.7,-4.4 -11,-11.1 -14.1,-18.7c-2.1,-5.1 -3.7,-10.7 -4.9,-16.3c-0.6,-3 -1.1,-5.9 -1.4,-9c2.2,2.6 3.5,3.4 5,4.2c3.5,1.8 7.7,3.2 13.3,3.3c-3.4,-2.7 -6.9,-5.3 -9.7,-8.5c-4.1,-4.5 -7,-10.1 -9.1,-15.8c-0.6,-1.7 -1.2,-3.4 -1.7,-5.1c1.4,2.4 2.2,3.6 3.3,4.6c2.2,2.1 5.4,3.2 10.7,3.2c-3.1,-2.1 -6.2,-4.3 -8.6,-7c-3.3,-3.7 -5.4,-8.6 -7.3,-13.4c-2.1,-5.3 -3.9,-10.6 -5.7,-15.9c3.6,2 7.1,4 10.7,6c-0.9,-4.5 -1.8,-9 -2.7,-13.6c3.4,-3.1 6.8,-6.3 10.2,-9.4c-4.6,-0.5 -9.2,-1.1 -13.8,-1.6c-1.9,-4.2 -3.9,-8.4 -5.8,-12.6c-1.9,4.2 -3.9,8.4 -5.8,12.6c-4.6,0.5 -9.2,1.1 -13.8,1.6c3.4,3.1 6.8,6.3 10.2,9.4c-0.9,4.5 -1.8,9.1 -2.7,13.6c3.1,-2 6.7,-4 10.3,-6z" class="st1"/>
     <polygon id="svg_53" points="1916.604190826416,466.09741973876953 1918.004093170166,472.89746856689453 1911.903995513916,469.49744415283203 1905.903995513916,472.89746856689453 1907.203800201416,466.09741973876953 1902.203800201416,461.39734649658203 1909.004093170166,460.59741973876953 1911.903995513916,454.29737091064453 1914.803897857666,460.59741973876953 1921.703800201416,461.39734649658203 " class="st1"/>
     <polygon id="svg_54" points="1957.604190826416,427.49744415283203 1959.004093170166,434.29737091064453 1952.903995513916,430.89746856689453 1946.903995513916,434.29737091064453 1948.203800201416,427.49744415283203 1943.203800201416,422.79737091064453 1950.004093170166,421.99744415283203 1952.903995513916,415.69739532470703 1955.803897857666,421.99744415283203 1962.703800201416,422.79737091064453 " class="st1"/>
     <polygon id="svg_55" points="1936.103702545166,395.89746856689453 1937.403995513916,402.69739532470703 1931.403995513916,399.29737091064453 1925.403995513916,402.69739532470703 1926.703800201416,395.89746856689453 1921.604190826416,391.19739532470703 1928.503604888916,390.29737091064453 1931.403995513916,384.09741973876953 1934.303897857666,390.29737091064453 1941.203800201416,391.19739532470703 " class="st1"/>
     <polygon id="svg_56" points="1942.703800201416,338.09741973876953 1943.803897857666,343.89746856689453 1938.703800201416,340.99744415283203 1933.604190826416,343.89746856689453 1934.703800201416,338.09741973876953 1930.403995513916,334.09741973876953 1936.203800201416,333.39734649658203 1938.703800201416,328.09741973876953 1941.203800201416,333.39734649658203 1947.004093170166,334.09741973876953 " class="st1"/>
     <path id="svg_57" d="m1966.70402,492.89735c0,-5.6 4.5,-10.1 10.1,-10.1c5.6,0 10.1,4.5 10.1,10.1s-4.5,10.1 -10.1,10.1c-5.5,0 -10.1,-4.5 -10.1,-10.1z" class="st1"/>
     <circle id="svg_58" r="10.1" cy="505.69735" cx="1868.50402" class="st1"/>
     <ellipse id="svg_59" ry="7.1" rx="7.1" cy="506.89735" cx="1920.60402" class="st1"/>
     <ellipse id="svg_60" ry="7.1" rx="7.1" cy="505.49735" cx="2032.60402" class="st1"/>
     <circle id="svg_61" r="7.6" cy="454.69735" cx="1996.00402" class="st1"/>
     <path id="svg_62" d="m1909.80402,430.49735c0,-4.2 3.4,-7.6 7.6,-7.6c4.2,0 7.6,3.4 7.6,7.6c0,4.2 -3.4,7.6 -7.6,7.6c-4.2,-0.1 -7.6,-3.4 -7.6,-7.6z" class="st1"/>
     <path id="svg_63" d="m1956.00402,389.69735c0,-4.2 3.4,-7.6 7.6,-7.6c4.2,0 7.6,3.4 7.6,7.6c0,4.2 -3.4,7.6 -7.6,7.6c-4.3,-0.1 -7.6,-3.4 -7.6,-7.6z" class="st1"/>
     <path id="svg_64" d="m1944.00402,308.89735c0,-4.2 3.4,-7.6 7.6,-7.6c4.2,0 7.6,3.4 7.6,7.6c0,4.2 -3.4,7.6 -7.6,7.6c-4.2,-0.1 -7.6,-3.4 -7.6,-7.6z" class="st1"/>
     <path id="svg_65" d="m1930.40402,365.49735c0,-2.9 2.4,-5.3 5.3,-5.3c2.9,0 5.3,2.4 5.3,5.3c0,2.9 -2.4,5.3 -5.3,5.3c-2.9,-0.1 -5.3,-2.4 -5.3,-5.3z" class="st1"/>
     <path id="svg_66" d="m1980.30402,422.99735c0,-2.9 2.4,-5.3 5.3,-5.3c2.9,0 5.3,2.4 5.3,5.3c0,2.9 -2.4,5.3 -5.3,5.3c-2.9,0 -5.3,-2.4 -5.3,-5.3z" class="st1"/>
     <polygon id="svg_67" points="1954.403995513916,509.49744415283203 1955.503604888916,515.197395324707 1950.403995513916,512.397346496582 1945.303897857666,515.197395324707 1946.403995513916,509.49744415283203 1942.103702545166,505.49744415283203 1947.903995513916,504.79737091064453 1950.403995513916,499.39734649658203 1952.903995513916,504.79737091064453 1958.703800201416,505.49744415283203 " class="st1"/>
     <path id="svg_68" d="m1964.10402,344.89735l-1.4,-0.6c-0.2,-0.1 -0.4,0 -0.5,0.2l-5.7,12.4c-0.1,0.2 0,0.4 0.2,0.5l1.4,0.6c0.1,0 0.1,0.1 0.2,0.1c0.1,0.2 0.1,0.4 -0.1,0.5l-3.9,2.6c-0.2,0.1 -0.2,0.3 -0.1,0.5c0,0 0.1,0.1 0.2,0.1l6.9,3.2c0.2,0.1 0.4,0 0.5,-0.2c0,-0.1 0,-0.1 0,-0.2l-0.6,-4.7c0,-0.1 0,-0.1 0,-0.2c0.1,-0.2 0.3,-0.3 0.5,-0.2l1.4,0.6c0.2,0.1 0.4,0 0.5,-0.2l5.7,-12.4c0.1,-0.2 0,-0.4 -0.2,-0.5l-1.4,-0.6c-0.1,0 -0.1,-0.1 -0.1,-0.1c-0.1,-0.2 -0.1,-0.4 0.1,-0.5l3.9,-2.6c0.2,-0.1 0.2,-0.3 0.1,-0.5c0,-0.1 -0.1,-0.1 -0.2,-0.1l-6.9,-3.2c-0.2,-0.1 -0.4,0 -0.5,0.2c0,0.1 0,0.1 0,0.2l0.6,4.7c0,0.1 0,0.1 0,0.2c-0.2,0.2 -0.4,0.3 -0.6,0.2z" class="st1"/>
     <path id="svg_69" d="m1941.40402,457.29735l-1.5,1.3c-0.2,0.2 -0.2,0.5 -0.1,0.7l11.6,13.8c0.2,0.2 0.5,0.2 0.7,0.1l1.5,-1.3c0.1,-0.1 0.1,-0.1 0.2,-0.1c0.3,0 0.5,0.1 0.5,0.4l0.9,6.2c0,0.3 0.3,0.4 0.5,0.4c0.1,0 0.2,0 0.2,-0.1l7.7,-6.4c0.2,-0.2 0.2,-0.5 0.1,-0.7c-0.1,-0.1 -0.1,-0.1 -0.2,-0.1l-5.9,-2c-0.1,0 -0.2,-0.1 -0.2,-0.1c-0.2,-0.2 -0.2,-0.5 0,-0.7l1.5,-1.3c0.2,-0.2 0.2,-0.5 0.1,-0.7l-11.6,-13.8c-0.2,-0.2 -0.5,-0.2 -0.7,-0.1l-1.5,1.3c-0.1,0.1 -0.2,0.1 -0.2,0.1c-0.3,0 -0.5,-0.1 -0.5,-0.4l-0.9,-6.2c0,-0.3 -0.3,-0.4 -0.5,-0.4c-0.1,0 -0.2,0 -0.2,0.1l-7.7,6.4c-0.2,0.2 -0.2,0.5 0,0.7c0,0.1 0.1,0.1 0.2,0.1l5.9,2c0.1,0 0.2,0.1 0.2,0.1c0.2,0.3 0.1,0.6 -0.1,0.7z" class="st1"/>
     <path id="svg_70" d="m1999.60402,512.09735l-0.8,-1.7c-0.1,-0.2 -0.4,-0.3 -0.6,-0.2l-15.5,7c-0.2,0.1 -0.3,0.4 -0.2,0.6l0.8,1.7c0,0.1 0,0.2 0,0.2c0,0.3 -0.3,0.4 -0.5,0.4l-5.8,-0.8c-0.2,0 -0.5,0.1 -0.5,0.4c0,0.1 0,0.2 0,0.2l3.9,8.6c0.1,0.2 0.4,0.3 0.6,0.2c0.1,0 0.1,-0.1 0.2,-0.2l3.3,-4.9c0.1,-0.1 0.1,-0.1 0.2,-0.2c0.2,-0.1 0.5,0 0.6,0.2l0.8,1.7c0.1,0.2 0.4,0.3 0.6,0.2l15.5,-7c0.2,-0.1 0.3,-0.4 0.2,-0.6l-0.8,-1.7c0,-0.1 -0.1,-0.2 0,-0.2c0,-0.3 0.3,-0.4 0.5,-0.4l5.8,0.8c0.2,0 0.5,-0.1 0.5,-0.4c0,-0.1 0,-0.2 0,-0.2l-3.9,-8.6c-0.1,-0.2 -0.4,-0.3 -0.6,-0.2c-0.1,0 -0.1,0.1 -0.2,0.2l-3.3,4.9c0,0.1 -0.1,0.1 -0.2,0.2c-0.2,0.1 -0.5,0 -0.6,-0.2z" class="st1"/>
     <path id="svg_71" d="m1891.80402,484.09735l1.3,-1.8c0.2,-0.2 0.1,-0.6 -0.1,-0.7l-16,-12.1c-0.2,-0.2 -0.6,-0.1 -0.7,0.1l-1.4,1.8c-0.1,0.1 -0.1,0.1 -0.2,0.2c-0.3,0.1 -0.6,0 -0.7,-0.3l-2.5,-6.5c-0.1,-0.3 -0.4,-0.4 -0.7,-0.3c-0.1,0 -0.2,0.1 -0.2,0.2l-6.7,8.9c-0.2,0.2 -0.1,0.6 0.1,0.7c0.1,0.1 0.2,0.1 0.3,0.1l6.9,0.7c0.1,0 0.2,0 0.3,0.1c0.2,0.2 0.3,0.5 0.1,0.7l-1.3,1.8c-0.2,0.2 -0.1,0.6 0.1,0.7l16,12.1c0.2,0.2 0.6,0.1 0.7,-0.1l1.3,-1.8c0.1,-0.1 0.1,-0.1 0.2,-0.2c0.3,-0.1 0.6,0 0.7,0.3l2.5,6.4c0.1,0.3 0.4,0.4 0.7,0.3c0.1,0 0.2,-0.1 0.2,-0.2l6.7,-8.9c0.2,-0.2 0.1,-0.6 -0.1,-0.7c-0.1,-0.1 -0.2,-0.1 -0.3,-0.1l-6.9,-0.7c-0.1,0 -0.2,-0.1 -0.3,-0.1c-0.1,-0.1 -0.2,-0.4 0,-0.6z" class="st1"/>
    </g>
   </g>
  </g>
  <g id="svg_72">
   <g id="svg_73">
    <g id="svg_74">
     <path id="svg_75" d="m1677.46523,399.83184c-10,21.1 -30.9,34.9 -54.3,35.7c11.4,7.5 24.6,11.6 38.3,11.8c-22.2,15.8 -52.3,14.2 -72.7,-3.7c2.1,10.2 7.5,19.3 15.4,26c-19.1,-1.9 -37,-10.2 -50.8,-23.6l0,39.7l-26.5,0l0,-39.7c-13.8,13.4 -31.7,21.7 -50.8,23.6c7.9,-6.7 13.3,-15.9 15.4,-26c-20.5,17.9 -50.5,19.5 -72.7,3.7c13.6,-0.2 26.9,-4.3 38.3,-11.8c-23.3,-1 -44.1,-14.7 -54.3,-35.7c21.1,8.3 44.9,6.1 64.2,-5.8c-26.8,1.3 -51.5,-14.6 -61.4,-39.5c26.7,6 54.4,5 80.5,-3c-16.8,-3.2 -31.2,-13.8 -39.3,-28.8c15,2.7 30.3,2.3 45.1,-1.1c-21,-2.4 -38.7,-17.1 -44.9,-37.3c21.1,8.2 44.8,6 64,-5.8c-13.3,-1.8 -25.3,-8.8 -33.4,-19.4c10.5,3.3 22,2 31.5,-3.5c-13.9,0 -26.1,-9.3 -29.6,-22.8c20.3,7.8 43.1,-2.4 50.8,-22.8c1.7,-4.4 2.5,-9 2.6,-13.7l-15.2,8.5l5,-25.2l-18.9,-17.5l25.5,-3l10.8,-23.3l10.8,23.3l25.5,3l-18.9,17.5l5,25.2l-15.2,-8.5c0.2,21.8 18,39.2 39.8,39c4.7,-0.1 9.3,-0.9 13.6,-2.6c-3.5,13.5 -15.7,22.8 -29.6,22.8c9.6,5.5 21,6.8 31.5,3.5c-8.1,10.7 -20.1,17.7 -33.4,19.4c19.2,11.9 42.9,14 64,5.8c-6.3,20.2 -23.9,34.8 -44.9,37.3c14.8,3.4 30.2,3.8 45.1,1.1c-7.9,15.2 -22.5,25.8 -39.3,28.8c26.1,8.1 53.9,9.1 80.5,3c-9.9,24.9 -34.6,40.8 -61.4,39.5c19.4,12.1 43.2,14.2 64.3,5.9zm-130.2,-223.4l7.8,-7.2l-10.6,-1.3l-4.5,-9.7l-4.5,9.7l-10.6,1.3l7.8,7.2l-2.1,10.4l9.3,-5.2l9.3,5.2l-1.9,-10.4z" class="st0"/>
    </g>
    <g id="svg_76"/>
   </g>
  </g>
  <g id="svg_77">
   <g id="svg_78">
    <g id="svg_79">
     <path id="svg_80" d="m847.77713,300.56901c-10,21.1 -30.9,34.9 -54.3,35.7c11.4,7.5 24.6,11.6 38.3,11.8c-22.2,15.8 -52.3,14.2 -72.7,-3.7c2.1,10.2 7.5,19.3 15.4,26c-19.1,-1.9 -37,-10.2 -50.8,-23.6l0,39.7l-26.5,0l0,-39.7c-13.8,13.4 -31.7,21.7 -50.8,23.6c7.9,-6.7 13.3,-15.9 15.4,-26c-20.5,17.9 -50.5,19.5 -72.7,3.7c13.6,-0.2 26.9,-4.3 38.3,-11.8c-23.3,-1 -44.1,-14.7 -54.3,-35.7c21.1,8.3 44.9,6.1 64.2,-5.8c-26.8,1.3 -51.5,-14.6 -61.4,-39.5c26.7,6 54.4,5 80.5,-3c-16.8,-3.2 -31.2,-13.8 -39.3,-28.8c15,2.7 30.3,2.3 45.1,-1.1c-21,-2.4 -38.7,-17.1 -44.9,-37.3c21.1,8.2 44.8,6 64,-5.8c-13.3,-1.8 -25.3,-8.8 -33.4,-19.4c10.5,3.3 22,2 31.5,-3.5c-13.9,0 -26.1,-9.3 -29.6,-22.8c20.3,7.8 43.1,-2.4 50.8,-22.8c1.7,-4.4 2.5,-9 2.6,-13.7l-15.2,8.5l5,-25.2l-18.9,-17.5l25.5,-3l10.8,-23.3l10.8,23.3l25.5,3l-18.9,17.5l5,25.2l-15.2,-8.5c0.2,21.8 18,39.2 39.8,39c4.7,-0.1 9.3,-0.9 13.6,-2.6c-3.5,13.5 -15.7,22.8 -29.6,22.8c9.6,5.5 21,6.8 31.5,3.5c-8.1,10.7 -20.1,17.7 -33.4,19.4c19.2,11.9 42.9,14 64,5.8c-6.3,20.2 -23.9,34.8 -44.9,37.3c14.8,3.4 30.2,3.8 45.1,1.1c-7.9,15.2 -22.5,25.8 -39.3,28.8c26.1,8.1 53.9,9.1 80.5,3c-9.9,24.9 -34.6,40.8 -61.4,39.5c19.4,12.1 43.2,14.2 64.3,5.9zm-130.2,-223.4l7.8,-7.2l-10.6,-1.3l-4.5,-9.7l-4.5,9.7l-10.6,1.3l7.8,7.2l-2.1,10.4l9.3,-5.2l9.3,5.2l-1.9,-10.4z" class="st0"/>
    </g>
    <g id="svg_81"/>
   </g>
  </g>
  <g id="svg_82">
   <g id="svg_83">
    <g id="svg_84">
     <path id="svg_85" d="m1156.32189,310.07569c4.3,0.9 8.7,1.7 13.1,2.5c10.1,1.6 20.4,2.6 30.7,2c8,-0.5 16,-2 23.7,-4.6c7.5,-2.6 14.6,-6.3 20.9,-10.9c3,-2.2 5.9,-4.6 8.8,-7.1c-8.6,-1 -14.1,-2 -20,-3.8c-9.8,-2.9 -20.6,-7.7 -29.4,-13.8c-8.3,-5.7 -14.9,-12.5 -21.3,-19.7c5.8,-0.5 11.5,-1.4 17.1,-3.1c4.9,-1.6 9.7,-3.9 13.7,-7.1c4,-3.2 7.3,-7.3 9.5,-11.9c1.2,-2.4 2.1,-5 2.8,-7.8c-3.8,-0.1 -7.5,-0.2 -11.4,-0.8c-7.6,-1.1 -15.5,-4.1 -21.9,-7.9c-5.4,-3.2 -9.8,-7.1 -14,-11.5c-2.3,-2.4 -4.5,-4.9 -6.6,-7.9c2.5,-0.3 5,-0.5 7.5,-0.8c4.7,-0.5 9.4,-1.1 13.7,-3c3.6,-1.6 7,-4.3 9.3,-7.5c1.9,-2.6 3.1,-5.6 4.1,-8.8c-4,0 -8,0.1 -11.9,-0.6c-6.5,-1.2 -12.7,-4.5 -18.1,-8.6c-4.2,-3.2 -8,-7 -11.2,-11.1c-1.5,-2 -2.9,-4 -4.3,-6.1c2.8,0.1 5.7,0.2 8.5,0c3.8,-0.2 7.6,-0.7 10.9,-2.6c2.5,-1.4 4.6,-3.5 5.9,-6.1c0.9,-1.8 1.4,-3.8 1.9,-5.7c-4.4,-0.3 -7.9,-1.4 -11.3,-2.9c-7.1,-3.3 -13.5,-8.8 -19,-14.9c-5.2,-5.8 -9.7,-12 -13.3,-18.7c-3.5,-6.5 -6.3,-13.4 -9.1,-20.4c-2.8,6.9 -5.6,13.9 -9.1,20.4c-3.6,6.7 -8.1,13 -13.3,18.7c-5.5,6.1 -11.9,11.7 -19,14.9c-3.4,1.5 -6.9,2.6 -11.3,2.9c0.5,2 1,4 1.9,5.7c1.3,2.5 3.5,4.7 5.9,6.1c3.3,1.8 7.1,2.4 10.9,2.6c2.9,0.2 5.7,0.1 8.5,0c-1.4,2.1 -2.8,4.1 -4.3,6.1c-3.2,4.1 -7,7.9 -11.2,11.1c-5.4,4.1 -11.6,7.4 -18.1,8.6c-3.9,0.7 -7.9,0.6 -11.9,0.6c1,3.1 2.2,6.1 4.1,8.8c2.3,3.2 5.6,5.8 9.3,7.5c4.3,1.9 9,2.5 13.7,3c2.5,0.3 5,0.5 7.5,0.8c-2.1,3 -4.3,5.5 -6.6,7.9c-4.2,4.3 -8.6,8.2 -14,11.5c-6.4,3.8 -14.3,6.8 -21.9,7.9c-3.8,0.6 -7.6,0.7 -11.4,0.8c0.7,2.8 1.6,5.4 2.8,7.8c2.2,4.5 5.5,8.7 9.5,11.9c4,3.3 8.8,5.6 13.7,7.1c5.5,1.8 11.3,2.6 17.1,3.1c-6.4,7.3 -13,14 -21.3,19.7c-8.8,6.1 -19.6,10.9 -29.4,13.8c-5.9,1.7 -11.4,2.8 -20,3.8c2.9,2.4 5.7,4.9 8.8,7.1c6.4,4.6 13.5,8.3 20.9,10.9c7.6,2.6 15.6,4.1 23.7,4.6c10.3,0.6 20.5,-0.4 30.7,-2c4.4,-0.7 8.8,-1.5 13.1,-2.5c3.5,-0.7 7,-1.5 10.4,-2.3c0,18.9 0,30.5 0,40.1c6.9,0 13.8,0 20.6,0c0,-9.6 0,-21.2 0,-40.1c3.4,0.8 6.9,1.5 10.4,2.3zm120.1,-25.7c-5.8,6 -11.8,11.8 -18.2,17.2c-5.1,4.3 -10.4,8.2 -16.2,11.5c-9.8,5.6 -20.7,9.1 -31.9,10.8c-10.3,1.6 -20.9,1.6 -31.2,0.4c-5.5,-0.6 -10.9,-1.5 -22.6,-3.7c0,12.6 0,25.2 0,37.7c-13.8,0 -27.6,0 -41.5,0c0,-12.6 0,-25.2 0,-37.7c-11.7,2.2 -17.1,3.1 -22.6,3.7c-10.3,1.1 -20.9,1.2 -31.2,-0.4c-11.2,-1.7 -22.1,-5.3 -31.9,-10.8c-5.8,-3.3 -11.1,-7.2 -16.2,-11.5c-6.4,-5.4 -12.3,-11.2 -18.2,-17.2c8.6,-0.9 17.2,-1.9 25.7,-3.4c10.4,-1.9 20.7,-4.6 29.9,-9.3c5.5,-2.8 10.6,-6.4 15.8,-10.9c-4.5,-2 -9,-3.9 -13,-6.7c-5.6,-3.8 -10.4,-9.2 -13.5,-15.2c-1.9,-3.7 -3.3,-7.7 -4.5,-11.7c-1.3,-4.4 -2.4,-8.8 -3.4,-13.2c4.4,0.3 8.8,0.4 13.3,0.3c6,-0.1 12.1,-0.7 17.6,-2.7c5,-1.8 9.6,-4.9 14.2,-8c-4.6,-2.2 -9.1,-4.4 -12.8,-7.7c-3.7,-3.4 -6.5,-8.1 -8.3,-12.9c-2.3,-6 -3.1,-12.4 -3.9,-18.7c5.5,1.3 11.1,2.2 16.9,2c4.1,-0.1 8.3,-0.8 12,-2.4c3.1,-1.3 5.8,-3.4 8.5,-5.4c-3.3,-1.7 -6.5,-3.4 -9.1,-5.8c-3.1,-3 -5.3,-7.1 -6.6,-11.3c-1.7,-5.5 -1.9,-11.2 -1.8,-16.9c4.4,1.1 8.8,1.6 13,0.8c5.2,-1.1 10.1,-4.3 14.4,-7.9c5.7,-4.8 10.3,-10.4 14.2,-16.4c2.8,-4.3 5.2,-8.8 7.4,-13.4c1.7,-3.7 3.3,-7.5 4.8,-11.3c-4.9,2.7 -9.8,5.5 -14.6,8.2c1.8,-9.2 3.7,-18.5 5.5,-27.7c-6.9,-6.4 -13.8,-12.8 -20.8,-19.2c9.4,-1.1 18.7,-2.2 28.1,-3.3c3.9,-8.6 7.9,-17.1 11.8,-25.7c3.9,8.6 7.9,17.1 11.8,25.7c9.4,1.1 18.7,2.2 28.1,3.3c-6.9,6.4 -13.8,12.8 -20.8,19.2c1.8,9.3 3.7,18.5 5.5,27.7c-4.9,-2.7 -9.8,-5.5 -14.6,-8.2c1.5,3.8 3,7.6 4.8,11.3c2.2,4.6 4.6,9.2 7.4,13.4c3.9,6.1 8.5,11.6 14.2,16.4c4.3,3.7 9.3,6.9 14.4,7.9c4.2,0.9 8.6,0.4 13,-0.8c0.1,5.7 -0.1,11.4 -1.8,16.9c-1.3,4.2 -3.5,8.3 -6.6,11.3c-2.6,2.5 -5.8,4.1 -9.1,5.8c2.7,2 5.5,4 8.5,5.4c3.7,1.6 7.9,2.3 12,2.4c5.7,0.2 11.3,-0.7 16.9,-2c-0.8,6.4 -1.6,12.7 -3.9,18.7c-1.8,4.8 -4.6,9.5 -8.3,12.9c-3.6,3.3 -8.2,5.5 -12.8,7.7c4.6,3.1 9.2,6.2 14.2,8c5.5,2 11.6,2.5 17.6,2.7c4.5,0.1 8.9,-0.1 13.2,-0.3c-1,4.4 -2.1,8.9 -3.4,13.2c-1.2,4 -2.5,8 -4.5,11.7c-3.2,6 -7.9,11.4 -13.5,15.2c-4,2.8 -8.5,4.7 -13,6.7c5.2,4.5 10.2,8.1 15.8,10.9c9.1,4.7 19.5,7.4 29.9,9.3c8.7,1.5 17.3,2.5 25.9,3.4zm-132.9,-231.5l8.6,-8l-11.6,-1.4l-4.9,-10.6l-4.9,10.6l-11.6,1.4l8.6,8l-2.3,11.5l10.2,-5.7l10.2,5.7l-2.3,-11.5z" class="st0"/>
    </g>
    <g id="svg_86"/>
   </g>
  </g>
  <g id="svg_87">
   <g id="svg_88">
    <g id="svg_89">
     <path id="svg_90" d="m111.71164,440.5048c37.7,-11.4 68.7,-38.6 84.8,-74.6c-14.6,10.4 -34,11.2 -49.3,1.8c15.7,-3.2 30,-11.3 40.8,-23.3c-14.4,7 -31.3,6.1 -44.8,-2.5c31.5,-14.7 57.1,-39.2 73.1,-69.8l2.5,0.5c1.4,5.3 3.1,10.6 5.1,15.7c-3.5,-1.8 -7.5,-1.3 -12,1.6c-4.4,2.9 -6,6 -4.6,9.2c1.3,3.3 4.5,4.3 9.6,3c5.1,-1.3 8.3,-3.8 9.5,-7.7c1.7,3.9 3.6,7.8 5.6,11.5c-3.8,-1.3 -7.6,-0.3 -11.7,3.1c-4,3.4 -5.2,6.7 -3.5,9.7c1.7,3.1 5.1,3.6 10,1.7c4.9,-1.9 7.7,-4.8 8.5,-8.8c2.2,3.7 4.5,7.3 7,10.8c-3.9,-0.9 -7.6,0.7 -11.2,4.6s-4.3,7.3 -2.2,10.1c2.1,2.8 5.5,3 10.1,0.5c4.6,-2.5 7,-5.8 7.3,-9.8c2.4,3.1 4.9,6.1 7.6,8.9c0.2,0.3 0.5,0.6 0.8,0.8c-4,-0.3 -7.5,1.6 -10.5,6c-3,4.3 -3.3,7.8 -0.9,10.3c2.5,2.5 5.8,2.3 10.1,-0.8c4.3,-3.1 6.2,-6.6 5.9,-10.7c0.9,0.9 1.9,1.8 2.8,2.7c2.2,2 4.4,4 6.7,5.9c-4,0.1 -7.2,2.6 -9.7,7.3c-2.5,4.7 -2.3,8.1 0.4,10.3c2.8,2.2 6,1.5 9.9,-2.1c3.9,-3.6 5.4,-7.4 4.6,-11.4c0.2,0.2 0.4,0.3 0.7,0.5c3.2,2.4 6.5,4.7 9.8,6.9c-3.9,0.7 -6.8,3.5 -8.7,8.4c-1.8,5 -1.3,8.3 1.7,10.2c3,1.8 6.2,0.7 9.5,-3.3s4.4,-8 3.1,-11.8c3.7,2.1 7.5,4.1 11.4,6c-3.8,1.1 -6.3,4.3 -7.5,9.5c-1.2,5.1 -0.2,8.4 3,9.9c3.2,1.4 6.2,-0.1 9,-4.5c2.8,-4.4 3.3,-8.5 1.5,-12.1c5.2,2.2 10.6,4.1 16,5.7c0.3,-1.1 0.6,-2.2 0.9,-3.2l2.3,-1.3c17.1,30.9 45.7,54.1 79.7,64.5c-23.5,7.4 -48.3,9.4 -72.7,5.9c2.9,7.6 8.6,13.9 15.9,17.5c-16.6,0.8 -32.8,-5.4 -44.7,-17.1c0.7,10.2 5,19.8 12,27.2c-14.8,-1.8 -28.4,-8.6 -38.9,-19.1c-0.8,-0.8 -2,-0.8 -2.8,0c-0.5,0.5 -0.7,1.2 -0.5,1.9c2.4,10.1 2.7,20.6 0.8,30.9l-32.6,0c-1.8,-10.2 -1.5,-20.7 0.8,-30.9c0.3,-1.1 -0.4,-2.2 -1.5,-2.4c-0.7,-0.2 -1.4,0 -1.9,0.5c-10.5,10.6 -24.2,17.3 -38.9,19.1c7,-7.4 11.3,-17 12,-27.2c-11.8,11.7 -28,17.9 -44.6,17.1c7.3,-3.6 13,-9.9 15.9,-17.5c-24.7,3.6 -49.6,1.6 -73,-5.8zm64.6,-38.6c-0.5,1 -0.9,2.1 -1.3,3.1c1.2,0.5 2.3,1 3.5,1.5c-3.8,1.3 -6.3,4.6 -7.3,9.7c-1.1,5.1 0,8.4 3.3,9.6c3.3,1.3 6.3,-0.4 9,-4.9c2.7,-4.5 3.1,-8.5 1.2,-12.1c4.5,1.6 9,3 13.5,4.1c-3.6,1.8 -5.6,5.4 -5.9,10.6c-0.4,5.3 1.2,8.3 4.6,9.1c3.4,0.8 6.2,-1.2 8.3,-6.1c2.1,-4.9 1.9,-8.9 -0.4,-12.1c4.6,1 9.3,1.7 14,2.2c-3.3,2.3 -4.8,6.1 -4.4,11.4c0.4,5.3 2.3,8 5.8,8.3c3.5,0.3 5.9,-2.1 7.3,-7.2c1.4,-5.1 0.7,-9.1 -2.1,-12c4.7,0.3 9.4,0.4 14.2,0.3c-3,2.8 -3.9,6.7 -2.8,11.9c1.1,5.1 3.4,7.6 6.9,7.5c3.5,-0.2 5.6,-2.9 6.3,-8.1c0.7,-5.2 -0.6,-9.1 -3.7,-11.5c3.1,-0.2 6.1,-0.5 9.2,-0.9c1.6,-0.2 3.3,-0.5 4.9,-0.7c-2.6,3.1 -2.9,7.2 -1.2,12.1c1.8,4.9 4.4,7.1 7.8,6.4c3.5,-0.6 5.2,-3.6 5.1,-8.9c0,-5.3 -1.8,-8.9 -5.3,-10.9c4.6,-1 9.2,-2.2 13.7,-3.6c-2.1,3.5 -1.9,7.5 0.5,12.2c2.4,4.7 5.3,6.4 8.7,5.3c3.3,-1.1 4.6,-4.3 3.8,-9.5c-0.8,-5.2 -3,-8.6 -6.7,-10.1c4.4,-1.6 8.8,-3.4 13.1,-5.4c-1.6,3.7 -0.9,7.7 2.2,12c3.1,4.3 6.2,5.6 9.3,4.1c3.1,-1.6 4,-4.9 2.5,-9.9c-1.5,-5.1 -4.2,-8.1 -8.1,-9.1c4.2,-2.2 8.3,-4.6 12.2,-7.2c-1.1,3.9 0.2,7.8 3.8,11.6c3.6,3.8 6.9,4.7 9.8,2.7c2.9,-2 3.3,-5.4 1.1,-10.2s-5.2,-7.4 -9.2,-7.9c1.5,-1.1 2.9,-2.1 4.3,-3.2c-0.7,-0.9 -1.4,-1.8 -2.1,-2.7c-7,5.4 -14,10.1 -21.2,14.2c-6.2,3.5 -12.4,6.5 -18.7,9c-6.5,2.6 -13,4.6 -19.5,6.1c-3.7,0.9 -7.5,1.5 -11.3,2c-5.2,0.7 -10.4,1.1 -15.6,1.1c-6.7,0.1 -13.5,-0.4 -20.4,-1.3c-6.6,-0.9 -13.3,-2.4 -20,-4.3c-7.5,-2.2 -15.1,-5 -22.7,-8.3zm167.9,37.5c5.6,-1.4 8.9,-7.1 7.5,-12.6c-0.9,-3.7 -3.8,-6.6 -7.5,-7.5l0,-4.1l0,0c-1.5,-1.2 -3.6,-1.2 -5.2,0l0,4.1c-5.6,1.4 -8.9,7.1 -7.5,12.6s7.2,8.9 12.7,7.5zm-99.3,-37.1c5.6,-1.4 8.9,-7.1 7.5,-12.6c-0.9,-3.7 -3.8,-6.6 -7.5,-7.5l0,-4.1l0,0c-1.5,-1.2 -3.6,-1.2 -5.1,0l0,4.1c-5.6,1.4 -8.9,7.1 -7.5,12.6c1.4,5.6 7.1,8.9 12.6,7.5zm-34.2,-44.2c5.6,-1.4 8.9,-7.1 7.5,-12.6c-0.9,-3.7 -3.8,-6.6 -7.5,-7.5l0,-4.1l0,0c-1.5,-1.2 -3.6,-1.2 -5.1,0l0,4.1c-5.6,1.4 -8.9,7.1 -7.5,12.6c1.3,5.6 7,9 12.6,7.5z" class="st0"/>
     <path id="svg_91" d="m300.61164,270.0048c15.9,31.6 42,57 74.2,72c-13.5,8.6 -30.5,9.5 -44.8,2.5c10.8,11.9 25,20.1 40.8,23.3c-15.3,9.3 -34.7,8.6 -49.3,-1.8c1.5,3.4 3.2,6.8 5,10.1l-2.3,1.3c-12,-3.6 -23,-8.1 -33,-13.5c-5.5,-3 -10.6,-6.2 -15.5,-9.7c-4.4,-3.2 -8.6,-6.6 -12.5,-10.3c-2.8,-2.6 -5.5,-5.3 -8.1,-8.2c-4,-4.4 -7.7,-9.2 -11.2,-14.2c-3.5,-5.2 -6.8,-10.7 -9.7,-16.5c-5.1,-10.1 -9.2,-21.1 -12.4,-33.1c-1.1,0.3 -2.2,0.6 -3.3,0.9l-2.5,-0.5c1.1,-2.1 2.2,-4.2 3.2,-6.4l2.9,0.3c5.5,4.2 11.4,7.5 17.8,10c-3.8,1.4 -6.1,4.7 -7,10c-0.9,5.2 0.3,8.4 3.6,9.6c3.3,1.2 6.3,-0.6 8.8,-5.3c2.5,-4.7 2.8,-8.7 0.7,-12.2c3.3,1 6.7,1.8 10.1,2.3c-3.4,2.2 -4.9,5.9 -4.7,11.3c0.3,5.3 2.2,8.2 5.7,8.6c3.5,0.4 6,-2 7.4,-7.1c1.4,-5.1 0.8,-9.1 -2.1,-12c3.4,0.2 6.9,0.2 10.3,0c-2.8,2.9 -3.5,6.9 -2.1,12c1.4,5.1 3.9,7.5 7.4,7.1c3.5,-0.4 5.4,-3.3 5.7,-8.6c0.3,-5.3 -1.3,-9.1 -4.7,-11.3c3.4,-0.5 6.8,-1.3 10.1,-2.3c-2.1,3.4 -1.9,7.5 0.6,12.2c2.5,4.7 5.5,6.4 8.8,5.3c3.3,-1.2 4.6,-4.4 3.7,-9.6c-0.9,-5.2 -3.3,-8.6 -7,-10c1.4,-0.6 2.8,-1.2 4.2,-1.8c-0.5,-1 -1,-2 -1.4,-3l2.6,-1.4zm12.1,82.4c5.6,-1.4 8.9,-7.1 7.5,-12.6c-0.9,-3.7 -3.8,-6.6 -7.5,-7.5l0,-4.1l0,0c-1.5,-1.2 -3.6,-1.2 -5.1,0l0,4.1c-5.6,1.4 -8.9,7.1 -7.5,12.6s7,8.9 12.6,7.5zm-32.2,-17.4c5.6,-1.4 8.9,-7.1 7.5,-12.6c-0.9,-3.7 -3.8,-6.6 -7.5,-7.5l0,-4.1l0,0c-1.5,-1.2 -3.6,-1.2 -5.1,0l0,4.1c-5.6,1.4 -8.9,7.1 -7.5,12.6c1.4,5.5 7,8.9 12.6,7.5z" class="st0"/>
     <path id="svg_92" d="m291.31164,274.1048c-4.3,1.6 -8.5,2.8 -12.6,3.6c-5.4,1 -10.8,1.4 -16,1c-2,-0.1 -4.1,-0.4 -6.1,-0.7c-11.1,-1.8 -21.9,-6.7 -32.3,-14.6c-0.7,0.9 -1.4,1.8 -2,2.7l-2.9,-0.3c0.5,-1.1 1,-2.2 1.5,-3.3c-11.5,6.5 -25.6,6.5 -37.1,-0.1c10,-1.4 19.1,-6.3 25.9,-13.8c-11.1,0.8 -22,-2.5 -30.8,-9.3c42.1,-18.3 72.1,-56.5 80.1,-101.6c8,45.2 38.1,83.3 80.1,101.6c-8.7,6.8 -19.7,10.2 -30.8,9.3c6.7,7.5 15.9,12.4 25.8,13.8c-11.5,6.5 -25.6,6.6 -37.1,0.1c1.1,2.5 2.3,5 3.5,7.5l-2.4,1.2c-2.2,1.2 -4.5,2.1 -6.8,2.9zm-14.5,-48.3c5.6,-1.4 8.9,-7.1 7.5,-12.6c-0.9,-3.7 -3.8,-6.6 -7.5,-7.5l0,-4.2l0,0c-1.5,-1.2 -3.6,-1.2 -5.2,0l0,4.1c-5.6,1.4 -8.9,7.1 -7.5,12.6c1.5,5.6 7.2,9 12.7,7.6zm-31.9,30.3c5.6,-1.4 8.9,-7.1 7.5,-12.6c-0.9,-3.7 -3.8,-6.6 -7.5,-7.5l0,-4.1l0,0c-1.5,-1.2 -3.6,-1.2 -5.2,0l0,4.1c-5.6,1.4 -8.9,7.1 -7.5,12.6c1.5,5.5 7.1,8.9 12.7,7.5z" class="st0"/>
    </g>
    <g id="svg_93"/>
   </g>
  </g>
  <g id="svg_94">
   <g id="svg_95">
    <g id="svg_96">
     <path id="svg_97" d="m3422.97285,860.32927c37.7,-11.4 68.7,-38.6 84.8,-74.6c-14.6,10.4 -34,11.2 -49.3,1.8c15.7,-3.2 30,-11.3 40.8,-23.3c-14.4,7 -31.3,6.1 -44.8,-2.5c31.5,-14.7 57.1,-39.2 73.1,-69.8l2.5,0.5c1.4,5.3 3.1,10.6 5.1,15.7c-3.5,-1.8 -7.5,-1.3 -12,1.6c-4.4,2.9 -6,6 -4.6,9.2c1.3,3.3 4.5,4.3 9.6,3c5.1,-1.3 8.3,-3.8 9.5,-7.7c1.7,3.9 3.6,7.8 5.6,11.5c-3.8,-1.3 -7.6,-0.3 -11.7,3.1c-4,3.4 -5.2,6.7 -3.5,9.7c1.7,3.1 5.1,3.6 10,1.7c4.9,-1.9 7.7,-4.8 8.5,-8.8c2.2,3.7 4.5,7.3 7,10.8c-3.9,-0.9 -7.6,0.7 -11.2,4.6s-4.3,7.3 -2.2,10.1c2.1,2.8 5.5,3 10.1,0.5c4.6,-2.5 7,-5.8 7.3,-9.8c2.4,3.1 4.9,6.1 7.6,8.9c0.2,0.3 0.5,0.6 0.8,0.8c-4,-0.3 -7.5,1.6 -10.5,6c-3,4.3 -3.3,7.8 -0.9,10.3c2.5,2.5 5.8,2.3 10.1,-0.8c4.3,-3.1 6.2,-6.6 5.9,-10.7c0.9,0.9 1.9,1.8 2.8,2.7c2.2,2 4.4,4 6.7,5.9c-4,0.1 -7.2,2.6 -9.7,7.3c-2.5,4.7 -2.3,8.1 0.4,10.3c2.8,2.2 6,1.5 9.9,-2.1c3.9,-3.6 5.4,-7.4 4.6,-11.4c0.2,0.2 0.4,0.3 0.7,0.5c3.2,2.4 6.5,4.7 9.8,6.9c-3.9,0.7 -6.8,3.5 -8.7,8.4c-1.8,5 -1.3,8.3 1.7,10.2c3,1.8 6.2,0.7 9.5,-3.3s4.4,-8 3.1,-11.8c3.7,2.1 7.5,4.1 11.4,6c-3.8,1.1 -6.3,4.3 -7.5,9.5c-1.2,5.1 -0.2,8.4 3,9.9c3.2,1.4 6.2,-0.1 9,-4.5c2.8,-4.4 3.3,-8.5 1.5,-12.1c5.2,2.2 10.6,4.1 16,5.7c0.3,-1.1 0.6,-2.2 0.9,-3.2l2.3,-1.3c17.1,30.9 45.7,54.1 79.7,64.5c-23.5,7.4 -48.3,9.4 -72.7,5.9c2.9,7.6 8.6,13.9 15.9,17.5c-16.6,0.8 -32.8,-5.4 -44.7,-17.1c0.7,10.2 5,19.8 12,27.2c-14.8,-1.8 -28.4,-8.6 -38.9,-19.1c-0.8,-0.8 -2,-0.8 -2.8,0c-0.5,0.5 -0.7,1.2 -0.5,1.9c2.4,10.1 2.7,20.6 0.8,30.9l-32.6,0c-1.8,-10.2 -1.5,-20.7 0.8,-30.9c0.3,-1.1 -0.4,-2.2 -1.5,-2.4c-0.7,-0.2 -1.4,0 -1.9,0.5c-10.5,10.6 -24.2,17.3 -38.9,19.1c7,-7.4 11.3,-17 12,-27.2c-11.8,11.7 -28,17.9 -44.6,17.1c7.3,-3.6 13,-9.9 15.9,-17.5c-24.7,3.6 -49.6,1.6 -73,-5.8zm64.6,-38.6c-0.5,1 -0.9,2.1 -1.3,3.1c1.2,0.5 2.3,1 3.5,1.5c-3.8,1.3 -6.3,4.6 -7.3,9.7c-1.1,5.1 0,8.4 3.3,9.6c3.3,1.3 6.3,-0.4 9,-4.9c2.7,-4.5 3.1,-8.5 1.2,-12.1c4.5,1.6 9,3 13.5,4.1c-3.6,1.8 -5.6,5.4 -5.9,10.6c-0.4,5.3 1.2,8.3 4.6,9.1c3.4,0.8 6.2,-1.2 8.3,-6.1c2.1,-4.9 1.9,-8.9 -0.4,-12.1c4.6,1 9.3,1.7 14,2.2c-3.3,2.3 -4.8,6.1 -4.4,11.4c0.4,5.3 2.3,8 5.8,8.3c3.5,0.3 5.9,-2.1 7.3,-7.2c1.4,-5.1 0.7,-9.1 -2.1,-12c4.7,0.3 9.4,0.4 14.2,0.3c-3,2.8 -3.9,6.7 -2.8,11.9c1.1,5.1 3.4,7.6 6.9,7.5c3.5,-0.2 5.6,-2.9 6.3,-8.1c0.7,-5.2 -0.6,-9.1 -3.7,-11.5c3.1,-0.2 6.1,-0.5 9.2,-0.9c1.6,-0.2 3.3,-0.5 4.9,-0.7c-2.6,3.1 -2.9,7.2 -1.2,12.1c1.8,4.9 4.4,7.1 7.8,6.4c3.5,-0.6 5.2,-3.6 5.1,-8.9c0,-5.3 -1.8,-8.9 -5.3,-10.9c4.6,-1 9.2,-2.2 13.7,-3.6c-2.1,3.5 -1.9,7.5 0.5,12.2c2.4,4.7 5.3,6.4 8.7,5.3c3.3,-1.1 4.6,-4.3 3.8,-9.5c-0.8,-5.2 -3,-8.6 -6.7,-10.1c4.4,-1.6 8.8,-3.4 13.1,-5.4c-1.6,3.7 -0.9,7.7 2.2,12c3.1,4.3 6.2,5.6 9.3,4.1c3.1,-1.6 4,-4.9 2.5,-9.9c-1.5,-5.1 -4.2,-8.1 -8.1,-9.1c4.2,-2.2 8.3,-4.6 12.2,-7.2c-1.1,3.9 0.2,7.8 3.8,11.6c3.6,3.8 6.9,4.7 9.8,2.7c2.9,-2 3.3,-5.4 1.1,-10.2s-5.2,-7.4 -9.2,-7.9c1.5,-1.1 2.9,-2.1 4.3,-3.2c-0.7,-0.9 -1.4,-1.8 -2.1,-2.7c-7,5.4 -14,10.1 -21.2,14.2c-6.2,3.5 -12.4,6.5 -18.7,9c-6.5,2.6 -13,4.6 -19.5,6.1c-3.7,0.9 -7.5,1.5 -11.3,2c-5.2,0.7 -10.4,1.1 -15.6,1.1c-6.7,0.1 -13.5,-0.4 -20.4,-1.3c-6.6,-0.9 -13.3,-2.4 -20,-4.3c-7.5,-2.2 -15.1,-5 -22.7,-8.3zm167.9,37.5c5.6,-1.4 8.9,-7.1 7.5,-12.6c-0.9,-3.7 -3.8,-6.6 -7.5,-7.5l0,-4.1l0,0c-1.5,-1.2 -3.6,-1.2 -5.2,0l0,4.1c-5.6,1.4 -8.9,7.1 -7.5,12.6s7.2,8.9 12.7,7.5zm-99.3,-37.1c5.6,-1.4 8.9,-7.1 7.5,-12.6c-0.9,-3.7 -3.8,-6.6 -7.5,-7.5l0,-4.1l0,0c-1.5,-1.2 -3.6,-1.2 -5.1,0l0,4.1c-5.6,1.4 -8.9,7.1 -7.5,12.6c1.4,5.6 7.1,8.9 12.6,7.5zm-34.2,-44.2c5.6,-1.4 8.9,-7.1 7.5,-12.6c-0.9,-3.7 -3.8,-6.6 -7.5,-7.5l0,-4.1l0,0c-1.5,-1.2 -3.6,-1.2 -5.1,0l0,4.1c-5.6,1.4 -8.9,7.1 -7.5,12.6c1.3,5.6 7,9 12.6,7.5z" class="st0"/>
     <path id="svg_98" d="m3611.87285,689.82927c15.9,31.6 42,57 74.2,72c-13.5,8.6 -30.5,9.5 -44.8,2.5c10.8,11.9 25,20.1 40.8,23.3c-15.3,9.3 -34.7,8.6 -49.3,-1.8c1.5,3.4 3.2,6.8 5,10.1l-2.3,1.3c-12,-3.6 -23,-8.1 -33,-13.5c-5.5,-3 -10.6,-6.2 -15.5,-9.7c-4.4,-3.2 -8.6,-6.6 -12.5,-10.3c-2.8,-2.6 -5.5,-5.3 -8.1,-8.2c-4,-4.4 -7.7,-9.2 -11.2,-14.2c-3.5,-5.2 -6.8,-10.7 -9.7,-16.5c-5.1,-10.1 -9.2,-21.1 -12.4,-33.1c-1.1,0.3 -2.2,0.6 -3.3,0.9l-2.5,-0.5c1.1,-2.1 2.2,-4.2 3.2,-6.4l2.9,0.3c5.5,4.2 11.4,7.5 17.8,10c-3.8,1.4 -6.1,4.7 -7,10c-0.9,5.2 0.3,8.4 3.6,9.6c3.3,1.2 6.3,-0.6 8.8,-5.3c2.5,-4.7 2.8,-8.7 0.7,-12.2c3.3,1 6.7,1.8 10.1,2.3c-3.4,2.2 -4.9,5.9 -4.7,11.3c0.3,5.3 2.2,8.2 5.7,8.6c3.5,0.4 6,-2 7.4,-7.1c1.4,-5.1 0.8,-9.1 -2.1,-12c3.4,0.2 6.9,0.2 10.3,0c-2.8,2.9 -3.5,6.9 -2.1,12c1.4,5.1 3.9,7.5 7.4,7.1c3.5,-0.4 5.4,-3.3 5.7,-8.6c0.3,-5.3 -1.3,-9.1 -4.7,-11.3c3.4,-0.5 6.8,-1.3 10.1,-2.3c-2.1,3.4 -1.9,7.5 0.6,12.2c2.5,4.7 5.5,6.4 8.8,5.3c3.3,-1.2 4.6,-4.4 3.7,-9.6c-0.9,-5.2 -3.3,-8.6 -7,-10c1.4,-0.6 2.8,-1.2 4.2,-1.8c-0.5,-1 -1,-2 -1.4,-3l2.6,-1.4zm12.1,82.4c5.6,-1.4 8.9,-7.1 7.5,-12.6c-0.9,-3.7 -3.8,-6.6 -7.5,-7.5l0,-4.1l0,0c-1.5,-1.2 -3.6,-1.2 -5.1,0l0,4.1c-5.6,1.4 -8.9,7.1 -7.5,12.6s7,8.9 12.6,7.5zm-32.2,-17.4c5.6,-1.4 8.9,-7.1 7.5,-12.6c-0.9,-3.7 -3.8,-6.6 -7.5,-7.5l0,-4.1l0,0c-1.5,-1.2 -3.6,-1.2 -5.1,0l0,4.1c-5.6,1.4 -8.9,7.1 -7.5,12.6c1.4,5.5 7,8.9 12.6,7.5z" class="st0"/>
     <path id="svg_99" d="m3602.57285,693.92927c-4.3,1.6 -8.5,2.8 -12.6,3.6c-5.4,1 -10.8,1.4 -16,1c-2,-0.1 -4.1,-0.4 -6.1,-0.7c-11.1,-1.8 -21.9,-6.7 -32.3,-14.6c-0.7,0.9 -1.4,1.8 -2,2.7l-2.9,-0.3c0.5,-1.1 1,-2.2 1.5,-3.3c-11.5,6.5 -25.6,6.5 -37.1,-0.1c10,-1.4 19.1,-6.3 25.9,-13.8c-11.1,0.8 -22,-2.5 -30.8,-9.3c42.1,-18.3 72.1,-56.5 80.1,-101.6c8,45.2 38.1,83.3 80.1,101.6c-8.7,6.8 -19.7,10.2 -30.8,9.3c6.7,7.5 15.9,12.4 25.8,13.8c-11.5,6.5 -25.6,6.6 -37.1,0.1c1.1,2.5 2.3,5 3.5,7.5l-2.4,1.2c-2.2,1.2 -4.5,2.1 -6.8,2.9zm-14.5,-48.3c5.6,-1.4 8.9,-7.1 7.5,-12.6c-0.9,-3.7 -3.8,-6.6 -7.5,-7.5l0,-4.2l0,0c-1.5,-1.2 -3.6,-1.2 -5.2,0l0,4.1c-5.6,1.4 -8.9,7.1 -7.5,12.6c1.5,5.6 7.2,9 12.7,7.6zm-31.9,30.3c5.6,-1.4 8.9,-7.1 7.5,-12.6c-0.9,-3.7 -3.8,-6.6 -7.5,-7.5l0,-4.1l0,0c-1.5,-1.2 -3.6,-1.2 -5.2,0l0,4.1c-5.6,1.4 -8.9,7.1 -7.5,12.6c1.5,5.5 7.1,8.9 12.7,7.5z" class="st0"/>
    </g>
    <g id="svg_100"/>
   </g>
  </g>
  <g id="svg_101">
   <g id="svg_102">
    <g id="svg_103">
     <path id="svg_104" d="m3059.17339,949.02762c4.3,0.9 8.7,1.7 13.1,2.5c10.1,1.6 20.4,2.6 30.7,2c8,-0.5 16,-2 23.7,-4.6c7.5,-2.6 14.6,-6.3 20.9,-10.9c3,-2.2 5.9,-4.6 8.8,-7.1c-8.6,-1 -14.1,-2 -20,-3.8c-9.8,-2.9 -20.6,-7.7 -29.4,-13.8c-8.3,-5.7 -14.9,-12.5 -21.3,-19.7c5.8,-0.5 11.5,-1.4 17.1,-3.1c4.9,-1.6 9.7,-3.9 13.7,-7.1c4,-3.2 7.3,-7.3 9.5,-11.9c1.2,-2.4 2.1,-5 2.8,-7.8c-3.8,-0.1 -7.5,-0.2 -11.4,-0.8c-7.6,-1.1 -15.5,-4.1 -21.9,-7.9c-5.4,-3.2 -9.8,-7.1 -14,-11.5c-2.3,-2.4 -4.5,-4.9 -6.6,-7.9c2.5,-0.3 5,-0.5 7.5,-0.8c4.7,-0.5 9.4,-1.1 13.7,-3c3.6,-1.6 7,-4.3 9.3,-7.5c1.9,-2.6 3.1,-5.6 4.1,-8.8c-4,0 -8,0.1 -11.9,-0.6c-6.5,-1.2 -12.7,-4.5 -18.1,-8.6c-4.2,-3.2 -8,-7 -11.2,-11.1c-1.5,-2 -2.9,-4 -4.3,-6.1c2.8,0.1 5.7,0.2 8.5,0c3.8,-0.2 7.6,-0.7 10.9,-2.6c2.5,-1.4 4.6,-3.5 5.9,-6.1c0.9,-1.8 1.4,-3.8 1.9,-5.7c-4.4,-0.3 -7.9,-1.4 -11.3,-2.9c-7.1,-3.3 -13.5,-8.8 -19,-14.9c-5.2,-5.8 -9.7,-12 -13.3,-18.7c-3.5,-6.5 -6.3,-13.4 -9.1,-20.4c-2.8,6.9 -5.6,13.9 -9.1,20.4c-3.6,6.7 -8.1,13 -13.3,18.7c-5.5,6.1 -11.9,11.7 -19,14.9c-3.4,1.5 -6.9,2.6 -11.3,2.9c0.5,2 1,4 1.9,5.7c1.3,2.5 3.5,4.7 5.9,6.1c3.3,1.8 7.1,2.4 10.9,2.6c2.9,0.2 5.7,0.1 8.5,0c-1.4,2.1 -2.8,4.1 -4.3,6.1c-3.2,4.1 -7,7.9 -11.2,11.1c-5.4,4.1 -11.6,7.4 -18.1,8.6c-3.9,0.7 -7.9,0.6 -11.9,0.6c1,3.1 2.2,6.1 4.1,8.8c2.3,3.2 5.6,5.8 9.3,7.5c4.3,1.9 9,2.5 13.7,3c2.5,0.3 5,0.5 7.5,0.8c-2.1,3 -4.3,5.5 -6.6,7.9c-4.2,4.3 -8.6,8.2 -14,11.5c-6.4,3.8 -14.3,6.8 -21.9,7.9c-3.8,0.6 -7.6,0.7 -11.4,0.8c0.7,2.8 1.6,5.4 2.8,7.8c2.2,4.5 5.5,8.7 9.5,11.9c4,3.3 8.8,5.6 13.7,7.1c5.5,1.8 11.3,2.6 17.1,3.1c-6.4,7.3 -13,14 -21.3,19.7c-8.8,6.1 -19.6,10.9 -29.4,13.8c-5.9,1.7 -11.4,2.8 -20,3.8c2.9,2.4 5.7,4.9 8.8,7.1c6.4,4.6 13.5,8.3 20.9,10.9c7.6,2.6 15.6,4.1 23.7,4.6c10.3,0.6 20.5,-0.4 30.7,-2c4.4,-0.7 8.8,-1.5 13.1,-2.5c3.5,-0.7 7,-1.5 10.4,-2.3c0,18.9 0,30.5 0,40.1c6.9,0 13.8,0 20.6,0c0,-9.6 0,-21.2 0,-40.1c3.4,0.8 6.9,1.5 10.4,2.3zm120.1,-25.7c-5.8,6 -11.8,11.8 -18.2,17.2c-5.1,4.3 -10.4,8.2 -16.2,11.5c-9.8,5.6 -20.7,9.1 -31.9,10.8c-10.3,1.6 -20.9,1.6 -31.2,0.4c-5.5,-0.6 -10.9,-1.5 -22.6,-3.7c0,12.6 0,25.2 0,37.7c-13.8,0 -27.6,0 -41.5,0c0,-12.6 0,-25.2 0,-37.7c-11.7,2.2 -17.1,3.1 -22.6,3.7c-10.3,1.1 -20.9,1.2 -31.2,-0.4c-11.2,-1.7 -22.1,-5.3 -31.9,-10.8c-5.8,-3.3 -11.1,-7.2 -16.2,-11.5c-6.4,-5.4 -12.3,-11.2 -18.2,-17.2c8.6,-0.9 17.2,-1.9 25.7,-3.4c10.4,-1.9 20.7,-4.6 29.9,-9.3c5.5,-2.8 10.6,-6.4 15.8,-10.9c-4.5,-2 -9,-3.9 -13,-6.7c-5.6,-3.8 -10.4,-9.2 -13.5,-15.2c-1.9,-3.7 -3.3,-7.7 -4.5,-11.7c-1.3,-4.4 -2.4,-8.8 -3.4,-13.2c4.4,0.3 8.8,0.4 13.3,0.3c6,-0.1 12.1,-0.7 17.6,-2.7c5,-1.8 9.6,-4.9 14.2,-8c-4.6,-2.2 -9.1,-4.4 -12.8,-7.7c-3.7,-3.4 -6.5,-8.1 -8.3,-12.9c-2.3,-6 -3.1,-12.4 -3.9,-18.7c5.5,1.3 11.1,2.2 16.9,2c4.1,-0.1 8.3,-0.8 12,-2.4c3.1,-1.3 5.8,-3.4 8.5,-5.4c-3.3,-1.7 -6.5,-3.4 -9.1,-5.8c-3.1,-3 -5.3,-7.1 -6.6,-11.3c-1.7,-5.5 -1.9,-11.2 -1.8,-16.9c4.4,1.1 8.8,1.6 13,0.8c5.2,-1.1 10.1,-4.3 14.4,-7.9c5.7,-4.8 10.3,-10.4 14.2,-16.4c2.8,-4.3 5.2,-8.8 7.4,-13.4c1.7,-3.7 3.3,-7.5 4.8,-11.3c-4.9,2.7 -9.8,5.5 -14.6,8.2c1.8,-9.2 3.7,-18.5 5.5,-27.7c-6.9,-6.4 -13.8,-12.8 -20.8,-19.2c9.4,-1.1 18.7,-2.2 28.1,-3.3c3.9,-8.6 7.9,-17.1 11.8,-25.7c3.9,8.6 7.9,17.1 11.8,25.7c9.4,1.1 18.7,2.2 28.1,3.3c-6.9,6.4 -13.8,12.8 -20.8,19.2c1.8,9.3 3.7,18.5 5.5,27.7c-4.9,-2.7 -9.8,-5.5 -14.6,-8.2c1.5,3.8 3,7.6 4.8,11.3c2.2,4.6 4.6,9.2 7.4,13.4c3.9,6.1 8.5,11.6 14.2,16.4c4.3,3.7 9.3,6.9 14.4,7.9c4.2,0.9 8.6,0.4 13,-0.8c0.1,5.7 -0.1,11.4 -1.8,16.9c-1.3,4.2 -3.5,8.3 -6.6,11.3c-2.6,2.5 -5.8,4.1 -9.1,5.8c2.7,2 5.5,4 8.5,5.4c3.7,1.6 7.9,2.3 12,2.4c5.7,0.2 11.3,-0.7 16.9,-2c-0.8,6.4 -1.6,12.7 -3.9,18.7c-1.8,4.8 -4.6,9.5 -8.3,12.9c-3.6,3.3 -8.2,5.5 -12.8,7.7c4.6,3.1 9.2,6.2 14.2,8c5.5,2 11.6,2.5 17.6,2.7c4.5,0.1 8.9,-0.1 13.2,-0.3c-1,4.4 -2.1,8.9 -3.4,13.2c-1.2,4 -2.5,8 -4.5,11.7c-3.2,6 -7.9,11.4 -13.5,15.2c-4,2.8 -8.5,4.7 -13,6.7c5.2,4.5 10.2,8.1 15.8,10.9c9.1,4.7 19.5,7.4 29.9,9.3c8.7,1.5 17.3,2.5 25.9,3.4zm-132.9,-231.5l8.6,-8l-11.6,-1.4l-4.9,-10.6l-4.9,10.6l-11.6,1.4l8.6,8l-2.3,11.5l10.2,-5.7l10.2,5.7l-2.3,-11.5z" class="st0"/>
    </g>
    <g id="svg_105"/>
   </g>
  </g>
  <g id="svg_106">
   <g id="svg_107">
    <g id="svg_108">
     <path id="svg_109" d="m4172.14834,1068.75005c-10,21.1 -30.9,34.9 -54.3,35.7c11.4,7.5 24.6,11.6 38.3,11.8c-22.2,15.8 -52.3,14.2 -72.7,-3.7c2.1,10.2 7.5,19.3 15.4,26c-19.1,-1.9 -37,-10.2 -50.8,-23.6l0,39.7l-26.5,0l0,-39.7c-13.8,13.4 -31.7,21.7 -50.8,23.6c7.9,-6.7 13.3,-15.9 15.4,-26c-20.5,17.9 -50.5,19.5 -72.7,3.7c13.6,-0.2 26.9,-4.3 38.3,-11.8c-23.3,-1 -44.1,-14.7 -54.3,-35.7c21.1,8.3 44.9,6.1 64.2,-5.8c-26.8,1.3 -51.5,-14.6 -61.4,-39.5c26.7,6 54.4,5 80.5,-3c-16.8,-3.2 -31.2,-13.8 -39.3,-28.8c15,2.7 30.3,2.3 45.1,-1.1c-21,-2.4 -38.7,-17.1 -44.9,-37.3c21.1,8.2 44.8,6 64,-5.8c-13.3,-1.8 -25.3,-8.8 -33.4,-19.4c10.5,3.3 22,2 31.5,-3.5c-13.9,0 -26.1,-9.3 -29.6,-22.8c20.3,7.8 43.1,-2.4 50.8,-22.8c1.7,-4.4 2.5,-9 2.6,-13.7l-15.2,8.5l5,-25.2l-18.9,-17.5l25.5,-3l10.8,-23.3l10.8,23.3l25.5,3l-18.9,17.5l5,25.2l-15.2,-8.5c0.2,21.8 18,39.2 39.8,39c4.7,-0.1 9.3,-0.9 13.6,-2.6c-3.5,13.5 -15.7,22.8 -29.6,22.8c9.6,5.5 21,6.8 31.5,3.5c-8.1,10.7 -20.1,17.7 -33.4,19.4c19.2,11.9 42.9,14 64,5.8c-6.3,20.2 -23.9,34.8 -44.9,37.3c14.8,3.4 30.2,3.8 45.1,1.1c-7.9,15.2 -22.5,25.8 -39.3,28.8c26.1,8.1 53.9,9.1 80.5,3c-9.9,24.9 -34.6,40.8 -61.4,39.5c19.4,12.1 43.2,14.2 64.3,5.9zm-130.2,-223.4l7.8,-7.2l-10.6,-1.3l-4.5,-9.7l-4.5,9.7l-10.6,1.3l7.8,7.2l-2.1,10.4l9.3,-5.2l9.3,5.2l-1.9,-10.4z" class="st0"/>
    </g>
    <g id="svg_110"/>
   </g>
  </g>
  <g id="svg_111">
   <g id="svg_112">
    <g id="svg_113">
     <path id="svg_114" d="m3402.53434,926.97317c-3.4,3.1 -6.8,6.3 -10.2,9.4c0.9,4.5 1.8,9.1 2.7,13.6c-3.6,-2 -7.1,-4 -10.7,-6l-2.7,0c-3.6,2 -7.1,4 -10.7,6c0.9,-4.5 1.8,-9 2.7,-13.6c-3.4,-3.1 -6.8,-6.3 -10.2,-9.4c4.6,-0.5 9.2,-1.1 13.8,-1.6c1.9,-4.2 3.9,-8.4 5.8,-12.6c1.9,4.2 3.9,8.4 5.8,12.6c4.5,0.5 9.1,1.1 13.7,1.6z" class="st0"/>
     <path id="svg_115" d="m3417.13434,1224.07317l0.8,1.7c0,0.1 0,0.2 0,0.2c0,0.3 -0.3,0.4 -0.5,0.4l-5.8,-0.8c-0.2,0 -0.5,0.1 -0.5,0.4c0,0.1 0,0.2 0,0.2l3.9,8.6c0.1,0.2 0.4,0.3 0.6,0.2c0.1,0 0.1,-0.1 0.2,-0.2l3.3,-4.9c0.1,-0.1 0.1,-0.1 0.2,-0.2c0.2,-0.1 0.5,0 0.6,0.2l0.8,1.7c0.1,0.2 0.4,0.3 0.6,0.2l15.5,-7c0.2,-0.1 0.3,-0.4 0.2,-0.6l-0.8,-1.7c0,-0.1 -0.1,-0.2 0,-0.2c0,-0.3 0.3,-0.4 0.5,-0.4l5.8,0.8c0.2,0 0.5,-0.1 0.5,-0.4c0,-0.1 0,-0.2 0,-0.2l-3.9,-8.6c-0.1,-0.2 -0.4,-0.3 -0.6,-0.2c-0.1,0 -0.1,0.1 -0.2,0.2l-3.3,4.9c0,0.1 -0.1,0.1 -0.2,0.2c-0.2,0.1 -0.5,0 -0.6,-0.2l-0.8,-1.7c-0.1,-0.2 -0.4,-0.3 -0.6,-0.2l-15.5,7c-0.2,0.1 -0.3,0.4 -0.2,0.6zm-20.8,-158.1l1.4,0.6c0.2,0.1 0.4,0 0.5,-0.2l5.7,-12.4c0.1,-0.2 0,-0.4 -0.2,-0.5l-1.4,-0.6c-0.1,0 -0.1,-0.1 -0.1,-0.1c-0.1,-0.2 -0.1,-0.4 0.1,-0.5l3.9,-2.6c0.2,-0.1 0.2,-0.3 0.1,-0.5c0,-0.1 -0.1,-0.1 -0.2,-0.1l-6.9,-3.2c-0.2,-0.1 -0.4,0 -0.5,0.2c0,0.1 0,0.1 0,0.2l0.6,4.7c0,0.1 0,0.1 0,0.2c-0.1,0.2 -0.3,0.3 -0.5,0.2l-1.4,-0.6c-0.2,-0.1 -0.4,0 -0.5,0.2l-5.7,12.4c-0.1,0.2 0,0.4 0.2,0.5l1.4,0.6c0.1,0 0.1,0.1 0.2,0.1c0.1,0.2 0.1,0.4 -0.1,0.5l-4,2.5c-0.2,0.1 -0.2,0.3 -0.1,0.5c0,0 0.1,0.1 0.2,0.1l6.9,3.2c0.2,0.1 0.4,0 0.5,-0.2c0,-0.1 0,-0.1 0,-0.2l-0.6,-4.7c0,-0.1 0,-0.1 0,-0.2c0.1,-0.1 0.3,-0.2 0.5,-0.1zm-9.6,113.6l1.5,-1.3c0.1,-0.1 0.1,-0.1 0.2,-0.1c0.3,0 0.5,0.1 0.5,0.4l0.9,6.2c0,0.3 0.3,0.4 0.5,0.4c0.1,0 0.2,0 0.2,-0.1l7.7,-6.4c0.2,-0.2 0.2,-0.5 0.1,-0.7c-0.1,-0.1 -0.1,-0.1 -0.2,-0.1l-5.9,-2c-0.1,0 -0.2,-0.1 -0.2,-0.1c-0.2,-0.2 -0.2,-0.5 0,-0.7l1.5,-1.3c0.2,-0.2 0.2,-0.5 0.1,-0.7l-11.6,-13.8c-0.2,-0.2 -0.5,-0.2 -0.7,-0.1l-1.5,1.3c-0.1,0.1 -0.2,0.1 -0.2,0.1c-0.3,0 -0.5,-0.1 -0.5,-0.4l-0.9,-6.2c0,-0.3 -0.3,-0.4 -0.5,-0.4c-0.1,0 -0.2,0 -0.2,0.1l-7.7,6.4c-0.2,0.2 -0.2,0.5 0,0.7c0,0.1 0.1,0.1 0.2,0.1l5.9,2c0.1,0 0.2,0.1 0.2,0.1c0.2,0.2 0.1,0.5 -0.1,0.7l-1.5,1.3c-0.2,0.2 -0.2,0.5 -0.1,0.7l11.6,13.8c0.2,0.2 0.5,0.2 0.7,0.1zm-62.8,15.5l2.5,6.4c0.1,0.3 0.4,0.4 0.7,0.3c0.1,0 0.2,-0.1 0.2,-0.2l6.7,-8.9c0.2,-0.2 0.1,-0.6 -0.1,-0.7c-0.1,-0.1 -0.2,-0.1 -0.3,-0.1l-6.9,-0.7c-0.1,0 -0.2,-0.1 -0.3,-0.1c-0.2,-0.2 -0.3,-0.5 -0.1,-0.7l1.3,-1.8c0.2,-0.2 0.1,-0.6 -0.1,-0.7l-16,-12.1c-0.2,-0.2 -0.6,-0.1 -0.7,0.1l-1.4,1.8c-0.1,0.1 -0.1,0.1 -0.2,0.2c-0.3,0.1 -0.6,0 -0.7,-0.3l-2.5,-6.5c-0.1,-0.3 -0.4,-0.4 -0.7,-0.3c-0.1,0 -0.2,0.1 -0.2,0.2l-6.7,8.9c-0.2,0.2 -0.1,0.6 0.1,0.7c0.1,0.1 0.2,0.1 0.3,0.1l6.9,0.7c0.1,0 0.2,0 0.3,0.1c0.2,0.2 0.3,0.5 0.1,0.7l-1.3,1.8c-0.2,0.2 -0.1,0.6 0.1,0.7l16,12.1c0.2,0.2 0.6,0.1 0.7,-0.1l1.3,-1.8c0.1,-0.1 0.1,-0.1 0.2,-0.2c0.4,0 0.7,0.2 0.8,0.4zm209.8,9.1c-1.4,1.8 -2.8,3.6 -4.4,5.4c-2.5,2.8 -5.4,5.4 -8.5,7.7c-3.2,2.3 -6.6,4.3 -10.1,5.9c-4,1.7 -8.1,3 -12.4,3.7c-3.8,0.6 -7.7,0.7 -11.6,0.7c2.4,0.9 4.8,1.8 7.3,2.4c4.4,1 9,1 13.6,1c-5.2,4.4 -10.4,6.4 -15.7,7.6c-5.3,1.2 -10.6,1.5 -16,1.1c-8.3,-0.5 -16.5,-2.7 -24.7,-8.2c-3.1,3.4 -6.3,6.9 -10.1,9.1c-5.9,3.5 -13.5,4.3 -20.7,3.9c-7.8,-0.4 -15.1,-2.1 -22.5,-3.7c0,6.1 0,12.3 0,30.6c-10,0 -20.1,0 -30.1,0c0,-15.9 0,-23.2 0,-30.6c-7.3,1.7 -14.7,3.3 -22.4,3.7c-7.2,0.4 -14.8,-0.4 -20.7,-3.9c-3.8,-2.3 -7,-5.7 -10.1,-9.1c-8.2,5.4 -16.3,7.6 -24.7,8.2c-5.3,0.4 -10.7,0.1 -16,-1.1c-5.3,-1.2 -10.5,-3.2 -15.7,-7.6c4.6,0 9.2,0.1 13.6,-1c2.5,-0.6 4.9,-1.5 7.3,-2.4c-3.9,-0.1 -7.8,-0.2 -11.6,-0.7c-4.3,-0.6 -8.4,-1.9 -12.4,-3.7c-3.6,-1.6 -7,-3.6 -10.2,-5.9c-3.1,-2.3 -6,-4.8 -8.5,-7.7c-1.5,-1.7 -3,-3.6 -4.4,-5.4c22.7,2.1 44.8,-3.5 63.7,-16.2c-4.7,-1.3 -9.3,-2.5 -13.5,-4.8c-4.2,-2.3 -7.9,-5.6 -11.4,-9.1c-2.2,-2.2 -4.3,-4.4 -6.1,-6.9c-1,-1.4 -2,-3 -2.9,-4.5c2.7,0.5 5.4,1 8.1,1.4c5,0.9 9.9,1.7 15.1,1.8c5.4,0.1 11,-0.5 16.1,-2.1c4.7,-1.5 8.9,-3.8 12.7,-6.9c4,-3.3 7.5,-7.3 10.9,-11.4c-3.8,-0.3 -7.5,-0.6 -11.1,-1.5c-4.8,-1.2 -9.4,-3.4 -13.8,-5.8c-2.7,-1.4 -5.3,-3 -7.8,-4.6c-1.6,-1 -3.1,-2 -4.7,-3.1c5.6,-1.1 11.2,-2.2 16.7,-3.7c5.2,-1.4 10.3,-3.1 15.1,-5.5c5.2,-2.7 9.9,-6.3 14,-10.3c3.9,-3.8 7.4,-8.1 10.9,-12.4c-5.1,-1 -10.1,-2 -15.1,-3.5c-3.9,-1.2 -7.8,-2.7 -11.3,-4.9c-2.1,-1.3 -4,-2.8 -6,-4.3c-1.6,-1.3 -3.2,-2.5 -4.8,-3.8c6.6,-0.7 13.2,-1.5 19.6,-2.8c5.4,-1.1 10.7,-2.7 15.9,-4.6c3.6,-1.3 7.2,-2.8 10.5,-4.8c2,-1.3 3.8,-2.7 5.7,-4.2c-3.8,-1.5 -7.6,-3 -11,-5.1c-3.2,-1.9 -6.1,-4.2 -8.9,-6.5c-1.9,-1.5 -3.7,-3.1 -5.3,-4.9c-1.2,-1.3 -2.2,-2.6 -3.3,-4c7.6,-0.9 15.3,-2.9 21.1,-6.7c6.7,-4.4 11,-11.1 14.1,-18.7c2.1,-5.1 3.7,-10.7 4.9,-16.3c0.6,-3 1.1,-5.9 1.4,-9c-2.2,2.6 -3.5,3.4 -5,4.2c-3.5,1.8 -7.7,3.2 -13.3,3.3c3.4,-2.7 6.9,-5.3 9.7,-8.5c4,-4.5 7,-10.1 9.1,-15.8c0.6,-1.7 1.2,-3.4 1.7,-5.1c-1.4,2.4 -2.2,3.6 -3.3,4.6c-2.2,2.1 -5.5,3.2 -10.7,3.2c3.1,-2.1 6.2,-4.3 8.6,-7c3.3,-3.7 5.4,-8.6 7.3,-13.4c2.1,-5.3 3.9,-10.6 5.7,-15.9l2.7,0c1.8,5.3 3.6,10.6 5.7,15.9c1.9,4.8 4,9.6 7.3,13.4c2.4,2.7 5.5,4.8 8.6,7c-5.3,0 -8.5,-1.1 -10.7,-3.2c-1,-1 -1.9,-2.2 -3.3,-4.6c0.5,1.7 1.1,3.4 1.7,5.1c2.1,5.7 5,11.3 9.1,15.8c2.9,3.2 6.3,5.9 9.7,8.5c-5.6,0 -9.8,-1.4 -13.3,-3.3c-1.4,-0.7 -2.7,-1.5 -5,-4.2c0.2,3.1 0.7,6.1 1.4,9c1.2,5.6 2.8,11.1 4.9,16.3c3.1,7.7 7.4,14.4 14.1,18.7c5.8,3.8 13.5,5.8 21.1,6.7c-1.1,1.4 -2.1,2.8 -3.3,4c-1.6,1.8 -3.5,3.3 -5.3,4.9c-2.9,2.3 -5.8,4.6 -8.9,6.5c-3.5,2 -7.3,3.6 -11.1,5.1c1.9,1.5 3.7,2.9 5.7,4.2c3.2,2 6.8,3.5 10.5,4.8c5.2,1.9 10.5,3.5 15.9,4.6c6.5,1.4 13,2.1 19.6,2.8c-1.6,1.3 -3.2,2.5 -4.8,3.8c-1.9,1.5 -3.9,3 -6,4.3c-3.5,2.2 -7.4,3.7 -11.3,4.9c-5,1.5 -10,2.5 -15.1,3.5c3.5,4.3 6.9,8.5 10.9,12.4c4.2,4.1 8.9,7.6 14,10.3c4.8,2.5 9.9,4.1 15.1,5.5c5.5,1.5 11.1,2.6 16.7,3.7c-1.5,1 -3.1,2.1 -4.7,3.1c-2.5,1.6 -5.2,3.1 -7.8,4.6c-4.4,2.4 -9,4.7 -13.8,5.8c-3.6,0.9 -7.4,1.2 -11.1,1.5c3.5,4.1 6.9,8.1 10.9,11.4c3.7,3 8,5.4 12.7,6.9c5.1,1.6 10.7,2.3 16.1,2.1c5.2,-0.1 10.2,-1 15.1,-1.8c2.7,-0.5 5.4,-1 8.1,-1.4c-0.9,1.5 -1.9,3 -2.9,4.5c-1.8,2.5 -3.9,4.7 -6.1,6.9c-3.5,3.5 -7.1,6.8 -11.4,9.1c-4.1,2.3 -8.8,3.5 -13.5,4.8c19.4,12.6 41.5,18.3 64.2,16.2zm-59.4,7.7c0,-3.9 -3.2,-7.1 -7.1,-7.1c-3.9,0 -7.1,3.2 -7.1,7.1c0,3.9 3.2,7.1 7.1,7.1c3.9,0 7.1,-3.2 7.1,-7.1zm-36.2,-50.8c0,-4.2 -3.4,-7.6 -7.6,-7.6s-7.6,3.4 -7.6,7.6s3.4,7.6 7.6,7.6s7.6,-3.4 7.6,-7.6zm-12.6,-31.7c0,-2.9 -2.4,-5.3 -5.3,-5.3c-2.9,0 -5.3,2.4 -5.3,5.3c0,2.9 2.4,5.3 5.3,5.3c2.9,0 5.3,-2.4 5.3,-5.3zm-4,69.9c0,-5.6 -4.5,-10.1 -10.1,-10.1c-5.6,0 -10.1,4.5 -10.1,10.1s4.5,10.1 10.1,10.1c5.6,0 10.1,-4.5 10.1,-10.1zm-15.8,-103.2c0,-4.2 -3.4,-7.6 -7.6,-7.6c-4.2,0 -7.6,3.4 -7.6,7.6c0,4.2 3.4,7.6 7.6,7.6c4.2,-0.1 7.6,-3.4 7.6,-7.6zm-13.5,37.8l5.1,-4.7l-6.9,-0.8l-2.9,-6.3l-2.9,6.3l-6.9,0.8l5.1,4.7l-1.3,6.8l6,-3.4l6,3.4l-1.3,-6.8zm-3.2,82l4.3,-4l-5.8,-0.7l-2.5,-5.4l-2.5,5.4l-5.8,0.7l4.3,4l-1.1,5.7l5.1,-2.9l5.1,2.9l-1.1,-5.7zm4.7,-200.6c0,-4.2 -3.4,-7.6 -7.6,-7.6c-4.2,0 -7.6,3.4 -7.6,7.6c0,4.2 3.4,7.6 7.6,7.6c4.2,-0.1 7.6,-3.4 7.6,-7.6zm-16.4,29.2l4.3,-4l-5.9,-0.7l-2.5,-5.3l-2.5,5.3l-5.8,0.7l4.3,4l-1.1,5.8l5.1,-2.9l5.1,2.9l-1,-5.8zm-6.6,57.8l5.1,-4.7l-6.9,-0.8l-2.9,-6.3l-2.9,6.3l-6.9,0.8l5.1,4.7l-1.3,6.8l6,-3.4l6,3.4l-1.3,-6.8zm4.9,-30.4c0,-2.9 -2.4,-5.3 -5.3,-5.3c-2.9,0 -5.3,2.4 -5.3,5.3c0,2.9 2.4,5.3 5.3,5.3c2.9,-0.1 5.3,-2.4 5.3,-5.3zm-13.4,141.4c0,-3.9 -3.2,-7.1 -7.1,-7.1c-3.9,0 -7.1,3.2 -7.1,7.1c0,3.9 3.2,7.1 7.1,7.1c4,0 7.1,-3.2 7.1,-7.1zm-2.7,-76.4c0,-4.2 -3.4,-7.6 -7.6,-7.6c-4.2,0 -7.6,3.4 -7.6,7.6c0,4.2 3.4,7.6 7.6,7.6c4.2,-0.1 7.6,-3.4 7.6,-7.6zm-8.3,35.6l5.1,-4.7l-6.9,-0.8l-2.9,-6.3l-2.9,6.3l-6.9,0.8l5.1,4.7l-1.3,6.8l6,-3.4l6,3.4l-1.3,-6.8zm-38,39.6c0,-5.6 -4.5,-10.1 -10.1,-10.1s-10.1,4.5 -10.1,10.1c0,5.6 4.5,10.1 10.1,10.1s10.1,-4.6 10.1,-10.1z" class="st0"/>
    </g>
    <g id="svg_116">
     <path id="svg_117" d="m3381.63434,943.97317c-1.8,5.3 -3.6,10.6 -5.7,15.9c-1.9,4.8 -3.9,9.6 -7.3,13.4c-2.4,2.7 -5.5,4.8 -8.6,7c5.3,0 8.5,-1.1 10.7,-3.2c1,-1 1.9,-2.2 3.3,-4.6c-0.5,1.7 -1.1,3.4 -1.7,5.1c-2.1,5.7 -5,11.3 -9.1,15.8c-2.9,3.2 -6.3,5.9 -9.7,8.5c5.6,0 9.8,-1.4 13.3,-3.3c1.4,-0.7 2.7,-1.5 5,-4.2c-0.2,3.1 -0.8,6.1 -1.4,9c-1.2,5.6 -2.8,11.1 -4.9,16.3c-3.1,7.7 -7.4,14.4 -14.1,18.7c-5.8,3.8 -13.5,5.8 -21.1,6.7c1.1,1.4 2.1,2.8 3.3,4c1.6,1.8 3.5,3.3 5.3,4.9c2.8,2.3 5.8,4.6 8.9,6.5c3.5,2 7.3,3.6 11,5.1c-1.9,1.5 -3.7,2.9 -5.7,4.2c-3.3,2 -6.8,3.5 -10.5,4.8c-5.2,1.9 -10.5,3.5 -15.9,4.6c-6.5,1.4 -13.1,2.1 -19.6,2.8c1.6,1.3 3.2,2.5 4.8,3.8c1.9,1.5 3.9,3 6,4.3c3.5,2.2 7.4,3.7 11.3,4.9c5,1.5 10,2.5 15.1,3.5c-3.5,4.3 -6.9,8.5 -10.9,12.4c-4.2,4.1 -8.9,7.6 -14,10.3c-4.8,2.5 -9.9,4.1 -15.1,5.5c-5.5,1.5 -11.1,2.6 -16.7,3.7c1.6,1 3.1,2.1 4.7,3.1c2.5,1.6 5.1,3.1 7.8,4.6c4.4,2.4 8.9,4.7 13.8,5.8c3.6,0.9 7.4,1.2 11.1,1.5c-3.5,4.1 -6.9,8.1 -10.9,11.4c-3.7,3 -8,5.4 -12.7,6.9c-5.1,1.6 -10.7,2.3 -16.1,2.1c-5.2,-0.1 -10.2,-1 -15.1,-1.8c-2.7,-0.5 -5.4,-1 -8.1,-1.4c0.9,1.5 1.9,3 2.9,4.5c1.8,2.5 3.9,4.7 6.1,6.9c3.4,3.5 7.1,6.8 11.4,9.1c4.1,2.3 8.8,3.5 13.5,4.8c-18.9,12.7 -41,18.3 -63.7,16.2c1.4,1.8 2.8,3.6 4.4,5.4c2.5,2.8 5.4,5.4 8.5,7.7c3.2,2.3 6.6,4.3 10.2,5.9c3.9,1.7 8.1,3 12.4,3.7c3.8,0.6 7.7,0.7 11.6,0.7c-2.4,0.9 -4.8,1.8 -7.3,2.4c-4.4,1 -9,1 -13.6,1c5.2,4.4 10.4,6.4 15.7,7.6c5.3,1.2 10.7,1.5 16,1.1c8.3,-0.5 16.5,-2.7 24.7,-8.2c3.1,3.4 6.3,6.9 10.1,9.1c5.9,3.5 13.5,4.3 20.7,3.9c7.8,-0.4 15.1,-2.1 22.4,-3.7c0,7.4 0,14.7 0,30.6c10,0 20.1,0 30.1,0c0,-18.3 0,-24.5 0,-30.6c7.3,1.7 14.7,3.3 22.5,3.7c7.2,0.4 14.8,-0.4 20.7,-3.9c3.8,-2.3 7,-5.7 10.1,-9.1c8.2,5.4 16.3,7.6 24.7,8.2c5.3,0.4 10.7,0.1 16,-1.1c5.3,-1.2 10.5,-3.2 15.7,-7.6c-4.6,0 -9.2,0.1 -13.6,-1c-2.5,-0.6 -4.9,-1.5 -7.3,-2.4c3.9,-0.1 7.8,-0.2 11.6,-0.7c4.3,-0.6 8.4,-1.9 12.4,-3.7c3.6,-1.6 7,-3.6 10.1,-5.9c3.1,-2.3 6,-4.8 8.5,-7.7c1.5,-1.7 3,-3.6 4.4,-5.4c-22.7,2.1 -44.8,-3.5 -63.7,-16.2c4.7,-1.3 9.3,-2.5 13.5,-4.8c4.2,-2.3 7.9,-5.6 11.4,-9.1c2.2,-2.2 4.3,-4.4 6.1,-6.9c1.1,-1.4 2,-3 2.9,-4.5c-2.7,0.5 -5.4,1 -8.1,1.4c-5,0.9 -10,1.7 -15.1,1.8c-5.4,0.1 -11.1,-0.5 -16.1,-2.1c-4.7,-1.5 -9,-3.8 -12.7,-6.9c-4,-3.3 -7.5,-7.3 -10.9,-11.4c3.8,-0.3 7.5,-0.6 11.1,-1.5c4.8,-1.2 9.4,-3.4 13.8,-5.8c2.7,-1.4 5.3,-3 7.8,-4.6c1.6,-1 3.1,-2 4.7,-3.1c-5.6,-1.1 -11.2,-2.2 -16.7,-3.7c-5.2,-1.4 -10.3,-3.1 -15.1,-5.5c-5.2,-2.7 -9.9,-6.3 -14,-10.3c-4,-3.8 -7.4,-8.1 -10.9,-12.4c5.1,-1 10.1,-2 15.1,-3.5c4,-1.2 7.8,-2.7 11.3,-4.9c2.1,-1.3 4,-2.8 6,-4.3c1.6,-1.3 3.2,-2.5 4.8,-3.8c-6.6,-0.7 -13.2,-1.5 -19.6,-2.8c-5.4,-1.1 -10.7,-2.7 -15.9,-4.6c-3.6,-1.3 -7.2,-2.8 -10.5,-4.8c-2,-1.3 -3.8,-2.7 -5.7,-4.2c3.8,-1.5 7.6,-3 11.1,-5.1c3.2,-1.9 6.1,-4.2 8.9,-6.5c1.9,-1.5 3.7,-3.1 5.3,-4.9c1.2,-1.3 2.3,-2.6 3.3,-4c-7.6,-0.9 -15.3,-2.9 -21.1,-6.7c-6.7,-4.4 -11,-11.1 -14.1,-18.7c-2.1,-5.1 -3.7,-10.7 -4.9,-16.3c-0.6,-3 -1.1,-5.9 -1.4,-9c2.2,2.6 3.5,3.4 5,4.2c3.5,1.8 7.7,3.2 13.3,3.3c-3.4,-2.7 -6.9,-5.3 -9.7,-8.5c-4.1,-4.5 -7,-10.1 -9.1,-15.8c-0.6,-1.7 -1.2,-3.4 -1.7,-5.1c1.4,2.4 2.2,3.6 3.3,4.6c2.2,2.1 5.4,3.2 10.7,3.2c-3.1,-2.1 -6.2,-4.3 -8.6,-7c-3.3,-3.7 -5.4,-8.6 -7.3,-13.4c-2.1,-5.3 -3.9,-10.6 -5.7,-15.9c3.6,2 7.1,4 10.7,6c-0.9,-4.5 -1.8,-9 -2.7,-13.6c3.4,-3.1 6.8,-6.3 10.2,-9.4c-4.6,-0.5 -9.2,-1.1 -13.8,-1.6c-1.9,-4.2 -3.9,-8.4 -5.8,-12.6c-1.9,4.2 -3.9,8.4 -5.8,12.6c-4.6,0.5 -9.2,1.1 -13.8,1.6c3.4,3.1 6.8,6.3 10.2,9.4c-0.9,4.5 -1.8,9.1 -2.7,13.6c3.1,-2 6.7,-4 10.3,-6z" class="st1"/>
     <polygon id="svg_118" points="3351.2344970703125,1172.4732055664062 3352.6343994140625,1179.2732543945312 3346.5343017578125,1175.8731079101562 3340.5343017578125,1179.2732543945312 3341.8341064453125,1172.4732055664062 3336.8341064453125,1167.7732543945312 3343.6343994140625,1166.9732055664062 3346.5343017578125,1160.6731567382812 3349.4342041015625,1166.9732055664062 3356.3341064453125,1167.7732543945312 " class="st1"/>
     <polygon id="svg_119" points="3392.2344970703125,1133.8731079101562 3393.6343994140625,1140.6731567382812 3387.5343017578125,1137.2732543945312 3381.5343017578125,1140.6731567382812 3382.8341064453125,1133.8731079101562 3377.8341064453125,1129.1731567382812 3384.6343994140625,1128.3732299804688 3387.5343017578125,1122.0731811523438 3390.4342041015625,1128.3732299804688 3397.3341064453125,1129.1731567382812 " class="st1"/>
     <polygon id="svg_120" points="3370.7340087890625,1102.2732543945312 3372.0343017578125,1109.0731811523438 3366.0343017578125,1105.6731567382812 3360.0343017578125,1109.0731811523438 3361.3341064453125,1102.2732543945312 3356.2344970703125,1097.5731811523438 3363.1339111328125,1096.6731567382812 3366.0343017578125,1090.4732055664062 3368.9342041015625,1096.6731567382812 3375.8341064453125,1097.5731811523438 " class="st1"/>
     <polygon id="svg_121" points="3377.3341064453125,1044.4732055664062 3378.4342041015625,1050.2732543945312 3373.3341064453125,1047.3732299804688 3368.2344970703125,1050.2732543945312 3369.3341064453125,1044.4732055664062 3365.0343017578125,1040.4732055664062 3370.8341064453125,1039.7732543945312 3373.3341064453125,1034.4732055664062 3375.8341064453125,1039.7732543945312 3381.6343994140625,1040.4732055664062 " class="st1"/>
     <path id="svg_122" d="m3401.33434,1199.27317c0,-5.6 4.5,-10.1 10.1,-10.1c5.6,0 10.1,4.5 10.1,10.1s-4.5,10.1 -10.1,10.1c-5.5,0 -10.1,-4.5 -10.1,-10.1z" class="st1"/>
     <circle id="svg_123" r="10.1" cy="1212.07317" cx="3303.13434" class="st1"/>
     <ellipse id="svg_124" ry="7.1" rx="7.1" cy="1213.27317" cx="3355.23434" class="st1"/>
     <ellipse id="svg_125" ry="7.1" rx="7.1" cy="1211.87317" cx="3467.23434" class="st1"/>
     <circle id="svg_126" r="7.6" cy="1161.07317" cx="3430.63434" class="st1"/>
     <path id="svg_127" d="m3344.43434,1136.87317c0,-4.2 3.4,-7.6 7.6,-7.6c4.2,0 7.6,3.4 7.6,7.6c0,4.2 -3.4,7.6 -7.6,7.6c-4.2,-0.1 -7.6,-3.4 -7.6,-7.6z" class="st1"/>
     <path id="svg_128" d="m3390.63434,1096.07317c0,-4.2 3.4,-7.6 7.6,-7.6c4.2,0 7.6,3.4 7.6,7.6c0,4.2 -3.4,7.6 -7.6,7.6c-4.3,-0.1 -7.6,-3.4 -7.6,-7.6z" class="st1"/>
     <path id="svg_129" d="m3378.63434,1015.27317c0,-4.2 3.4,-7.6 7.6,-7.6c4.2,0 7.6,3.4 7.6,7.6c0,4.2 -3.4,7.6 -7.6,7.6c-4.2,-0.1 -7.6,-3.4 -7.6,-7.6z" class="st1"/>
     <path id="svg_130" d="m3365.03434,1071.87317c0,-2.9 2.4,-5.3 5.3,-5.3c2.9,0 5.3,2.4 5.3,5.3c0,2.9 -2.4,5.3 -5.3,5.3c-2.9,-0.1 -5.3,-2.4 -5.3,-5.3z" class="st1"/>
     <path id="svg_131" d="m3414.93434,1129.37317c0,-2.9 2.4,-5.3 5.3,-5.3c2.9,0 5.3,2.4 5.3,5.3c0,2.9 -2.4,5.3 -5.3,5.3c-2.9,0 -5.3,-2.4 -5.3,-5.3z" class="st1"/>
     <polygon id="svg_132" points="3389.0343017578125,1215.8731079101562 3390.1339111328125,1221.5731811523438 3385.0343017578125,1218.7732543945312 3379.9342041015625,1221.5731811523438 3381.0343017578125,1215.8731079101562 3376.7340087890625,1211.8731079101562 3382.5343017578125,1211.1731567382812 3385.0343017578125,1205.7732543945312 3387.5343017578125,1211.1731567382812 3393.3341064453125,1211.8731079101562 " class="st1"/>
     <path id="svg_133" d="m3398.73434,1051.27317l-1.4,-0.6c-0.2,-0.1 -0.4,0 -0.5,0.2l-5.7,12.4c-0.1,0.2 0,0.4 0.2,0.5l1.4,0.6c0.1,0 0.1,0.1 0.2,0.1c0.1,0.2 0.1,0.4 -0.1,0.5l-3.9,2.6c-0.2,0.1 -0.2,0.3 -0.1,0.5c0,0 0.1,0.1 0.2,0.1l6.9,3.2c0.2,0.1 0.4,0 0.5,-0.2c0,-0.1 0,-0.1 0,-0.2l-0.6,-4.7c0,-0.1 0,-0.1 0,-0.2c0.1,-0.2 0.3,-0.3 0.5,-0.2l1.4,0.6c0.2,0.1 0.4,0 0.5,-0.2l5.7,-12.4c0.1,-0.2 0,-0.4 -0.2,-0.5l-1.4,-0.6c-0.1,0 -0.1,-0.1 -0.1,-0.1c-0.1,-0.2 -0.1,-0.4 0.1,-0.5l3.9,-2.6c0.2,-0.1 0.2,-0.3 0.1,-0.5c0,-0.1 -0.1,-0.1 -0.2,-0.1l-6.9,-3.2c-0.2,-0.1 -0.4,0 -0.5,0.2c0,0.1 0,0.1 0,0.2l0.6,4.7c0,0.1 0,0.1 0,0.2c-0.2,0.2 -0.4,0.3 -0.6,0.2z" class="st1"/>
     <path id="svg_134" d="m3376.03434,1163.67317l-1.5,1.3c-0.2,0.2 -0.2,0.5 -0.1,0.7l11.6,13.8c0.2,0.2 0.5,0.2 0.7,0.1l1.5,-1.3c0.1,-0.1 0.1,-0.1 0.2,-0.1c0.3,0 0.5,0.1 0.5,0.4l0.9,6.2c0,0.3 0.3,0.4 0.5,0.4c0.1,0 0.2,0 0.2,-0.1l7.7,-6.4c0.2,-0.2 0.2,-0.5 0.1,-0.7c-0.1,-0.1 -0.1,-0.1 -0.2,-0.1l-5.9,-2c-0.1,0 -0.2,-0.1 -0.2,-0.1c-0.2,-0.2 -0.2,-0.5 0,-0.7l1.5,-1.3c0.2,-0.2 0.2,-0.5 0.1,-0.7l-11.6,-13.8c-0.2,-0.2 -0.5,-0.2 -0.7,-0.1l-1.5,1.3c-0.1,0.1 -0.2,0.1 -0.2,0.1c-0.3,0 -0.5,-0.1 -0.5,-0.4l-0.9,-6.2c0,-0.3 -0.3,-0.4 -0.5,-0.4c-0.1,0 -0.2,0 -0.2,0.1l-7.7,6.4c-0.2,0.2 -0.2,0.5 0,0.7c0,0.1 0.1,0.1 0.2,0.1l5.9,2c0.1,0 0.2,0.1 0.2,0.1c0.2,0.3 0.1,0.6 -0.1,0.7z" class="st1"/>
     <path id="svg_135" d="m3434.23434,1218.47317l-0.8,-1.7c-0.1,-0.2 -0.4,-0.3 -0.6,-0.2l-15.5,7c-0.2,0.1 -0.3,0.4 -0.2,0.6l0.8,1.7c0,0.1 0,0.2 0,0.2c0,0.3 -0.3,0.4 -0.5,0.4l-5.8,-0.8c-0.2,0 -0.5,0.1 -0.5,0.4c0,0.1 0,0.2 0,0.2l3.9,8.6c0.1,0.2 0.4,0.3 0.6,0.2c0.1,0 0.1,-0.1 0.2,-0.2l3.3,-4.9c0.1,-0.1 0.1,-0.1 0.2,-0.2c0.2,-0.1 0.5,0 0.6,0.2l0.8,1.7c0.1,0.2 0.4,0.3 0.6,0.2l15.5,-7c0.2,-0.1 0.3,-0.4 0.2,-0.6l-0.8,-1.7c0,-0.1 -0.1,-0.2 0,-0.2c0,-0.3 0.3,-0.4 0.5,-0.4l5.8,0.8c0.2,0 0.5,-0.1 0.5,-0.4c0,-0.1 0,-0.2 0,-0.2l-3.9,-8.6c-0.1,-0.2 -0.4,-0.3 -0.6,-0.2c-0.1,0 -0.1,0.1 -0.2,0.2l-3.3,4.9c0,0.1 -0.1,0.1 -0.2,0.2c-0.2,0.1 -0.5,0 -0.6,-0.2z" class="st1"/>
     <path id="svg_136" d="m3326.43434,1190.47317l1.3,-1.8c0.2,-0.2 0.1,-0.6 -0.1,-0.7l-16,-12.1c-0.2,-0.2 -0.6,-0.1 -0.7,0.1l-1.4,1.8c-0.1,0.1 -0.1,0.1 -0.2,0.2c-0.3,0.1 -0.6,0 -0.7,-0.3l-2.5,-6.5c-0.1,-0.3 -0.4,-0.4 -0.7,-0.3c-0.1,0 -0.2,0.1 -0.2,0.2l-6.7,8.9c-0.2,0.2 -0.1,0.6 0.1,0.7c0.1,0.1 0.2,0.1 0.3,0.1l6.9,0.7c0.1,0 0.2,0 0.3,0.1c0.2,0.2 0.3,0.5 0.1,0.7l-1.3,1.8c-0.2,0.2 -0.1,0.6 0.1,0.7l16,12.1c0.2,0.2 0.6,0.1 0.7,-0.1l1.3,-1.8c0.1,-0.1 0.1,-0.1 0.2,-0.2c0.3,-0.1 0.6,0 0.7,0.3l2.5,6.4c0.1,0.3 0.4,0.4 0.7,0.3c0.1,0 0.2,-0.1 0.2,-0.2l6.7,-8.9c0.2,-0.2 0.1,-0.6 -0.1,-0.7c-0.1,-0.1 -0.2,-0.1 -0.3,-0.1l-6.9,-0.7c-0.1,0 -0.2,-0.1 -0.3,-0.1c-0.1,-0.1 -0.2,-0.4 0,-0.6z" class="st1"/>
    </g>
   </g>
  </g>
  <g id="svg_137">
   <g id="svg_138">
    <g id="svg_139">
     <path id="svg_140" d="m4780.97782,1046.83786c-3.4,3.1 -6.8,6.3 -10.2,9.4c0.9,4.5 1.8,9.1 2.7,13.6c-3.6,-2 -7.1,-4 -10.7,-6l-2.7,0c-3.6,2 -7.1,4 -10.7,6c0.9,-4.5 1.8,-9 2.7,-13.6c-3.4,-3.1 -6.8,-6.3 -10.2,-9.4c4.6,-0.5 9.2,-1.1 13.8,-1.6c1.9,-4.2 3.9,-8.4 5.8,-12.6c1.9,4.2 3.9,8.4 5.8,12.6c4.5,0.5 9.1,1.1 13.7,1.6z" class="st0"/>
     <path id="svg_141" d="m4795.57782,1343.93786l0.8,1.7c0,0.1 0,0.2 0,0.2c0,0.3 -0.3,0.4 -0.5,0.4l-5.8,-0.8c-0.2,0 -0.5,0.1 -0.5,0.4c0,0.1 0,0.2 0,0.2l3.9,8.6c0.1,0.2 0.4,0.3 0.6,0.2c0.1,0 0.1,-0.1 0.2,-0.2l3.3,-4.9c0.1,-0.1 0.1,-0.1 0.2,-0.2c0.2,-0.1 0.5,0 0.6,0.2l0.8,1.7c0.1,0.2 0.4,0.3 0.6,0.2l15.5,-7c0.2,-0.1 0.3,-0.4 0.2,-0.6l-0.8,-1.7c0,-0.1 -0.1,-0.2 0,-0.2c0,-0.3 0.3,-0.4 0.5,-0.4l5.8,0.8c0.2,0 0.5,-0.1 0.5,-0.4c0,-0.1 0,-0.2 0,-0.2l-3.9,-8.6c-0.1,-0.2 -0.4,-0.3 -0.6,-0.2c-0.1,0 -0.1,0.1 -0.2,0.2l-3.3,4.9c0,0.1 -0.1,0.1 -0.2,0.2c-0.2,0.1 -0.5,0 -0.6,-0.2l-0.8,-1.7c-0.1,-0.2 -0.4,-0.3 -0.6,-0.2l-15.5,7c-0.2,0.1 -0.3,0.4 -0.2,0.6zm-20.8,-158.1l1.4,0.6c0.2,0.1 0.4,0 0.5,-0.2l5.7,-12.4c0.1,-0.2 0,-0.4 -0.2,-0.5l-1.4,-0.6c-0.1,0 -0.1,-0.1 -0.1,-0.1c-0.1,-0.2 -0.1,-0.4 0.1,-0.5l3.9,-2.6c0.2,-0.1 0.2,-0.3 0.1,-0.5c0,-0.1 -0.1,-0.1 -0.2,-0.1l-6.9,-3.2c-0.2,-0.1 -0.4,0 -0.5,0.2c0,0.1 0,0.1 0,0.2l0.6,4.7c0,0.1 0,0.1 0,0.2c-0.1,0.2 -0.3,0.3 -0.5,0.2l-1.4,-0.6c-0.2,-0.1 -0.4,0 -0.5,0.2l-5.7,12.4c-0.1,0.2 0,0.4 0.2,0.5l1.4,0.6c0.1,0 0.1,0.1 0.2,0.1c0.1,0.2 0.1,0.4 -0.1,0.5l-4,2.5c-0.2,0.1 -0.2,0.3 -0.1,0.5c0,0 0.1,0.1 0.2,0.1l6.9,3.2c0.2,0.1 0.4,0 0.5,-0.2c0,-0.1 0,-0.1 0,-0.2l-0.6,-4.7c0,-0.1 0,-0.1 0,-0.2c0.1,-0.1 0.3,-0.2 0.5,-0.1zm-9.6,113.6l1.5,-1.3c0.1,-0.1 0.1,-0.1 0.2,-0.1c0.3,0 0.5,0.1 0.5,0.4l0.9,6.2c0,0.3 0.3,0.4 0.5,0.4c0.1,0 0.2,0 0.2,-0.1l7.7,-6.4c0.2,-0.2 0.2,-0.5 0.1,-0.7c-0.1,-0.1 -0.1,-0.1 -0.2,-0.1l-5.9,-2c-0.1,0 -0.2,-0.1 -0.2,-0.1c-0.2,-0.2 -0.2,-0.5 0,-0.7l1.5,-1.3c0.2,-0.2 0.2,-0.5 0.1,-0.7l-11.6,-13.8c-0.2,-0.2 -0.5,-0.2 -0.7,-0.1l-1.5,1.3c-0.1,0.1 -0.2,0.1 -0.2,0.1c-0.3,0 -0.5,-0.1 -0.5,-0.4l-0.9,-6.2c0,-0.3 -0.3,-0.4 -0.5,-0.4c-0.1,0 -0.2,0 -0.2,0.1l-7.7,6.4c-0.2,0.2 -0.2,0.5 0,0.7c0,0.1 0.1,0.1 0.2,0.1l5.9,2c0.1,0 0.2,0.1 0.2,0.1c0.2,0.2 0.1,0.5 -0.1,0.7l-1.5,1.3c-0.2,0.2 -0.2,0.5 -0.1,0.7l11.6,13.8c0.2,0.2 0.5,0.2 0.7,0.1zm-62.8,15.5l2.5,6.4c0.1,0.3 0.4,0.4 0.7,0.3c0.1,0 0.2,-0.1 0.2,-0.2l6.7,-8.9c0.2,-0.2 0.1,-0.6 -0.1,-0.7c-0.1,-0.1 -0.2,-0.1 -0.3,-0.1l-6.9,-0.7c-0.1,0 -0.2,-0.1 -0.3,-0.1c-0.2,-0.2 -0.3,-0.5 -0.1,-0.7l1.3,-1.8c0.2,-0.2 0.1,-0.6 -0.1,-0.7l-16,-12.1c-0.2,-0.2 -0.6,-0.1 -0.7,0.1l-1.4,1.8c-0.1,0.1 -0.1,0.1 -0.2,0.2c-0.3,0.1 -0.6,0 -0.7,-0.3l-2.5,-6.5c-0.1,-0.3 -0.4,-0.4 -0.7,-0.3c-0.1,0 -0.2,0.1 -0.2,0.2l-6.7,8.9c-0.2,0.2 -0.1,0.6 0.1,0.7c0.1,0.1 0.2,0.1 0.3,0.1l6.9,0.7c0.1,0 0.2,0 0.3,0.1c0.2,0.2 0.3,0.5 0.1,0.7l-1.3,1.8c-0.2,0.2 -0.1,0.6 0.1,0.7l16,12.1c0.2,0.2 0.6,0.1 0.7,-0.1l1.3,-1.8c0.1,-0.1 0.1,-0.1 0.2,-0.2c0.4,0 0.7,0.2 0.8,0.4zm209.8,9.1c-1.4,1.8 -2.8,3.6 -4.4,5.4c-2.5,2.8 -5.4,5.4 -8.5,7.7c-3.2,2.3 -6.6,4.3 -10.1,5.9c-4,1.7 -8.1,3 -12.4,3.7c-3.8,0.6 -7.7,0.7 -11.6,0.7c2.4,0.9 4.8,1.8 7.3,2.4c4.4,1 9,1 13.6,1c-5.2,4.4 -10.4,6.4 -15.7,7.6c-5.3,1.2 -10.6,1.5 -16,1.1c-8.3,-0.5 -16.5,-2.7 -24.7,-8.2c-3.1,3.4 -6.3,6.9 -10.1,9.1c-5.9,3.5 -13.5,4.3 -20.7,3.9c-7.8,-0.4 -15.1,-2.1 -22.5,-3.7c0,6.1 0,12.3 0,30.6c-10,0 -20.1,0 -30.1,0c0,-15.9 0,-23.2 0,-30.6c-7.3,1.7 -14.7,3.3 -22.4,3.7c-7.2,0.4 -14.8,-0.4 -20.7,-3.9c-3.8,-2.3 -7,-5.7 -10.1,-9.1c-8.2,5.4 -16.3,7.6 -24.7,8.2c-5.3,0.4 -10.7,0.1 -16,-1.1c-5.3,-1.2 -10.5,-3.2 -15.7,-7.6c4.6,0 9.2,0.1 13.6,-1c2.5,-0.6 4.9,-1.5 7.3,-2.4c-3.9,-0.1 -7.8,-0.2 -11.6,-0.7c-4.3,-0.6 -8.4,-1.9 -12.4,-3.7c-3.6,-1.6 -7,-3.6 -10.2,-5.9c-3.1,-2.3 -6,-4.8 -8.5,-7.7c-1.5,-1.7 -3,-3.6 -4.4,-5.4c22.7,2.1 44.8,-3.5 63.7,-16.2c-4.7,-1.3 -9.3,-2.5 -13.5,-4.8c-4.2,-2.3 -7.9,-5.6 -11.4,-9.1c-2.2,-2.2 -4.3,-4.4 -6.1,-6.9c-1,-1.4 -2,-3 -2.9,-4.5c2.7,0.5 5.4,1 8.1,1.4c5,0.9 9.9,1.7 15.1,1.8c5.4,0.1 11,-0.5 16.1,-2.1c4.7,-1.5 8.9,-3.8 12.7,-6.9c4,-3.3 7.5,-7.3 10.9,-11.4c-3.8,-0.3 -7.5,-0.6 -11.1,-1.5c-4.8,-1.2 -9.4,-3.4 -13.8,-5.8c-2.7,-1.4 -5.3,-3 -7.8,-4.6c-1.6,-1 -3.1,-2 -4.7,-3.1c5.6,-1.1 11.2,-2.2 16.7,-3.7c5.2,-1.4 10.3,-3.1 15.1,-5.5c5.2,-2.7 9.9,-6.3 14,-10.3c3.9,-3.8 7.4,-8.1 10.9,-12.4c-5.1,-1 -10.1,-2 -15.1,-3.5c-3.9,-1.2 -7.8,-2.7 -11.3,-4.9c-2.1,-1.3 -4,-2.8 -6,-4.3c-1.6,-1.3 -3.2,-2.5 -4.8,-3.8c6.6,-0.7 13.2,-1.5 19.6,-2.8c5.4,-1.1 10.7,-2.7 15.9,-4.6c3.6,-1.3 7.2,-2.8 10.5,-4.8c2,-1.3 3.8,-2.7 5.7,-4.2c-3.8,-1.5 -7.6,-3 -11,-5.1c-3.2,-1.9 -6.1,-4.2 -8.9,-6.5c-1.9,-1.5 -3.7,-3.1 -5.3,-4.9c-1.2,-1.3 -2.2,-2.6 -3.3,-4c7.6,-0.9 15.3,-2.9 21.1,-6.7c6.7,-4.4 11,-11.1 14.1,-18.7c2.1,-5.1 3.7,-10.7 4.9,-16.3c0.6,-3 1.1,-5.9 1.4,-9c-2.2,2.6 -3.5,3.4 -5,4.2c-3.5,1.8 -7.7,3.2 -13.3,3.3c3.4,-2.7 6.9,-5.3 9.7,-8.5c4,-4.5 7,-10.1 9.1,-15.8c0.6,-1.7 1.2,-3.4 1.7,-5.1c-1.4,2.4 -2.2,3.6 -3.3,4.6c-2.2,2.1 -5.5,3.2 -10.7,3.2c3.1,-2.1 6.2,-4.3 8.6,-7c3.3,-3.7 5.4,-8.6 7.3,-13.4c2.1,-5.3 3.9,-10.6 5.7,-15.9l2.7,0c1.8,5.3 3.6,10.6 5.7,15.9c1.9,4.8 4,9.6 7.3,13.4c2.4,2.7 5.5,4.8 8.6,7c-5.3,0 -8.5,-1.1 -10.7,-3.2c-1,-1 -1.9,-2.2 -3.3,-4.6c0.5,1.7 1.1,3.4 1.7,5.1c2.1,5.7 5,11.3 9.1,15.8c2.9,3.2 6.3,5.9 9.7,8.5c-5.6,0 -9.8,-1.4 -13.3,-3.3c-1.4,-0.7 -2.7,-1.5 -5,-4.2c0.2,3.1 0.7,6.1 1.4,9c1.2,5.6 2.8,11.1 4.9,16.3c3.1,7.7 7.4,14.4 14.1,18.7c5.8,3.8 13.5,5.8 21.1,6.7c-1.1,1.4 -2.1,2.8 -3.3,4c-1.6,1.8 -3.5,3.3 -5.3,4.9c-2.9,2.3 -5.8,4.6 -8.9,6.5c-3.5,2 -7.3,3.6 -11.1,5.1c1.9,1.5 3.7,2.9 5.7,4.2c3.2,2 6.8,3.5 10.5,4.8c5.2,1.9 10.5,3.5 15.9,4.6c6.5,1.4 13,2.1 19.6,2.8c-1.6,1.3 -3.2,2.5 -4.8,3.8c-1.9,1.5 -3.9,3 -6,4.3c-3.5,2.2 -7.4,3.7 -11.3,4.9c-5,1.5 -10,2.5 -15.1,3.5c3.5,4.3 6.9,8.5 10.9,12.4c4.2,4.1 8.9,7.6 14,10.3c4.8,2.5 9.9,4.1 15.1,5.5c5.5,1.5 11.1,2.6 16.7,3.7c-1.5,1 -3.1,2.1 -4.7,3.1c-2.5,1.6 -5.2,3.1 -7.8,4.6c-4.4,2.4 -9,4.7 -13.8,5.8c-3.6,0.9 -7.4,1.2 -11.1,1.5c3.5,4.1 6.9,8.1 10.9,11.4c3.7,3 8,5.4 12.7,6.9c5.1,1.6 10.7,2.3 16.1,2.1c5.2,-0.1 10.2,-1 15.1,-1.8c2.7,-0.5 5.4,-1 8.1,-1.4c-0.9,1.5 -1.9,3 -2.9,4.5c-1.8,2.5 -3.9,4.7 -6.1,6.9c-3.5,3.5 -7.1,6.8 -11.4,9.1c-4.1,2.3 -8.8,3.5 -13.5,4.8c19.4,12.6 41.5,18.3 64.2,16.2zm-59.4,7.7c0,-3.9 -3.2,-7.1 -7.1,-7.1c-3.9,0 -7.1,3.2 -7.1,7.1c0,3.9 3.2,7.1 7.1,7.1c3.9,0 7.1,-3.2 7.1,-7.1zm-36.2,-50.8c0,-4.2 -3.4,-7.6 -7.6,-7.6s-7.6,3.4 -7.6,7.6s3.4,7.6 7.6,7.6s7.6,-3.4 7.6,-7.6zm-12.6,-31.7c0,-2.9 -2.4,-5.3 -5.3,-5.3c-2.9,0 -5.3,2.4 -5.3,5.3c0,2.9 2.4,5.3 5.3,5.3c2.9,0 5.3,-2.4 5.3,-5.3zm-4,69.9c0,-5.6 -4.5,-10.1 -10.1,-10.1c-5.6,0 -10.1,4.5 -10.1,10.1s4.5,10.1 10.1,10.1c5.6,0 10.1,-4.5 10.1,-10.1zm-15.8,-103.2c0,-4.2 -3.4,-7.6 -7.6,-7.6c-4.2,0 -7.6,3.4 -7.6,7.6c0,4.2 3.4,7.6 7.6,7.6c4.2,-0.1 7.6,-3.4 7.6,-7.6zm-13.5,37.8l5.1,-4.7l-6.9,-0.8l-2.9,-6.3l-2.9,6.3l-6.9,0.8l5.1,4.7l-1.3,6.8l6,-3.4l6,3.4l-1.3,-6.8zm-3.2,82l4.3,-4l-5.8,-0.7l-2.5,-5.4l-2.5,5.4l-5.8,0.7l4.3,4l-1.1,5.7l5.1,-2.9l5.1,2.9l-1.1,-5.7zm4.7,-200.6c0,-4.2 -3.4,-7.6 -7.6,-7.6c-4.2,0 -7.6,3.4 -7.6,7.6c0,4.2 3.4,7.6 7.6,7.6c4.2,-0.1 7.6,-3.4 7.6,-7.6zm-16.4,29.2l4.3,-4l-5.9,-0.7l-2.5,-5.3l-2.5,5.3l-5.8,0.7l4.3,4l-1.1,5.8l5.1,-2.9l5.1,2.9l-1,-5.8zm-6.6,57.8l5.1,-4.7l-6.9,-0.8l-2.9,-6.3l-2.9,6.3l-6.9,0.8l5.1,4.7l-1.3,6.8l6,-3.4l6,3.4l-1.3,-6.8zm4.9,-30.4c0,-2.9 -2.4,-5.3 -5.3,-5.3c-2.9,0 -5.3,2.4 -5.3,5.3c0,2.9 2.4,5.3 5.3,5.3c2.9,-0.1 5.3,-2.4 5.3,-5.3zm-13.4,141.4c0,-3.9 -3.2,-7.1 -7.1,-7.1c-3.9,0 -7.1,3.2 -7.1,7.1c0,3.9 3.2,7.1 7.1,7.1c4,0 7.1,-3.2 7.1,-7.1zm-2.7,-76.4c0,-4.2 -3.4,-7.6 -7.6,-7.6c-4.2,0 -7.6,3.4 -7.6,7.6c0,4.2 3.4,7.6 7.6,7.6c4.2,-0.1 7.6,-3.4 7.6,-7.6zm-8.3,35.6l5.1,-4.7l-6.9,-0.8l-2.9,-6.3l-2.9,6.3l-6.9,0.8l5.1,4.7l-1.3,6.8l6,-3.4l6,3.4l-1.3,-6.8zm-38,39.6c0,-5.6 -4.5,-10.1 -10.1,-10.1s-10.1,4.5 -10.1,10.1c0,5.6 4.5,10.1 10.1,10.1s10.1,-4.6 10.1,-10.1z" class="st0"/>
    </g>
    <g id="svg_142">
     <path id="svg_143" d="m4760.07782,1063.83786c-1.8,5.3 -3.6,10.6 -5.7,15.9c-1.9,4.8 -3.9,9.6 -7.3,13.4c-2.4,2.7 -5.5,4.8 -8.6,7c5.3,0 8.5,-1.1 10.7,-3.2c1,-1 1.9,-2.2 3.3,-4.6c-0.5,1.7 -1.1,3.4 -1.7,5.1c-2.1,5.7 -5,11.3 -9.1,15.8c-2.9,3.2 -6.3,5.9 -9.7,8.5c5.6,0 9.8,-1.4 13.3,-3.3c1.4,-0.7 2.7,-1.5 5,-4.2c-0.2,3.1 -0.8,6.1 -1.4,9c-1.2,5.6 -2.8,11.1 -4.9,16.3c-3.1,7.7 -7.4,14.4 -14.1,18.7c-5.8,3.8 -13.5,5.8 -21.1,6.7c1.1,1.4 2.1,2.8 3.3,4c1.6,1.8 3.5,3.3 5.3,4.9c2.8,2.3 5.8,4.6 8.9,6.5c3.5,2 7.3,3.6 11,5.1c-1.9,1.5 -3.7,2.9 -5.7,4.2c-3.3,2 -6.8,3.5 -10.5,4.8c-5.2,1.9 -10.5,3.5 -15.9,4.6c-6.5,1.4 -13.1,2.1 -19.6,2.8c1.6,1.3 3.2,2.5 4.8,3.8c1.9,1.5 3.9,3 6,4.3c3.5,2.2 7.4,3.7 11.3,4.9c5,1.5 10,2.5 15.1,3.5c-3.5,4.3 -6.9,8.5 -10.9,12.4c-4.2,4.1 -8.9,7.6 -14,10.3c-4.8,2.5 -9.9,4.1 -15.1,5.5c-5.5,1.5 -11.1,2.6 -16.7,3.7c1.6,1 3.1,2.1 4.7,3.1c2.5,1.6 5.1,3.1 7.8,4.6c4.4,2.4 8.9,4.7 13.8,5.8c3.6,0.9 7.4,1.2 11.1,1.5c-3.5,4.1 -6.9,8.1 -10.9,11.4c-3.7,3 -8,5.4 -12.7,6.9c-5.1,1.6 -10.7,2.3 -16.1,2.1c-5.2,-0.1 -10.2,-1 -15.1,-1.8c-2.7,-0.5 -5.4,-1 -8.1,-1.4c0.9,1.5 1.9,3 2.9,4.5c1.8,2.5 3.9,4.7 6.1,6.9c3.4,3.5 7.1,6.8 11.4,9.1c4.1,2.3 8.8,3.5 13.5,4.8c-18.9,12.7 -41,18.3 -63.7,16.2c1.4,1.8 2.8,3.6 4.4,5.4c2.5,2.8 5.4,5.4 8.5,7.7c3.2,2.3 6.6,4.3 10.2,5.9c3.9,1.7 8.1,3 12.4,3.7c3.8,0.6 7.7,0.7 11.6,0.7c-2.4,0.9 -4.8,1.8 -7.3,2.4c-4.4,1 -9,1 -13.6,1c5.2,4.4 10.4,6.4 15.7,7.6c5.3,1.2 10.7,1.5 16,1.1c8.3,-0.5 16.5,-2.7 24.7,-8.2c3.1,3.4 6.3,6.9 10.1,9.1c5.9,3.5 13.5,4.3 20.7,3.9c7.8,-0.4 15.1,-2.1 22.4,-3.7c0,7.4 0,14.7 0,30.6c10,0 20.1,0 30.1,0c0,-18.3 0,-24.5 0,-30.6c7.3,1.7 14.7,3.3 22.5,3.7c7.2,0.4 14.8,-0.4 20.7,-3.9c3.8,-2.3 7,-5.7 10.1,-9.1c8.2,5.4 16.3,7.6 24.7,8.2c5.3,0.4 10.7,0.1 16,-1.1c5.3,-1.2 10.5,-3.2 15.7,-7.6c-4.6,0 -9.2,0.1 -13.6,-1c-2.5,-0.6 -4.9,-1.5 -7.3,-2.4c3.9,-0.1 7.8,-0.2 11.6,-0.7c4.3,-0.6 8.4,-1.9 12.4,-3.7c3.6,-1.6 7,-3.6 10.1,-5.9c3.1,-2.3 6,-4.8 8.5,-7.7c1.5,-1.7 3,-3.6 4.4,-5.4c-22.7,2.1 -44.8,-3.5 -63.7,-16.2c4.7,-1.3 9.3,-2.5 13.5,-4.8c4.2,-2.3 7.9,-5.6 11.4,-9.1c2.2,-2.2 4.3,-4.4 6.1,-6.9c1.1,-1.4 2,-3 2.9,-4.5c-2.7,0.5 -5.4,1 -8.1,1.4c-5,0.9 -10,1.7 -15.1,1.8c-5.4,0.1 -11.1,-0.5 -16.1,-2.1c-4.7,-1.5 -9,-3.8 -12.7,-6.9c-4,-3.3 -7.5,-7.3 -10.9,-11.4c3.8,-0.3 7.5,-0.6 11.1,-1.5c4.8,-1.2 9.4,-3.4 13.8,-5.8c2.7,-1.4 5.3,-3 7.8,-4.6c1.6,-1 3.1,-2 4.7,-3.1c-5.6,-1.1 -11.2,-2.2 -16.7,-3.7c-5.2,-1.4 -10.3,-3.1 -15.1,-5.5c-5.2,-2.7 -9.9,-6.3 -14,-10.3c-4,-3.8 -7.4,-8.1 -10.9,-12.4c5.1,-1 10.1,-2 15.1,-3.5c4,-1.2 7.8,-2.7 11.3,-4.9c2.1,-1.3 4,-2.8 6,-4.3c1.6,-1.3 3.2,-2.5 4.8,-3.8c-6.6,-0.7 -13.2,-1.5 -19.6,-2.8c-5.4,-1.1 -10.7,-2.7 -15.9,-4.6c-3.6,-1.3 -7.2,-2.8 -10.5,-4.8c-2,-1.3 -3.8,-2.7 -5.7,-4.2c3.8,-1.5 7.6,-3 11.1,-5.1c3.2,-1.9 6.1,-4.2 8.9,-6.5c1.9,-1.5 3.7,-3.1 5.3,-4.9c1.2,-1.3 2.3,-2.6 3.3,-4c-7.6,-0.9 -15.3,-2.9 -21.1,-6.7c-6.7,-4.4 -11,-11.1 -14.1,-18.7c-2.1,-5.1 -3.7,-10.7 -4.9,-16.3c-0.6,-3 -1.1,-5.9 -1.4,-9c2.2,2.6 3.5,3.4 5,4.2c3.5,1.8 7.7,3.2 13.3,3.3c-3.4,-2.7 -6.9,-5.3 -9.7,-8.5c-4.1,-4.5 -7,-10.1 -9.1,-15.8c-0.6,-1.7 -1.2,-3.4 -1.7,-5.1c1.4,2.4 2.2,3.6 3.3,4.6c2.2,2.1 5.4,3.2 10.7,3.2c-3.1,-2.1 -6.2,-4.3 -8.6,-7c-3.3,-3.7 -5.4,-8.6 -7.3,-13.4c-2.1,-5.3 -3.9,-10.6 -5.7,-15.9c3.6,2 7.1,4 10.7,6c-0.9,-4.5 -1.8,-9 -2.7,-13.6c3.4,-3.1 6.8,-6.3 10.2,-9.4c-4.6,-0.5 -9.2,-1.1 -13.8,-1.6c-1.9,-4.2 -3.9,-8.4 -5.8,-12.6c-1.9,4.2 -3.9,8.4 -5.8,12.6c-4.6,0.5 -9.2,1.1 -13.8,1.6c3.4,3.1 6.8,6.3 10.2,9.4c-0.9,4.5 -1.8,9.1 -2.7,13.6c3.1,-2 6.7,-4 10.3,-6z" class="st1"/>
     <polygon id="svg_144" points="4729.677978515625,1292.337890625 4731.077880859375,1299.137939453125 4724.977783203125,1295.73779296875 4718.977783203125,1299.137939453125 4720.277587890625,1292.337890625 4715.277587890625,1287.637939453125 4722.077880859375,1286.837890625 4724.977783203125,1280.537841796875 4727.877685546875,1286.837890625 4734.777587890625,1287.637939453125 " class="st1"/>
     <polygon id="svg_145" points="4770.677978515625,1253.73779296875 4772.077880859375,1260.537841796875 4765.977783203125,1257.137939453125 4759.977783203125,1260.537841796875 4761.277587890625,1253.73779296875 4756.277587890625,1249.037841796875 4763.077880859375,1248.2379150390625 4765.977783203125,1241.9378662109375 4768.877685546875,1248.2379150390625 4775.777587890625,1249.037841796875 " class="st1"/>
     <polygon id="svg_146" points="4749.177490234375,1222.137939453125 4750.477783203125,1228.9378662109375 4744.477783203125,1225.537841796875 4738.477783203125,1228.9378662109375 4739.777587890625,1222.137939453125 4734.677978515625,1217.4378662109375 4741.577392578125,1216.537841796875 4744.477783203125,1210.337890625 4747.377685546875,1216.537841796875 4754.277587890625,1217.4378662109375 " class="st1"/>
     <polygon id="svg_147" points="4755.777587890625,1164.337890625 4756.877685546875,1170.137939453125 4751.777587890625,1167.2379150390625 4746.677978515625,1170.137939453125 4747.777587890625,1164.337890625 4743.477783203125,1160.337890625 4749.277587890625,1159.637939453125 4751.777587890625,1154.337890625 4754.277587890625,1159.637939453125 4760.077880859375,1160.337890625 " class="st1"/>
     <path id="svg_148" d="m4779.77782,1319.13786c0,-5.6 4.5,-10.1 10.1,-10.1c5.6,0 10.1,4.5 10.1,10.1s-4.5,10.1 -10.1,10.1c-5.5,0 -10.1,-4.5 -10.1,-10.1z" class="st1"/>
     <circle id="svg_149" r="10.1" cy="1331.93786" cx="4681.57782" class="st1"/>
     <ellipse id="svg_150" ry="7.1" rx="7.1" cy="1333.13786" cx="4733.67782" class="st1"/>
     <ellipse id="svg_151" ry="7.1" rx="7.1" cy="1331.73786" cx="4845.67782" class="st1"/>
     <circle id="svg_152" r="7.6" cy="1280.93786" cx="4809.07782" class="st1"/>
     <path id="svg_153" d="m4722.87782,1256.73786c0,-4.2 3.4,-7.6 7.6,-7.6c4.2,0 7.6,3.4 7.6,7.6c0,4.2 -3.4,7.6 -7.6,7.6c-4.2,-0.1 -7.6,-3.4 -7.6,-7.6z" class="st1"/>
     <path id="svg_154" d="m4769.07782,1215.93786c0,-4.2 3.4,-7.6 7.6,-7.6c4.2,0 7.6,3.4 7.6,7.6c0,4.2 -3.4,7.6 -7.6,7.6c-4.3,-0.1 -7.6,-3.4 -7.6,-7.6z" class="st1"/>
     <path id="svg_155" d="m4757.07782,1135.13786c0,-4.2 3.4,-7.6 7.6,-7.6c4.2,0 7.6,3.4 7.6,7.6c0,4.2 -3.4,7.6 -7.6,7.6c-4.2,-0.1 -7.6,-3.4 -7.6,-7.6z" class="st1"/>
     <path id="svg_156" d="m4743.47782,1191.73786c0,-2.9 2.4,-5.3 5.3,-5.3c2.9,0 5.3,2.4 5.3,5.3c0,2.9 -2.4,5.3 -5.3,5.3c-2.9,-0.1 -5.3,-2.4 -5.3,-5.3z" class="st1"/>
     <path id="svg_157" d="m4793.37782,1249.23786c0,-2.9 2.4,-5.3 5.3,-5.3c2.9,0 5.3,2.4 5.3,5.3c0,2.9 -2.4,5.3 -5.3,5.3c-2.9,0 -5.3,-2.4 -5.3,-5.3z" class="st1"/>
     <polygon id="svg_158" points="4767.477783203125,1335.73779296875 4768.577392578125,1341.4378662109375 4763.477783203125,1338.637939453125 4758.377685546875,1341.4378662109375 4759.477783203125,1335.73779296875 4755.177490234375,1331.73779296875 4760.977783203125,1331.037841796875 4763.477783203125,1325.637939453125 4765.977783203125,1331.037841796875 4771.777587890625,1331.73779296875 " class="st1"/>
     <path id="svg_159" d="m4777.17782,1171.13786l-1.4,-0.6c-0.2,-0.1 -0.4,0 -0.5,0.2l-5.7,12.4c-0.1,0.2 0,0.4 0.2,0.5l1.4,0.6c0.1,0 0.1,0.1 0.2,0.1c0.1,0.2 0.1,0.4 -0.1,0.5l-3.9,2.6c-0.2,0.1 -0.2,0.3 -0.1,0.5c0,0 0.1,0.1 0.2,0.1l6.9,3.2c0.2,0.1 0.4,0 0.5,-0.2c0,-0.1 0,-0.1 0,-0.2l-0.6,-4.7c0,-0.1 0,-0.1 0,-0.2c0.1,-0.2 0.3,-0.3 0.5,-0.2l1.4,0.6c0.2,0.1 0.4,0 0.5,-0.2l5.7,-12.4c0.1,-0.2 0,-0.4 -0.2,-0.5l-1.4,-0.6c-0.1,0 -0.1,-0.1 -0.1,-0.1c-0.1,-0.2 -0.1,-0.4 0.1,-0.5l3.9,-2.6c0.2,-0.1 0.2,-0.3 0.1,-0.5c0,-0.1 -0.1,-0.1 -0.2,-0.1l-6.9,-3.2c-0.2,-0.1 -0.4,0 -0.5,0.2c0,0.1 0,0.1 0,0.2l0.6,4.7c0,0.1 0,0.1 0,0.2c-0.2,0.2 -0.4,0.3 -0.6,0.2z" class="st1"/>
     <path id="svg_160" d="m4754.47782,1283.53786l-1.5,1.3c-0.2,0.2 -0.2,0.5 -0.1,0.7l11.6,13.8c0.2,0.2 0.5,0.2 0.7,0.1l1.5,-1.3c0.1,-0.1 0.1,-0.1 0.2,-0.1c0.3,0 0.5,0.1 0.5,0.4l0.9,6.2c0,0.3 0.3,0.4 0.5,0.4c0.1,0 0.2,0 0.2,-0.1l7.7,-6.4c0.2,-0.2 0.2,-0.5 0.1,-0.7c-0.1,-0.1 -0.1,-0.1 -0.2,-0.1l-5.9,-2c-0.1,0 -0.2,-0.1 -0.2,-0.1c-0.2,-0.2 -0.2,-0.5 0,-0.7l1.5,-1.3c0.2,-0.2 0.2,-0.5 0.1,-0.7l-11.6,-13.8c-0.2,-0.2 -0.5,-0.2 -0.7,-0.1l-1.5,1.3c-0.1,0.1 -0.2,0.1 -0.2,0.1c-0.3,0 -0.5,-0.1 -0.5,-0.4l-0.9,-6.2c0,-0.3 -0.3,-0.4 -0.5,-0.4c-0.1,0 -0.2,0 -0.2,0.1l-7.7,6.4c-0.2,0.2 -0.2,0.5 0,0.7c0,0.1 0.1,0.1 0.2,0.1l5.9,2c0.1,0 0.2,0.1 0.2,0.1c0.2,0.3 0.1,0.6 -0.1,0.7z" class="st1"/>
     <path id="svg_161" d="m4812.67782,1338.33786l-0.8,-1.7c-0.1,-0.2 -0.4,-0.3 -0.6,-0.2l-15.5,7c-0.2,0.1 -0.3,0.4 -0.2,0.6l0.8,1.7c0,0.1 0,0.2 0,0.2c0,0.3 -0.3,0.4 -0.5,0.4l-5.8,-0.8c-0.2,0 -0.5,0.1 -0.5,0.4c0,0.1 0,0.2 0,0.2l3.9,8.6c0.1,0.2 0.4,0.3 0.6,0.2c0.1,0 0.1,-0.1 0.2,-0.2l3.3,-4.9c0.1,-0.1 0.1,-0.1 0.2,-0.2c0.2,-0.1 0.5,0 0.6,0.2l0.8,1.7c0.1,0.2 0.4,0.3 0.6,0.2l15.5,-7c0.2,-0.1 0.3,-0.4 0.2,-0.6l-0.8,-1.7c0,-0.1 -0.1,-0.2 0,-0.2c0,-0.3 0.3,-0.4 0.5,-0.4l5.8,0.8c0.2,0 0.5,-0.1 0.5,-0.4c0,-0.1 0,-0.2 0,-0.2l-3.9,-8.6c-0.1,-0.2 -0.4,-0.3 -0.6,-0.2c-0.1,0 -0.1,0.1 -0.2,0.2l-3.3,4.9c0,0.1 -0.1,0.1 -0.2,0.2c-0.2,0.1 -0.5,0 -0.6,-0.2z" class="st1"/>
     <path id="svg_162" d="m4704.87782,1310.33786l1.3,-1.8c0.2,-0.2 0.1,-0.6 -0.1,-0.7l-16,-12.1c-0.2,-0.2 -0.6,-0.1 -0.7,0.1l-1.4,1.8c-0.1,0.1 -0.1,0.1 -0.2,0.2c-0.3,0.1 -0.6,0 -0.7,-0.3l-2.5,-6.5c-0.1,-0.3 -0.4,-0.4 -0.7,-0.3c-0.1,0 -0.2,0.1 -0.2,0.2l-6.7,8.9c-0.2,0.2 -0.1,0.6 0.1,0.7c0.1,0.1 0.2,0.1 0.3,0.1l6.9,0.7c0.1,0 0.2,0 0.3,0.1c0.2,0.2 0.3,0.5 0.1,0.7l-1.3,1.8c-0.2,0.2 -0.1,0.6 0.1,0.7l16,12.1c0.2,0.2 0.6,0.1 0.7,-0.1l1.3,-1.8c0.1,-0.1 0.1,-0.1 0.2,-0.2c0.3,-0.1 0.6,0 0.7,0.3l2.5,6.4c0.1,0.3 0.4,0.4 0.7,0.3c0.1,0 0.2,-0.1 0.2,-0.2l6.7,-8.9c0.2,-0.2 0.1,-0.6 -0.1,-0.7c-0.1,-0.1 -0.2,-0.1 -0.3,-0.1l-6.9,-0.7c-0.1,0 -0.2,-0.1 -0.3,-0.1c-0.1,-0.1 -0.2,-0.4 0,-0.6z" class="st1"/>
    </g>
   </g>
  </g>
  <g id="svg_163">
   <g id="svg_164">
    <g id="svg_165">
     <path id="svg_166" d="m4299.48308,1047.61773c37.7,-11.4 68.7,-38.6 84.8,-74.6c-14.6,10.4 -34,11.2 -49.3,1.8c15.7,-3.2 30,-11.3 40.8,-23.3c-14.4,7 -31.3,6.1 -44.8,-2.5c31.5,-14.7 57.1,-39.2 73.1,-69.8l2.5,0.5c1.4,5.3 3.1,10.6 5.1,15.7c-3.5,-1.8 -7.5,-1.3 -12,1.6c-4.4,2.9 -6,6 -4.6,9.2c1.3,3.3 4.5,4.3 9.6,3c5.1,-1.3 8.3,-3.8 9.5,-7.7c1.7,3.9 3.6,7.8 5.6,11.5c-3.8,-1.3 -7.6,-0.3 -11.7,3.1c-4,3.4 -5.2,6.7 -3.5,9.7c1.7,3.1 5.1,3.6 10,1.7c4.9,-1.9 7.7,-4.8 8.5,-8.8c2.2,3.7 4.5,7.3 7,10.8c-3.9,-0.9 -7.6,0.7 -11.2,4.6s-4.3,7.3 -2.2,10.1c2.1,2.8 5.5,3 10.1,0.5c4.6,-2.5 7,-5.8 7.3,-9.8c2.4,3.1 4.9,6.1 7.6,8.9c0.2,0.3 0.5,0.6 0.8,0.8c-4,-0.3 -7.5,1.6 -10.5,6c-3,4.3 -3.3,7.8 -0.9,10.3c2.5,2.5 5.8,2.3 10.1,-0.8c4.3,-3.1 6.2,-6.6 5.9,-10.7c0.9,0.9 1.9,1.8 2.8,2.7c2.2,2 4.4,4 6.7,5.9c-4,0.1 -7.2,2.6 -9.7,7.3c-2.5,4.7 -2.3,8.1 0.4,10.3c2.8,2.2 6,1.5 9.9,-2.1c3.9,-3.6 5.4,-7.4 4.6,-11.4c0.2,0.2 0.4,0.3 0.7,0.5c3.2,2.4 6.5,4.7 9.8,6.9c-3.9,0.7 -6.8,3.5 -8.7,8.4c-1.8,5 -1.3,8.3 1.7,10.2c3,1.8 6.2,0.7 9.5,-3.3s4.4,-8 3.1,-11.8c3.7,2.1 7.5,4.1 11.4,6c-3.8,1.1 -6.3,4.3 -7.5,9.5c-1.2,5.1 -0.2,8.4 3,9.9c3.2,1.4 6.2,-0.1 9,-4.5c2.8,-4.4 3.3,-8.5 1.5,-12.1c5.2,2.2 10.6,4.1 16,5.7c0.3,-1.1 0.6,-2.2 0.9,-3.2l2.3,-1.3c17.1,30.9 45.7,54.1 79.7,64.5c-23.5,7.4 -48.3,9.4 -72.7,5.9c2.9,7.6 8.6,13.9 15.9,17.5c-16.6,0.8 -32.8,-5.4 -44.7,-17.1c0.7,10.2 5,19.8 12,27.2c-14.8,-1.8 -28.4,-8.6 -38.9,-19.1c-0.8,-0.8 -2,-0.8 -2.8,0c-0.5,0.5 -0.7,1.2 -0.5,1.9c2.4,10.1 2.7,20.6 0.8,30.9l-32.6,0c-1.8,-10.2 -1.5,-20.7 0.8,-30.9c0.3,-1.1 -0.4,-2.2 -1.5,-2.4c-0.7,-0.2 -1.4,0 -1.9,0.5c-10.5,10.6 -24.2,17.3 -38.9,19.1c7,-7.4 11.3,-17 12,-27.2c-11.8,11.7 -28,17.9 -44.6,17.1c7.3,-3.6 13,-9.9 15.9,-17.5c-24.7,3.6 -49.6,1.6 -73,-5.8zm64.6,-38.6c-0.5,1 -0.9,2.1 -1.3,3.1c1.2,0.5 2.3,1 3.5,1.5c-3.8,1.3 -6.3,4.6 -7.3,9.7c-1.1,5.1 0,8.4 3.3,9.6c3.3,1.3 6.3,-0.4 9,-4.9c2.7,-4.5 3.1,-8.5 1.2,-12.1c4.5,1.6 9,3 13.5,4.1c-3.6,1.8 -5.6,5.4 -5.9,10.6c-0.4,5.3 1.2,8.3 4.6,9.1c3.4,0.8 6.2,-1.2 8.3,-6.1c2.1,-4.9 1.9,-8.9 -0.4,-12.1c4.6,1 9.3,1.7 14,2.2c-3.3,2.3 -4.8,6.1 -4.4,11.4c0.4,5.3 2.3,8 5.8,8.3c3.5,0.3 5.9,-2.1 7.3,-7.2c1.4,-5.1 0.7,-9.1 -2.1,-12c4.7,0.3 9.4,0.4 14.2,0.3c-3,2.8 -3.9,6.7 -2.8,11.9c1.1,5.1 3.4,7.6 6.9,7.5c3.5,-0.2 5.6,-2.9 6.3,-8.1c0.7,-5.2 -0.6,-9.1 -3.7,-11.5c3.1,-0.2 6.1,-0.5 9.2,-0.9c1.6,-0.2 3.3,-0.5 4.9,-0.7c-2.6,3.1 -2.9,7.2 -1.2,12.1c1.8,4.9 4.4,7.1 7.8,6.4c3.5,-0.6 5.2,-3.6 5.1,-8.9c0,-5.3 -1.8,-8.9 -5.3,-10.9c4.6,-1 9.2,-2.2 13.7,-3.6c-2.1,3.5 -1.9,7.5 0.5,12.2c2.4,4.7 5.3,6.4 8.7,5.3c3.3,-1.1 4.6,-4.3 3.8,-9.5c-0.8,-5.2 -3,-8.6 -6.7,-10.1c4.4,-1.6 8.8,-3.4 13.1,-5.4c-1.6,3.7 -0.9,7.7 2.2,12c3.1,4.3 6.2,5.6 9.3,4.1c3.1,-1.6 4,-4.9 2.5,-9.9c-1.5,-5.1 -4.2,-8.1 -8.1,-9.1c4.2,-2.2 8.3,-4.6 12.2,-7.2c-1.1,3.9 0.2,7.8 3.8,11.6c3.6,3.8 6.9,4.7 9.8,2.7c2.9,-2 3.3,-5.4 1.1,-10.2s-5.2,-7.4 -9.2,-7.9c1.5,-1.1 2.9,-2.1 4.3,-3.2c-0.7,-0.9 -1.4,-1.8 -2.1,-2.7c-7,5.4 -14,10.1 -21.2,14.2c-6.2,3.5 -12.4,6.5 -18.7,9c-6.5,2.6 -13,4.6 -19.5,6.1c-3.7,0.9 -7.5,1.5 -11.3,2c-5.2,0.7 -10.4,1.1 -15.6,1.1c-6.7,0.1 -13.5,-0.4 -20.4,-1.3c-6.6,-0.9 -13.3,-2.4 -20,-4.3c-7.5,-2.2 -15.1,-5 -22.7,-8.3zm167.9,37.5c5.6,-1.4 8.9,-7.1 7.5,-12.6c-0.9,-3.7 -3.8,-6.6 -7.5,-7.5l0,-4.1l0,0c-1.5,-1.2 -3.6,-1.2 -5.2,0l0,4.1c-5.6,1.4 -8.9,7.1 -7.5,12.6s7.2,8.9 12.7,7.5zm-99.3,-37.1c5.6,-1.4 8.9,-7.1 7.5,-12.6c-0.9,-3.7 -3.8,-6.6 -7.5,-7.5l0,-4.1l0,0c-1.5,-1.2 -3.6,-1.2 -5.1,0l0,4.1c-5.6,1.4 -8.9,7.1 -7.5,12.6c1.4,5.6 7.1,8.9 12.6,7.5zm-34.2,-44.2c5.6,-1.4 8.9,-7.1 7.5,-12.6c-0.9,-3.7 -3.8,-6.6 -7.5,-7.5l0,-4.1l0,0c-1.5,-1.2 -3.6,-1.2 -5.1,0l0,4.1c-5.6,1.4 -8.9,7.1 -7.5,12.6c1.3,5.6 7,9 12.6,7.5z" class="st0"/>
     <path id="svg_167" d="m4488.38308,877.11773c15.9,31.6 42,57 74.2,72c-13.5,8.6 -30.5,9.5 -44.8,2.5c10.8,11.9 25,20.1 40.8,23.3c-15.3,9.3 -34.7,8.6 -49.3,-1.8c1.5,3.4 3.2,6.8 5,10.1l-2.3,1.3c-12,-3.6 -23,-8.1 -33,-13.5c-5.5,-3 -10.6,-6.2 -15.5,-9.7c-4.4,-3.2 -8.6,-6.6 -12.5,-10.3c-2.8,-2.6 -5.5,-5.3 -8.1,-8.2c-4,-4.4 -7.7,-9.2 -11.2,-14.2c-3.5,-5.2 -6.8,-10.7 -9.7,-16.5c-5.1,-10.1 -9.2,-21.1 -12.4,-33.1c-1.1,0.3 -2.2,0.6 -3.3,0.9l-2.5,-0.5c1.1,-2.1 2.2,-4.2 3.2,-6.4l2.9,0.3c5.5,4.2 11.4,7.5 17.8,10c-3.8,1.4 -6.1,4.7 -7,10c-0.9,5.2 0.3,8.4 3.6,9.6c3.3,1.2 6.3,-0.6 8.8,-5.3c2.5,-4.7 2.8,-8.7 0.7,-12.2c3.3,1 6.7,1.8 10.1,2.3c-3.4,2.2 -4.9,5.9 -4.7,11.3c0.3,5.3 2.2,8.2 5.7,8.6c3.5,0.4 6,-2 7.4,-7.1c1.4,-5.1 0.8,-9.1 -2.1,-12c3.4,0.2 6.9,0.2 10.3,0c-2.8,2.9 -3.5,6.9 -2.1,12c1.4,5.1 3.9,7.5 7.4,7.1c3.5,-0.4 5.4,-3.3 5.7,-8.6c0.3,-5.3 -1.3,-9.1 -4.7,-11.3c3.4,-0.5 6.8,-1.3 10.1,-2.3c-2.1,3.4 -1.9,7.5 0.6,12.2c2.5,4.7 5.5,6.4 8.8,5.3c3.3,-1.2 4.6,-4.4 3.7,-9.6c-0.9,-5.2 -3.3,-8.6 -7,-10c1.4,-0.6 2.8,-1.2 4.2,-1.8c-0.5,-1 -1,-2 -1.4,-3l2.6,-1.4zm12.1,82.4c5.6,-1.4 8.9,-7.1 7.5,-12.6c-0.9,-3.7 -3.8,-6.6 -7.5,-7.5l0,-4.1l0,0c-1.5,-1.2 -3.6,-1.2 -5.1,0l0,4.1c-5.6,1.4 -8.9,7.1 -7.5,12.6s7,8.9 12.6,7.5zm-32.2,-17.4c5.6,-1.4 8.9,-7.1 7.5,-12.6c-0.9,-3.7 -3.8,-6.6 -7.5,-7.5l0,-4.1l0,0c-1.5,-1.2 -3.6,-1.2 -5.1,0l0,4.1c-5.6,1.4 -8.9,7.1 -7.5,12.6c1.4,5.5 7,8.9 12.6,7.5z" class="st0"/>
     <path id="svg_168" d="m4479.08308,881.21773c-4.3,1.6 -8.5,2.8 -12.6,3.6c-5.4,1 -10.8,1.4 -16,1c-2,-0.1 -4.1,-0.4 -6.1,-0.7c-11.1,-1.8 -21.9,-6.7 -32.3,-14.6c-0.7,0.9 -1.4,1.8 -2,2.7l-2.9,-0.3c0.5,-1.1 1,-2.2 1.5,-3.3c-11.5,6.5 -25.6,6.5 -37.1,-0.1c10,-1.4 19.1,-6.3 25.9,-13.8c-11.1,0.8 -22,-2.5 -30.8,-9.3c42.1,-18.3 72.1,-56.5 80.1,-101.6c8,45.2 38.1,83.3 80.1,101.6c-8.7,6.8 -19.7,10.2 -30.8,9.3c6.7,7.5 15.9,12.4 25.8,13.8c-11.5,6.5 -25.6,6.6 -37.1,0.1c1.1,2.5 2.3,5 3.5,7.5l-2.4,1.2c-2.2,1.2 -4.5,2.1 -6.8,2.9zm-14.5,-48.3c5.6,-1.4 8.9,-7.1 7.5,-12.6c-0.9,-3.7 -3.8,-6.6 -7.5,-7.5l0,-4.2l0,0c-1.5,-1.2 -3.6,-1.2 -5.2,0l0,4.1c-5.6,1.4 -8.9,7.1 -7.5,12.6c1.5,5.6 7.2,9 12.7,7.6zm-31.9,30.3c5.6,-1.4 8.9,-7.1 7.5,-12.6c-0.9,-3.7 -3.8,-6.6 -7.5,-7.5l0,-4.1l0,0c-1.5,-1.2 -3.6,-1.2 -5.2,0l0,4.1c-5.6,1.4 -8.9,7.1 -7.5,12.6c1.5,5.5 7.1,8.9 12.7,7.5z" class="st0"/>
    </g>
    <g id="svg_169"/>
   </g>
  </g>
  <g id="svg_170">
   <g id="svg_171">
    <g id="svg_172">
     <path id="svg_173" d="m3770.86978,1435.97781c4.3,0.9 8.7,1.7 13.1,2.5c10.1,1.6 20.4,2.6 30.7,2c8,-0.5 16,-2 23.7,-4.6c7.5,-2.6 14.6,-6.3 20.9,-10.9c3,-2.2 5.9,-4.6 8.8,-7.1c-8.6,-1 -14.1,-2 -20,-3.8c-9.8,-2.9 -20.6,-7.7 -29.4,-13.8c-8.3,-5.7 -14.9,-12.5 -21.3,-19.7c5.8,-0.5 11.5,-1.4 17.1,-3.1c4.9,-1.6 9.7,-3.9 13.7,-7.1c4,-3.2 7.3,-7.3 9.5,-11.9c1.2,-2.4 2.1,-5 2.8,-7.8c-3.8,-0.1 -7.5,-0.2 -11.4,-0.8c-7.6,-1.1 -15.5,-4.1 -21.9,-7.9c-5.4,-3.2 -9.8,-7.1 -14,-11.5c-2.3,-2.4 -4.5,-4.9 -6.6,-7.9c2.5,-0.3 5,-0.5 7.5,-0.8c4.7,-0.5 9.4,-1.1 13.7,-3c3.6,-1.6 7,-4.3 9.3,-7.5c1.9,-2.6 3.1,-5.6 4.1,-8.8c-4,0 -8,0.1 -11.9,-0.6c-6.5,-1.2 -12.7,-4.5 -18.1,-8.6c-4.2,-3.2 -8,-7 -11.2,-11.1c-1.5,-2 -2.9,-4 -4.3,-6.1c2.8,0.1 5.7,0.2 8.5,0c3.8,-0.2 7.6,-0.7 10.9,-2.6c2.5,-1.4 4.6,-3.5 5.9,-6.1c0.9,-1.8 1.4,-3.8 1.9,-5.7c-4.4,-0.3 -7.9,-1.4 -11.3,-2.9c-7.1,-3.3 -13.5,-8.8 -19,-14.9c-5.2,-5.8 -9.7,-12 -13.3,-18.7c-3.5,-6.5 -6.3,-13.4 -9.1,-20.4c-2.8,6.9 -5.6,13.9 -9.1,20.4c-3.6,6.7 -8.1,13 -13.3,18.7c-5.5,6.1 -11.9,11.7 -19,14.9c-3.4,1.5 -6.9,2.6 -11.3,2.9c0.5,2 1,4 1.9,5.7c1.3,2.5 3.5,4.7 5.9,6.1c3.3,1.8 7.1,2.4 10.9,2.6c2.9,0.2 5.7,0.1 8.5,0c-1.4,2.1 -2.8,4.1 -4.3,6.1c-3.2,4.1 -7,7.9 -11.2,11.1c-5.4,4.1 -11.6,7.4 -18.1,8.6c-3.9,0.7 -7.9,0.6 -11.9,0.6c1,3.1 2.2,6.1 4.1,8.8c2.3,3.2 5.6,5.8 9.3,7.5c4.3,1.9 9,2.5 13.7,3c2.5,0.3 5,0.5 7.5,0.8c-2.1,3 -4.3,5.5 -6.6,7.9c-4.2,4.3 -8.6,8.2 -14,11.5c-6.4,3.8 -14.3,6.8 -21.9,7.9c-3.8,0.6 -7.6,0.7 -11.4,0.8c0.7,2.8 1.6,5.4 2.8,7.8c2.2,4.5 5.5,8.7 9.5,11.9c4,3.3 8.8,5.6 13.7,7.1c5.5,1.8 11.3,2.6 17.1,3.1c-6.4,7.3 -13,14 -21.3,19.7c-8.8,6.1 -19.6,10.9 -29.4,13.8c-5.9,1.7 -11.4,2.8 -20,3.8c2.9,2.4 5.7,4.9 8.8,7.1c6.4,4.6 13.5,8.3 20.9,10.9c7.6,2.6 15.6,4.1 23.7,4.6c10.3,0.6 20.5,-0.4 30.7,-2c4.4,-0.7 8.8,-1.5 13.1,-2.5c3.5,-0.7 7,-1.5 10.4,-2.3c0,18.9 0,30.5 0,40.1c6.9,0 13.8,0 20.6,0c0,-9.6 0,-21.2 0,-40.1c3.4,0.8 6.9,1.5 10.4,2.3zm120.1,-25.7c-5.8,6 -11.8,11.8 -18.2,17.2c-5.1,4.3 -10.4,8.2 -16.2,11.5c-9.8,5.6 -20.7,9.1 -31.9,10.8c-10.3,1.6 -20.9,1.6 -31.2,0.4c-5.5,-0.6 -10.9,-1.5 -22.6,-3.7c0,12.6 0,25.2 0,37.7c-13.8,0 -27.6,0 -41.5,0c0,-12.6 0,-25.2 0,-37.7c-11.7,2.2 -17.1,3.1 -22.6,3.7c-10.3,1.1 -20.9,1.2 -31.2,-0.4c-11.2,-1.7 -22.1,-5.3 -31.9,-10.8c-5.8,-3.3 -11.1,-7.2 -16.2,-11.5c-6.4,-5.4 -12.3,-11.2 -18.2,-17.2c8.6,-0.9 17.2,-1.9 25.7,-3.4c10.4,-1.9 20.7,-4.6 29.9,-9.3c5.5,-2.8 10.6,-6.4 15.8,-10.9c-4.5,-2 -9,-3.9 -13,-6.7c-5.6,-3.8 -10.4,-9.2 -13.5,-15.2c-1.9,-3.7 -3.3,-7.7 -4.5,-11.7c-1.3,-4.4 -2.4,-8.8 -3.4,-13.2c4.4,0.3 8.8,0.4 13.3,0.3c6,-0.1 12.1,-0.7 17.6,-2.7c5,-1.8 9.6,-4.9 14.2,-8c-4.6,-2.2 -9.1,-4.4 -12.8,-7.7c-3.7,-3.4 -6.5,-8.1 -8.3,-12.9c-2.3,-6 -3.1,-12.4 -3.9,-18.7c5.5,1.3 11.1,2.2 16.9,2c4.1,-0.1 8.3,-0.8 12,-2.4c3.1,-1.3 5.8,-3.4 8.5,-5.4c-3.3,-1.7 -6.5,-3.4 -9.1,-5.8c-3.1,-3 -5.3,-7.1 -6.6,-11.3c-1.7,-5.5 -1.9,-11.2 -1.8,-16.9c4.4,1.1 8.8,1.6 13,0.8c5.2,-1.1 10.1,-4.3 14.4,-7.9c5.7,-4.8 10.3,-10.4 14.2,-16.4c2.8,-4.3 5.2,-8.8 7.4,-13.4c1.7,-3.7 3.3,-7.5 4.8,-11.3c-4.9,2.7 -9.8,5.5 -14.6,8.2c1.8,-9.2 3.7,-18.5 5.5,-27.7c-6.9,-6.4 -13.8,-12.8 -20.8,-19.2c9.4,-1.1 18.7,-2.2 28.1,-3.3c3.9,-8.6 7.9,-17.1 11.8,-25.7c3.9,8.6 7.9,17.1 11.8,25.7c9.4,1.1 18.7,2.2 28.1,3.3c-6.9,6.4 -13.8,12.8 -20.8,19.2c1.8,9.3 3.7,18.5 5.5,27.7c-4.9,-2.7 -9.8,-5.5 -14.6,-8.2c1.5,3.8 3,7.6 4.8,11.3c2.2,4.6 4.6,9.2 7.4,13.4c3.9,6.1 8.5,11.6 14.2,16.4c4.3,3.7 9.3,6.9 14.4,7.9c4.2,0.9 8.6,0.4 13,-0.8c0.1,5.7 -0.1,11.4 -1.8,16.9c-1.3,4.2 -3.5,8.3 -6.6,11.3c-2.6,2.5 -5.8,4.1 -9.1,5.8c2.7,2 5.5,4 8.5,5.4c3.7,1.6 7.9,2.3 12,2.4c5.7,0.2 11.3,-0.7 16.9,-2c-0.8,6.4 -1.6,12.7 -3.9,18.7c-1.8,4.8 -4.6,9.5 -8.3,12.9c-3.6,3.3 -8.2,5.5 -12.8,7.7c4.6,3.1 9.2,6.2 14.2,8c5.5,2 11.6,2.5 17.6,2.7c4.5,0.1 8.9,-0.1 13.2,-0.3c-1,4.4 -2.1,8.9 -3.4,13.2c-1.2,4 -2.5,8 -4.5,11.7c-3.2,6 -7.9,11.4 -13.5,15.2c-4,2.8 -8.5,4.7 -13,6.7c5.2,4.5 10.2,8.1 15.8,10.9c9.1,4.7 19.5,7.4 29.9,9.3c8.7,1.5 17.3,2.5 25.9,3.4zm-132.9,-231.5l8.6,-8l-11.6,-1.4l-4.9,-10.6l-4.9,10.6l-11.6,1.4l8.6,8l-2.3,11.5l10.2,-5.7l10.2,5.7l-2.3,-11.5z" class="st0"/>
    </g>
    <g id="svg_174"/>
   </g>
  </g>
  <g id="svg_201">
   <g id="svg_202">
    <g id="svg_203">
     <path id="svg_204" d="m4232.05916,1512.09325c37.7,-11.4 68.7,-38.6 84.8,-74.6c-14.6,10.4 -34,11.2 -49.3,1.8c15.7,-3.2 30,-11.3 40.8,-23.3c-14.4,7 -31.3,6.1 -44.8,-2.5c31.5,-14.7 57.1,-39.2 73.1,-69.8l2.5,0.5c1.4,5.3 3.1,10.6 5.1,15.7c-3.5,-1.8 -7.5,-1.3 -12,1.6c-4.4,2.9 -6,6 -4.6,9.2c1.3,3.3 4.5,4.3 9.6,3c5.1,-1.3 8.3,-3.8 9.5,-7.7c1.7,3.9 3.6,7.8 5.6,11.5c-3.8,-1.3 -7.6,-0.3 -11.7,3.1c-4,3.4 -5.2,6.7 -3.5,9.7c1.7,3.1 5.1,3.6 10,1.7c4.9,-1.9 7.7,-4.8 8.5,-8.8c2.2,3.7 4.5,7.3 7,10.8c-3.9,-0.9 -7.6,0.7 -11.2,4.6s-4.3,7.3 -2.2,10.1c2.1,2.8 5.5,3 10.1,0.5c4.6,-2.5 7,-5.8 7.3,-9.8c2.4,3.1 4.9,6.1 7.6,8.9c0.2,0.3 0.5,0.6 0.8,0.8c-4,-0.3 -7.5,1.6 -10.5,6c-3,4.3 -3.3,7.8 -0.9,10.3c2.5,2.5 5.8,2.3 10.1,-0.8c4.3,-3.1 6.2,-6.6 5.9,-10.7c0.9,0.9 1.9,1.8 2.8,2.7c2.2,2 4.4,4 6.7,5.9c-4,0.1 -7.2,2.6 -9.7,7.3c-2.5,4.7 -2.3,8.1 0.4,10.3c2.8,2.2 6,1.5 9.9,-2.1c3.9,-3.6 5.4,-7.4 4.6,-11.4c0.2,0.2 0.4,0.3 0.7,0.5c3.2,2.4 6.5,4.7 9.8,6.9c-3.9,0.7 -6.8,3.5 -8.7,8.4c-1.8,5 -1.3,8.3 1.7,10.2c3,1.8 6.2,0.7 9.5,-3.3s4.4,-8 3.1,-11.8c3.7,2.1 7.5,4.1 11.4,6c-3.8,1.1 -6.3,4.3 -7.5,9.5c-1.2,5.1 -0.2,8.4 3,9.9c3.2,1.4 6.2,-0.1 9,-4.5c2.8,-4.4 3.3,-8.5 1.5,-12.1c5.2,2.2 10.6,4.1 16,5.7c0.3,-1.1 0.6,-2.2 0.9,-3.2l2.3,-1.3c17.1,30.9 45.7,54.1 79.7,64.5c-23.5,7.4 -48.3,9.4 -72.7,5.9c2.9,7.6 8.6,13.9 15.9,17.5c-16.6,0.8 -32.8,-5.4 -44.7,-17.1c0.7,10.2 5,19.8 12,27.2c-14.8,-1.8 -28.4,-8.6 -38.9,-19.1c-0.8,-0.8 -2,-0.8 -2.8,0c-0.5,0.5 -0.7,1.2 -0.5,1.9c2.4,10.1 2.7,20.6 0.8,30.9l-32.6,0c-1.8,-10.2 -1.5,-20.7 0.8,-30.9c0.3,-1.1 -0.4,-2.2 -1.5,-2.4c-0.7,-0.2 -1.4,0 -1.9,0.5c-10.5,10.6 -24.2,17.3 -38.9,19.1c7,-7.4 11.3,-17 12,-27.2c-11.8,11.7 -28,17.9 -44.6,17.1c7.3,-3.6 13,-9.9 15.9,-17.5c-24.7,3.6 -49.6,1.6 -73,-5.8zm64.6,-38.6c-0.5,1 -0.9,2.1 -1.3,3.1c1.2,0.5 2.3,1 3.5,1.5c-3.8,1.3 -6.3,4.6 -7.3,9.7c-1.1,5.1 0,8.4 3.3,9.6c3.3,1.3 6.3,-0.4 9,-4.9c2.7,-4.5 3.1,-8.5 1.2,-12.1c4.5,1.6 9,3 13.5,4.1c-3.6,1.8 -5.6,5.4 -5.9,10.6c-0.4,5.3 1.2,8.3 4.6,9.1c3.4,0.8 6.2,-1.2 8.3,-6.1c2.1,-4.9 1.9,-8.9 -0.4,-12.1c4.6,1 9.3,1.7 14,2.2c-3.3,2.3 -4.8,6.1 -4.4,11.4c0.4,5.3 2.3,8 5.8,8.3c3.5,0.3 5.9,-2.1 7.3,-7.2c1.4,-5.1 0.7,-9.1 -2.1,-12c4.7,0.3 9.4,0.4 14.2,0.3c-3,2.8 -3.9,6.7 -2.8,11.9c1.1,5.1 3.4,7.6 6.9,7.5c3.5,-0.2 5.6,-2.9 6.3,-8.1c0.7,-5.2 -0.6,-9.1 -3.7,-11.5c3.1,-0.2 6.1,-0.5 9.2,-0.9c1.6,-0.2 3.3,-0.5 4.9,-0.7c-2.6,3.1 -2.9,7.2 -1.2,12.1c1.8,4.9 4.4,7.1 7.8,6.4c3.5,-0.6 5.2,-3.6 5.1,-8.9c0,-5.3 -1.8,-8.9 -5.3,-10.9c4.6,-1 9.2,-2.2 13.7,-3.6c-2.1,3.5 -1.9,7.5 0.5,12.2c2.4,4.7 5.3,6.4 8.7,5.3c3.3,-1.1 4.6,-4.3 3.8,-9.5c-0.8,-5.2 -3,-8.6 -6.7,-10.1c4.4,-1.6 8.8,-3.4 13.1,-5.4c-1.6,3.7 -0.9,7.7 2.2,12c3.1,4.3 6.2,5.6 9.3,4.1c3.1,-1.6 4,-4.9 2.5,-9.9c-1.5,-5.1 -4.2,-8.1 -8.1,-9.1c4.2,-2.2 8.3,-4.6 12.2,-7.2c-1.1,3.9 0.2,7.8 3.8,11.6c3.6,3.8 6.9,4.7 9.8,2.7c2.9,-2 3.3,-5.4 1.1,-10.2s-5.2,-7.4 -9.2,-7.9c1.5,-1.1 2.9,-2.1 4.3,-3.2c-0.7,-0.9 -1.4,-1.8 -2.1,-2.7c-7,5.4 -14,10.1 -21.2,14.2c-6.2,3.5 -12.4,6.5 -18.7,9c-6.5,2.6 -13,4.6 -19.5,6.1c-3.7,0.9 -7.5,1.5 -11.3,2c-5.2,0.7 -10.4,1.1 -15.6,1.1c-6.7,0.1 -13.5,-0.4 -20.4,-1.3c-6.6,-0.9 -13.3,-2.4 -20,-4.3c-7.5,-2.2 -15.1,-5 -22.7,-8.3zm167.9,37.5c5.6,-1.4 8.9,-7.1 7.5,-12.6c-0.9,-3.7 -3.8,-6.6 -7.5,-7.5l0,-4.1l0,0c-1.5,-1.2 -3.6,-1.2 -5.2,0l0,4.1c-5.6,1.4 -8.9,7.1 -7.5,12.6s7.2,8.9 12.7,7.5zm-99.3,-37.1c5.6,-1.4 8.9,-7.1 7.5,-12.6c-0.9,-3.7 -3.8,-6.6 -7.5,-7.5l0,-4.1l0,0c-1.5,-1.2 -3.6,-1.2 -5.1,0l0,4.1c-5.6,1.4 -8.9,7.1 -7.5,12.6c1.4,5.6 7.1,8.9 12.6,7.5zm-34.2,-44.2c5.6,-1.4 8.9,-7.1 7.5,-12.6c-0.9,-3.7 -3.8,-6.6 -7.5,-7.5l0,-4.1l0,0c-1.5,-1.2 -3.6,-1.2 -5.1,0l0,4.1c-5.6,1.4 -8.9,7.1 -7.5,12.6c1.3,5.6 7,9 12.6,7.5z" class="st0"/>
     <path id="svg_205" d="m4420.95916,1341.59325c15.9,31.6 42,57 74.2,72c-13.5,8.6 -30.5,9.5 -44.8,2.5c10.8,11.9 25,20.1 40.8,23.3c-15.3,9.3 -34.7,8.6 -49.3,-1.8c1.5,3.4 3.2,6.8 5,10.1l-2.3,1.3c-12,-3.6 -23,-8.1 -33,-13.5c-5.5,-3 -10.6,-6.2 -15.5,-9.7c-4.4,-3.2 -8.6,-6.6 -12.5,-10.3c-2.8,-2.6 -5.5,-5.3 -8.1,-8.2c-4,-4.4 -7.7,-9.2 -11.2,-14.2c-3.5,-5.2 -6.8,-10.7 -9.7,-16.5c-5.1,-10.1 -9.2,-21.1 -12.4,-33.1c-1.1,0.3 -2.2,0.6 -3.3,0.9l-2.5,-0.5c1.1,-2.1 2.2,-4.2 3.2,-6.4l2.9,0.3c5.5,4.2 11.4,7.5 17.8,10c-3.8,1.4 -6.1,4.7 -7,10c-0.9,5.2 0.3,8.4 3.6,9.6c3.3,1.2 6.3,-0.6 8.8,-5.3c2.5,-4.7 2.8,-8.7 0.7,-12.2c3.3,1 6.7,1.8 10.1,2.3c-3.4,2.2 -4.9,5.9 -4.7,11.3c0.3,5.3 2.2,8.2 5.7,8.6c3.5,0.4 6,-2 7.4,-7.1c1.4,-5.1 0.8,-9.1 -2.1,-12c3.4,0.2 6.9,0.2 10.3,0c-2.8,2.9 -3.5,6.9 -2.1,12c1.4,5.1 3.9,7.5 7.4,7.1c3.5,-0.4 5.4,-3.3 5.7,-8.6c0.3,-5.3 -1.3,-9.1 -4.7,-11.3c3.4,-0.5 6.8,-1.3 10.1,-2.3c-2.1,3.4 -1.9,7.5 0.6,12.2c2.5,4.7 5.5,6.4 8.8,5.3c3.3,-1.2 4.6,-4.4 3.7,-9.6c-0.9,-5.2 -3.3,-8.6 -7,-10c1.4,-0.6 2.8,-1.2 4.2,-1.8c-0.5,-1 -1,-2 -1.4,-3l2.6,-1.4zm12.1,82.4c5.6,-1.4 8.9,-7.1 7.5,-12.6c-0.9,-3.7 -3.8,-6.6 -7.5,-7.5l0,-4.1l0,0c-1.5,-1.2 -3.6,-1.2 -5.1,0l0,4.1c-5.6,1.4 -8.9,7.1 -7.5,12.6s7,8.9 12.6,7.5zm-32.2,-17.4c5.6,-1.4 8.9,-7.1 7.5,-12.6c-0.9,-3.7 -3.8,-6.6 -7.5,-7.5l0,-4.1l0,0c-1.5,-1.2 -3.6,-1.2 -5.1,0l0,4.1c-5.6,1.4 -8.9,7.1 -7.5,12.6c1.4,5.5 7,8.9 12.6,7.5z" class="st0"/>
     <path id="svg_206" d="m4411.65916,1345.69325c-4.3,1.6 -8.5,2.8 -12.6,3.6c-5.4,1 -10.8,1.4 -16,1c-2,-0.1 -4.1,-0.4 -6.1,-0.7c-11.1,-1.8 -21.9,-6.7 -32.3,-14.6c-0.7,0.9 -1.4,1.8 -2,2.7l-2.9,-0.3c0.5,-1.1 1,-2.2 1.5,-3.3c-11.5,6.5 -25.6,6.5 -37.1,-0.1c10,-1.4 19.1,-6.3 25.9,-13.8c-11.1,0.8 -22,-2.5 -30.8,-9.3c42.1,-18.3 72.1,-56.5 80.1,-101.6c8,45.2 38.1,83.3 80.1,101.6c-8.7,6.8 -19.7,10.2 -30.8,9.3c6.7,7.5 15.9,12.4 25.8,13.8c-11.5,6.5 -25.6,6.6 -37.1,0.1c1.1,2.5 2.3,5 3.5,7.5l-2.4,1.2c-2.2,1.2 -4.5,2.1 -6.8,2.9zm-14.5,-48.3c5.6,-1.4 8.9,-7.1 7.5,-12.6c-0.9,-3.7 -3.8,-6.6 -7.5,-7.5l0,-4.2l0,0c-1.5,-1.2 -3.6,-1.2 -5.2,0l0,4.1c-5.6,1.4 -8.9,7.1 -7.5,12.6c1.5,5.6 7.2,9 12.7,7.6zm-31.9,30.3c5.6,-1.4 8.9,-7.1 7.5,-12.6c-0.9,-3.7 -3.8,-6.6 -7.5,-7.5l0,-4.1l0,0c-1.5,-1.2 -3.6,-1.2 -5.2,0l0,4.1c-5.6,1.4 -8.9,7.1 -7.5,12.6c1.5,5.5 7.1,8.9 12.7,7.5z" class="st0"/>
    </g>
    <g id="svg_207"/>
   </g>
  </g>
 </g>
</svg>